G04 start of page 9 for group -4078 idx -4078 *
G04 Title: (unknown), bottomsilk *
G04 Creator: pcb 20110918 *
G04 CreationDate: Fri 20 Jun 2014 04:10:56 PM GMT UTC *
G04 For: ndholmes *
G04 Format: Gerber/RS-274X *
G04 PCB-Dimensions: 225000 140000 *
G04 PCB-Coordinate-Origin: lower left *
%MOIN*%
%FSLAX25Y25*%
%LNBOTTOMSILK*%
%ADD77C,0.0080*%
%ADD76C,0.0100*%
G54D76*X500Y58500D02*Y139500D01*
X179500D01*
X164500D02*X224500D01*
Y500D01*
X500D01*
Y61000D01*
G54D77*X66000Y23000D02*X67000D01*
X66500D02*Y27000D01*
X66000D02*X67000D01*
X68200Y25500D02*Y26500D01*
Y25500D02*X68700Y25000D01*
X69700D01*
X70200Y25500D01*
Y26500D01*
X69700Y27000D02*X70200Y26500D01*
X68700Y27000D02*X69700D01*
X68200Y26500D02*X68700Y27000D01*
X71400Y25000D02*Y26500D01*
X71900Y27000D01*
X72400D01*
X72900Y26500D01*
Y25000D02*Y26500D01*
X73400Y27000D01*
X73900D01*
X74400Y26500D01*
Y25000D02*Y26500D01*
X77100Y25000D02*X77600Y25500D01*
X76100Y25000D02*X77100D01*
X75600Y25500D02*X76100Y25000D01*
X75600Y25500D02*Y26500D01*
X76100Y27000D01*
X77600Y25000D02*Y26500D01*
X78100Y27000D01*
X76100D02*X77100D01*
X77600Y26500D01*
X83100Y23000D02*X83600Y23500D01*
X81600Y23000D02*X83100D01*
X81100Y23500D02*X81600Y23000D01*
X81100Y23500D02*Y24500D01*
X81600Y25000D01*
X83100D01*
X83600Y25500D01*
Y26500D01*
X83100Y27000D02*X83600Y26500D01*
X81600Y27000D02*X83100D01*
X81100Y26500D02*X81600Y27000D01*
X85300Y25000D02*X86800D01*
X84800Y25500D02*X85300Y25000D01*
X84800Y25500D02*Y26500D01*
X85300Y27000D01*
X86800D01*
X89500Y25000D02*X90000Y25500D01*
X88500Y25000D02*X89500D01*
X88000Y25500D02*X88500Y25000D01*
X88000Y25500D02*Y26500D01*
X88500Y27000D01*
X90000Y25000D02*Y26500D01*
X90500Y27000D01*
X88500D02*X89500D01*
X90000Y26500D01*
X91700Y23000D02*Y26500D01*
X92200Y27000D01*
X93700D02*X95200D01*
X93200Y26500D02*X93700Y27000D01*
X93200Y25500D02*Y26500D01*
Y25500D02*X93700Y25000D01*
X94700D01*
X95200Y25500D01*
X93200Y26000D02*X95200D01*
Y25500D02*Y26000D01*
X98400Y23000D02*Y27000D01*
X97900D02*X98400Y26500D01*
X96900Y27000D02*X97900D01*
X96400Y26500D02*X96900Y27000D01*
X96400Y25500D02*Y26500D01*
Y25500D02*X96900Y25000D01*
X97900D01*
X98400Y25500D01*
X101400Y24800D02*X102900D01*
X101400Y27000D02*X103400D01*
X101400Y23000D02*Y27000D01*
Y23000D02*X103400D01*
X105100Y25500D02*Y27000D01*
Y25500D02*X105600Y25000D01*
X106100D01*
X106600Y25500D01*
Y27000D01*
X104600Y25000D02*X105100Y25500D01*
X109300Y25000D02*X109800Y25500D01*
X108300Y25000D02*X109300D01*
X107800Y25500D02*X108300Y25000D01*
X107800Y25500D02*Y26500D01*
X108300Y27000D01*
X109300D01*
X109800Y26500D01*
X107800Y28000D02*X108300Y28500D01*
X109300D01*
X109800Y28000D01*
Y25000D02*Y28000D01*
X111000Y24000D02*Y24100D01*
Y25500D02*Y27000D01*
X112500Y25500D02*Y27000D01*
Y25500D02*X113000Y25000D01*
X113500D01*
X114000Y25500D01*
Y27000D01*
X112000Y25000D02*X112500Y25500D01*
X115700Y27000D02*X117200D01*
X115200Y26500D02*X115700Y27000D01*
X115200Y25500D02*Y26500D01*
Y25500D02*X115700Y25000D01*
X116700D01*
X117200Y25500D01*
X115200Y26000D02*X117200D01*
Y25500D02*Y26000D01*
X118900Y27000D02*X120400D01*
X118400Y26500D02*X118900Y27000D01*
X118400Y25500D02*Y26500D01*
Y25500D02*X118900Y25000D01*
X119900D01*
X120400Y25500D01*
X118400Y26000D02*X120400D01*
Y25500D02*Y26000D01*
X122100Y25500D02*Y27000D01*
Y25500D02*X122600Y25000D01*
X123600D01*
X121600D02*X122100Y25500D01*
X124800Y24000D02*Y24100D01*
Y25500D02*Y27000D01*
X126300Y25500D02*Y27000D01*
Y25500D02*X126800Y25000D01*
X127300D01*
X127800Y25500D01*
Y27000D01*
X125800Y25000D02*X126300Y25500D01*
X130500Y25000D02*X131000Y25500D01*
X129500Y25000D02*X130500D01*
X129000Y25500D02*X129500Y25000D01*
X129000Y25500D02*Y26500D01*
X129500Y27000D01*
X130500D01*
X131000Y26500D01*
X129000Y28000D02*X129500Y28500D01*
X130500D01*
X131000Y28000D01*
Y25000D02*Y28000D01*
X46000Y53000D02*Y57000D01*
Y55500D02*X46500Y55000D01*
X47500D01*
X48000Y55500D01*
Y57000D01*
X49700Y53000D02*Y56500D01*
X50200Y57000D01*
X49200Y54500D02*X50200D01*
X51700Y53000D02*Y56500D01*
X52200Y57000D01*
X51200Y54500D02*X52200D01*
X53700Y55500D02*Y58500D01*
X53200Y55000D02*X53700Y55500D01*
X54200Y55000D01*
X55200D01*
X55700Y55500D01*
Y56500D01*
X55200Y57000D02*X55700Y56500D01*
X54200Y57000D02*X55200D01*
X53700Y56500D02*X54200Y57000D01*
X56900Y54500D02*X57400D01*
X56900Y55500D02*X57400D01*
X58600Y56500D02*X61600Y53500D01*
X62800Y56500D02*X65800Y53500D01*
X67000Y55000D02*Y56500D01*
X67500Y57000D01*
X68000D01*
X68500Y56500D01*
Y55000D02*Y56500D01*
X69000Y57000D01*
X69500D01*
X70000Y56500D01*
Y55000D02*Y56500D01*
X71200Y55000D02*Y56500D01*
X71700Y57000D01*
X72200D01*
X72700Y56500D01*
Y55000D02*Y56500D01*
X73200Y57000D01*
X73700D01*
X74200Y56500D01*
Y55000D02*Y56500D01*
X75400Y55000D02*Y56500D01*
X75900Y57000D01*
X76400D01*
X76900Y56500D01*
Y55000D02*Y56500D01*
X77400Y57000D01*
X77900D01*
X78400Y56500D01*
Y55000D02*Y56500D01*
X79600Y57000D02*X80100D01*
X81300Y54000D02*Y54100D01*
Y55500D02*Y57000D01*
X83800Y55000D02*X84300Y55500D01*
X82800Y55000D02*X83800D01*
X82300Y55500D02*X82800Y55000D01*
X82300Y55500D02*Y56500D01*
X82800Y57000D01*
X84300Y55000D02*Y56500D01*
X84800Y57000D01*
X82800D02*X83800D01*
X84300Y56500D01*
X86500Y57000D02*X88000D01*
X88500Y56500D01*
X88000Y56000D02*X88500Y56500D01*
X86500Y56000D02*X88000D01*
X86000Y55500D02*X86500Y56000D01*
X86000Y55500D02*X86500Y55000D01*
X88000D01*
X88500Y55500D01*
X86000Y56500D02*X86500Y57000D01*
X90200Y55000D02*X91700D01*
X89700Y55500D02*X90200Y55000D01*
X89700Y55500D02*Y56500D01*
X90200Y57000D01*
X91700D01*
X94400Y55000D02*X94900Y55500D01*
X93400Y55000D02*X94400D01*
X92900Y55500D02*X93400Y55000D01*
X92900Y55500D02*Y56500D01*
X93400Y57000D01*
X94900Y55000D02*Y56500D01*
X95400Y57000D01*
X93400D02*X94400D01*
X94900Y56500D01*
X96600Y53000D02*Y56500D01*
X97100Y57000D01*
X98600D02*X100100D01*
X98100Y56500D02*X98600Y57000D01*
X98100Y55500D02*Y56500D01*
Y55500D02*X98600Y55000D01*
X99600D01*
X100100Y55500D01*
X98100Y56000D02*X100100D01*
Y55500D02*Y56000D01*
X103300Y53000D02*Y57000D01*
X102800D02*X103300Y56500D01*
X101800Y57000D02*X102800D01*
X101300Y56500D02*X101800Y57000D01*
X101300Y55500D02*Y56500D01*
Y55500D02*X101800Y55000D01*
X102800D01*
X103300Y55500D01*
X104500Y57000D02*X105000D01*
X106700Y55000D02*X108200D01*
X106200Y55500D02*X106700Y55000D01*
X106200Y55500D02*Y56500D01*
X106700Y57000D01*
X108200D01*
X109400Y55500D02*Y56500D01*
Y55500D02*X109900Y55000D01*
X110900D01*
X111400Y55500D01*
Y56500D01*
X110900Y57000D02*X111400Y56500D01*
X109900Y57000D02*X110900D01*
X109400Y56500D02*X109900Y57000D01*
X113100Y55500D02*Y57000D01*
Y55500D02*X113600Y55000D01*
X114100D01*
X114600Y55500D01*
Y57000D01*
Y55500D02*X115100Y55000D01*
X115600D01*
X116100Y55500D01*
Y57000D01*
X112600Y55000D02*X113100Y55500D01*
X66250Y39000D02*X66750Y39500D01*
X66250Y36000D02*X66750Y35500D01*
X66250Y36000D02*Y39000D01*
X68450Y37500D02*X69950D01*
X67950Y38000D02*X68450Y37500D01*
X67950Y38000D02*Y39000D01*
X68450Y39500D01*
X69950D01*
X71150Y35500D02*X71650Y36000D01*
Y39000D01*
X71150Y39500D02*X71650Y39000D01*
X74650Y36000D02*X75150Y35500D01*
X76650D01*
X77150Y36000D01*
Y37000D01*
X74650Y39500D02*X77150Y37000D01*
X74650Y39500D02*X77150D01*
X78350Y39000D02*X78850Y39500D01*
X78350Y36000D02*Y39000D01*
Y36000D02*X78850Y35500D01*
X79850D01*
X80350Y36000D01*
Y39000D01*
X79850Y39500D02*X80350Y39000D01*
X78850Y39500D02*X79850D01*
X78350Y38500D02*X80350Y36500D01*
X81550Y36300D02*X82350Y35500D01*
Y39500D01*
X81550D02*X83050D01*
X84250Y38000D02*X86250Y35500D01*
X84250Y38000D02*X86750D01*
X86250Y35500D02*Y39500D01*
X91550Y37500D02*X93550D01*
X97250Y39500D02*X98550D01*
X96550Y38800D02*X97250Y39500D01*
X96550Y36200D02*Y38800D01*
Y36200D02*X97250Y35500D01*
X98550D01*
X100450Y39500D02*X101750D01*
X99750Y38800D02*X100450Y39500D01*
X99750Y36200D02*Y38800D01*
Y36200D02*X100450Y35500D01*
X101750D01*
X104750Y39500D02*X106750D01*
X107250Y39000D01*
Y37800D02*Y39000D01*
X106750Y37300D02*X107250Y37800D01*
X105250Y37300D02*X106750D01*
X105250Y35500D02*Y39500D01*
X104750Y35500D02*X106750D01*
X107250Y36000D01*
Y36800D01*
X106750Y37300D02*X107250Y36800D01*
X108450Y35500D02*X109450Y37500D01*
X110450Y35500D01*
X109450Y37500D02*Y39500D01*
X111650Y37500D02*X113650D01*
X116850Y35500D02*X117350Y36000D01*
X115350Y35500D02*X116850D01*
X114850Y36000D02*X115350Y35500D01*
X114850Y36000D02*Y37000D01*
X115350Y37500D01*
X116850D01*
X117350Y38000D01*
Y39000D01*
X116850Y39500D02*X117350Y39000D01*
X115350Y39500D02*X116850D01*
X114850Y39000D02*X115350Y39500D01*
X118550Y36500D02*Y39500D01*
Y36500D02*X119250Y35500D01*
X120350D01*
X121050Y36500D01*
Y39500D01*
X118550Y37500D02*X121050D01*
X66700Y33500D02*X68000D01*
X66000Y32800D02*X66700Y33500D01*
X66000Y30200D02*Y32800D01*
Y30200D02*X66700Y29500D01*
X68000D01*
X69200D02*Y33500D01*
Y31500D02*X71200Y29500D01*
X69200Y31500D02*X71200Y33500D01*
X72400Y29500D02*X74400D01*
X73400D02*Y33500D01*
X75600Y31500D02*X77600D01*
X80800Y29500D02*X81300Y30000D01*
X79300Y29500D02*X80800D01*
X78800Y30000D02*X79300Y29500D01*
X78800Y30000D02*Y31000D01*
X79300Y31500D01*
X80800D01*
X81300Y32000D01*
Y33000D01*
X80800Y33500D02*X81300Y33000D01*
X79300Y33500D02*X80800D01*
X78800Y33000D02*X79300Y33500D01*
X82500Y30000D02*Y33000D01*
Y30000D02*X83000Y29500D01*
X84000D01*
X84500Y30000D01*
Y32500D01*
X83500Y33500D02*X84500Y32500D01*
X83000Y33500D02*X83500D01*
X82500Y33000D02*X83000Y33500D01*
X83500Y32000D02*X84500Y33500D01*
X85700Y29500D02*Y33000D01*
X86200Y33500D01*
X87200D01*
X87700Y33000D01*
Y29500D02*Y33000D01*
X88900Y31300D02*X90400D01*
X88900Y33500D02*X90900D01*
X88900Y29500D02*Y33500D01*
Y29500D02*X90900D01*
X92100Y30500D02*Y33500D01*
Y30500D02*X92800Y29500D01*
X93900D01*
X94600Y30500D01*
Y33500D01*
X92100Y31500D02*X94600D01*
X95800Y29500D02*Y33500D01*
X97800D01*
X100800Y31500D02*X101800Y33500D01*
X102800Y31500D02*X101800Y33500D01*
X104000Y30300D02*X104800Y29500D01*
Y33500D01*
X104000D02*X105500D01*
X106700D02*X107200D01*
X108400Y30300D02*X109200Y29500D01*
Y33500D01*
X108400D02*X109900D01*
M02*
