M48
INCH
T53C0.020
T52C0.048
T51C0.038
T50C0.045
%
T53
X003100Y006450
X003600Y006450
X003100Y006950
X003600Y006950
X003100Y007400
X003600Y007400
X004150Y007400
X004150Y006950
X004150Y006450
X002000Y007150
X002450Y007150
X014000Y008550
X014900Y006900
X014450Y008550
X014450Y008100
X015800Y007000
X012050Y007200
X010100Y007350
X011400Y007400
X017050Y008650
X016150Y009100
X016600Y009100
X016150Y008650
X016600Y008650
X016150Y008200
X016600Y008200
X017050Y008200
X010100Y008250
X010100Y007800
X011400Y008300
X011400Y007850
X009650Y008250
X009650Y007800
X009650Y007350
X017050Y009100
X013400Y010800
X013400Y010350
X012950Y010800
X012950Y010350
X010950Y012200
X008800Y013000
X007800Y013000
X008500Y009700
X008950Y009700
X009400Y009700
X008500Y009250
X008950Y009250
X009400Y009250
X008200Y010800
X007750Y010950
X008200Y010350
X007200Y011850
X007750Y011850
X007200Y011400
X007750Y011400
X007200Y010950
X007750Y010500
X005600Y011850
X005600Y010950
X005600Y011400
X005600Y010500
X006050Y009750
X006050Y010200
X003100Y005450
X003600Y005450
X003100Y005950
X003600Y005950
X014550Y005250
X005030Y003230
X014500Y002800
X016300Y002800
X011900Y004550
X013300Y003450
X013750Y003450
X009250Y004450
X009250Y004950
X018650Y001450
X018600Y002200
X017350Y005700
X018050Y005300
X018000Y003850
X018300Y004300
X018300Y004800
X018300Y008050
X019650Y008750
X019650Y008050
X019650Y007350
X004580Y003680
X004580Y003230
X005030Y003680
X005250Y007400
X004700Y007400
X005250Y006950
X005250Y006450
X004700Y006450
X004700Y006950
T51
X013050Y000750
X013050Y001750
X012500Y006350
X012500Y005350
X012500Y004350
X013500Y006350
X013500Y005350
X013500Y004350
T50
X001250Y001300
X007050Y008850
X006050Y008850
X005050Y008850
X001250Y003300
X001250Y002300
T52
X020550Y010950
X020550Y008950
X020550Y012950
X020550Y002950
X020550Y004950
X020550Y006950
X002050Y008150
X002050Y006150
X002050Y012950
X002050Y010950
M30
