G04 start of page 2 for group 0 idx 0 *
G04 Title: (unknown), component *
G04 Creator: pcb 20110918 *
G04 CreationDate: Fri 20 Jun 2014 04:10:56 PM GMT UTC *
G04 For: ndholmes *
G04 Format: Gerber/RS-274X *
G04 PCB-Dimensions: 225000 140000 *
G04 PCB-Coordinate-Origin: lower left *
%MOIN*%
%FSLAX25Y25*%
%LNTOP*%
%ADD34C,0.0480*%
%ADD33C,0.0380*%
%ADD32C,0.0450*%
%ADD31C,0.0200*%
%ADD30C,0.0360*%
%ADD29R,0.0315X0.0315*%
%ADD28R,0.0240X0.0240*%
%ADD27R,0.0945X0.0945*%
%ADD26R,0.0378X0.0378*%
%ADD25R,0.0360X0.0360*%
%ADD24R,0.0091X0.0091*%
%ADD23R,0.0394X0.0394*%
%ADD22R,0.0276X0.0276*%
%ADD21R,0.0200X0.0200*%
%ADD20R,0.0630X0.0630*%
%ADD19R,0.0512X0.0512*%
%ADD18C,0.0787*%
%ADD17C,0.0600*%
%ADD16C,0.0850*%
%ADD15C,0.0800*%
%ADD14C,0.0400*%
%ADD13C,0.0250*%
%ADD12C,0.0100*%
%ADD11C,0.0001*%
G54D11*G36*
X56500Y102000D02*X64500D01*
Y78500D01*
X56500D01*
Y102000D01*
G37*
G36*
X75261Y99000D02*X81000D01*
Y51500D01*
X75261D01*
Y85683D01*
X75331Y85695D01*
X75480Y85746D01*
X75619Y85819D01*
X75745Y85913D01*
X75855Y86025D01*
X75946Y86154D01*
X76013Y86296D01*
X76204Y86828D01*
X76337Y87377D01*
X76417Y87936D01*
X76444Y88500D01*
X76417Y89064D01*
X76337Y89623D01*
X76204Y90172D01*
X76019Y90706D01*
X75950Y90848D01*
X75858Y90977D01*
X75748Y91091D01*
X75621Y91185D01*
X75481Y91259D01*
X75332Y91309D01*
X75261Y91321D01*
Y99000D01*
G37*
G36*
X70502D02*X75261D01*
Y91321D01*
X75176Y91336D01*
X75018Y91338D01*
X74861Y91315D01*
X74710Y91268D01*
X74569Y91198D01*
X74439Y91107D01*
X74326Y90996D01*
X74232Y90870D01*
X74158Y90730D01*
X74108Y90580D01*
X74081Y90424D01*
X74079Y90266D01*
X74102Y90110D01*
X74152Y89960D01*
X74278Y89608D01*
X74366Y89244D01*
X74419Y88874D01*
X74437Y88500D01*
X74419Y88126D01*
X74366Y87756D01*
X74278Y87392D01*
X74156Y87039D01*
X74106Y86889D01*
X74083Y86734D01*
X74085Y86576D01*
X74112Y86421D01*
X74162Y86272D01*
X74236Y86133D01*
X74330Y86007D01*
X74442Y85897D01*
X74571Y85806D01*
X74712Y85736D01*
X74862Y85689D01*
X75018Y85667D01*
X75175Y85668D01*
X75261Y85683D01*
Y51500D01*
X70502D01*
Y82556D01*
X71064Y82583D01*
X71623Y82663D01*
X72172Y82796D01*
X72706Y82981D01*
X72848Y83050D01*
X72977Y83142D01*
X73091Y83252D01*
X73185Y83379D01*
X73259Y83519D01*
X73309Y83668D01*
X73336Y83824D01*
X73338Y83982D01*
X73315Y84139D01*
X73268Y84290D01*
X73198Y84431D01*
X73107Y84561D01*
X72996Y84674D01*
X72870Y84768D01*
X72730Y84842D01*
X72580Y84892D01*
X72424Y84919D01*
X72266Y84921D01*
X72110Y84898D01*
X71960Y84848D01*
X71608Y84722D01*
X71244Y84634D01*
X70874Y84581D01*
X70502Y84563D01*
Y92437D01*
X70874Y92419D01*
X71244Y92366D01*
X71608Y92278D01*
X71961Y92156D01*
X72111Y92106D01*
X72266Y92083D01*
X72424Y92085D01*
X72579Y92112D01*
X72728Y92162D01*
X72867Y92236D01*
X72993Y92330D01*
X73103Y92442D01*
X73194Y92571D01*
X73264Y92712D01*
X73311Y92862D01*
X73333Y93018D01*
X73332Y93175D01*
X73305Y93331D01*
X73254Y93480D01*
X73181Y93619D01*
X73087Y93745D01*
X72975Y93855D01*
X72846Y93946D01*
X72704Y94013D01*
X72172Y94204D01*
X71623Y94337D01*
X71064Y94417D01*
X70502Y94444D01*
Y99000D01*
G37*
G36*
X66000D02*X70502D01*
Y94444D01*
X70500Y94444D01*
X69936Y94417D01*
X69377Y94337D01*
X68828Y94204D01*
X68294Y94019D01*
X68152Y93950D01*
X68023Y93858D01*
X67909Y93748D01*
X67815Y93621D01*
X67741Y93481D01*
X67691Y93332D01*
X67664Y93176D01*
X67662Y93018D01*
X67685Y92861D01*
X67732Y92710D01*
X67802Y92569D01*
X67893Y92439D01*
X68004Y92326D01*
X68130Y92232D01*
X68270Y92158D01*
X68420Y92108D01*
X68576Y92081D01*
X68734Y92079D01*
X68890Y92102D01*
X69040Y92152D01*
X69392Y92278D01*
X69756Y92366D01*
X70126Y92419D01*
X70500Y92437D01*
X70502Y92437D01*
Y84563D01*
X70500Y84563D01*
X70126Y84581D01*
X69756Y84634D01*
X69392Y84722D01*
X69039Y84844D01*
X68889Y84894D01*
X68734Y84917D01*
X68576Y84915D01*
X68421Y84888D01*
X68272Y84838D01*
X68133Y84764D01*
X68007Y84670D01*
X67897Y84558D01*
X67806Y84429D01*
X67736Y84288D01*
X67689Y84138D01*
X67667Y83982D01*
X67668Y83825D01*
X67695Y83669D01*
X67746Y83520D01*
X67819Y83381D01*
X67913Y83255D01*
X68025Y83145D01*
X68154Y83054D01*
X68296Y82987D01*
X68828Y82796D01*
X69377Y82663D01*
X69936Y82583D01*
X70500Y82556D01*
X70502Y82556D01*
Y51500D01*
X66000D01*
Y85665D01*
X66139Y85685D01*
X66290Y85732D01*
X66431Y85802D01*
X66561Y85893D01*
X66674Y86004D01*
X66768Y86130D01*
X66842Y86270D01*
X66892Y86420D01*
X66919Y86576D01*
X66921Y86734D01*
X66898Y86890D01*
X66848Y87040D01*
X66722Y87392D01*
X66634Y87756D01*
X66581Y88126D01*
X66563Y88500D01*
X66581Y88874D01*
X66634Y89244D01*
X66722Y89608D01*
X66844Y89961D01*
X66894Y90111D01*
X66917Y90266D01*
X66915Y90424D01*
X66888Y90579D01*
X66838Y90728D01*
X66764Y90867D01*
X66670Y90993D01*
X66558Y91103D01*
X66429Y91194D01*
X66288Y91264D01*
X66138Y91311D01*
X66000Y91331D01*
Y99000D01*
G37*
G36*
X56500Y81500D02*X64500D01*
Y73500D01*
X56500D01*
Y81500D01*
G37*
G36*
X57500Y69000D02*X79000D01*
Y51500D01*
X57500D01*
Y69000D01*
G37*
G36*
X78000Y112500D02*X86616D01*
X86619Y106127D01*
X86656Y105974D01*
X86716Y105829D01*
X86798Y105694D01*
X86901Y105575D01*
X87020Y105472D01*
X87155Y105390D01*
X87300Y105330D01*
X87453Y105293D01*
X87610Y105284D01*
X91547Y105293D01*
X91700Y105330D01*
X91845Y105390D01*
X91980Y105472D01*
X92099Y105575D01*
X92202Y105694D01*
X92284Y105829D01*
X92344Y105974D01*
X92381Y106127D01*
X92390Y106284D01*
X92386Y112500D01*
X97000D01*
Y100000D01*
X78000D01*
Y112500D01*
G37*
G36*
X82500D02*X86616D01*
X86619Y106127D01*
X86656Y105974D01*
X86716Y105829D01*
X86798Y105694D01*
X86901Y105575D01*
X87020Y105472D01*
X87155Y105390D01*
X87300Y105330D01*
X87453Y105293D01*
X87610Y105284D01*
X91547Y105293D01*
X91700Y105330D01*
X91845Y105390D01*
X91980Y105472D01*
X92099Y105575D01*
X92202Y105694D01*
X92284Y105829D01*
X92344Y105974D01*
X92381Y106127D01*
X92390Y106284D01*
X92386Y112500D01*
X97000D01*
Y76500D01*
X82500D01*
Y112500D01*
G37*
G36*
X39500Y128000D02*X51000D01*
Y109500D01*
X39500D01*
Y128000D01*
G37*
G36*
X53000Y118500D02*X75500D01*
Y100500D01*
X53000D01*
Y118500D01*
G37*
G36*
X39500Y107500D02*X58000D01*
Y100500D01*
X39500D01*
Y107500D01*
G37*
G36*
X20492Y119000D02*X38000D01*
Y91500D01*
X20492D01*
Y103984D01*
X20500Y103983D01*
X21363Y104051D01*
X22205Y104253D01*
X23005Y104584D01*
X23743Y105037D01*
X24401Y105599D01*
X24963Y106257D01*
X25416Y106995D01*
X25747Y107795D01*
X25949Y108637D01*
X26000Y109500D01*
X25949Y110363D01*
X25747Y111205D01*
X25416Y112005D01*
X24963Y112743D01*
X24401Y113401D01*
X23743Y113963D01*
X23005Y114416D01*
X22205Y114747D01*
X21363Y114949D01*
X20500Y115017D01*
X20492Y115016D01*
Y119000D01*
G37*
G36*
X8000D02*X20492D01*
Y115016D01*
X19637Y114949D01*
X18795Y114747D01*
X17995Y114416D01*
X17257Y113963D01*
X16599Y113401D01*
X16037Y112743D01*
X15584Y112005D01*
X15253Y111205D01*
X15051Y110363D01*
X14983Y109500D01*
X15051Y108637D01*
X15253Y107795D01*
X15584Y106995D01*
X16037Y106257D01*
X16599Y105599D01*
X17257Y105037D01*
X17995Y104584D01*
X18795Y104253D01*
X19637Y104051D01*
X20492Y103984D01*
Y91500D01*
X8000D01*
Y119000D01*
G37*
G36*
X34500D02*X50000D01*
Y109500D01*
X34500D01*
Y119000D01*
G37*
G36*
X20500Y139000D02*X48500D01*
Y129500D01*
X26000D01*
Y132000D01*
X25993Y132118D01*
X25965Y132232D01*
X25920Y132342D01*
X25859Y132442D01*
X25782Y132532D01*
X25692Y132609D01*
X25592Y132670D01*
X25482Y132715D01*
X25368Y132743D01*
X25250Y132752D01*
X25132Y132743D01*
X25018Y132715D01*
X24908Y132670D01*
X24808Y132609D01*
X24718Y132532D01*
X24641Y132442D01*
X24580Y132342D01*
X24535Y132232D01*
X24507Y132118D01*
X24500Y132000D01*
Y129500D01*
X20500D01*
Y133500D01*
X23000D01*
X23118Y133507D01*
X23232Y133535D01*
X23342Y133580D01*
X23442Y133641D01*
X23532Y133718D01*
X23609Y133808D01*
X23670Y133908D01*
X23715Y134018D01*
X23743Y134132D01*
X23752Y134250D01*
X23743Y134368D01*
X23715Y134482D01*
X23670Y134592D01*
X23609Y134692D01*
X23532Y134782D01*
X23442Y134859D01*
X23342Y134920D01*
X23232Y134965D01*
X23118Y134993D01*
X23000Y135000D01*
X20500D01*
Y139000D01*
G37*
G36*
X8000D02*X20500D01*
Y135000D01*
X18000D01*
X17882Y134993D01*
X17768Y134965D01*
X17658Y134920D01*
X17558Y134859D01*
X17468Y134782D01*
X17391Y134692D01*
X17330Y134592D01*
X17285Y134482D01*
X17257Y134368D01*
X17248Y134250D01*
X17257Y134132D01*
X17285Y134018D01*
X17330Y133908D01*
X17391Y133808D01*
X17468Y133718D01*
X17558Y133641D01*
X17658Y133580D01*
X17768Y133535D01*
X17882Y133507D01*
X18000Y133500D01*
X20500D01*
Y129500D01*
X16500D01*
Y132000D01*
X16493Y132118D01*
X16465Y132232D01*
X16420Y132342D01*
X16359Y132442D01*
X16282Y132532D01*
X16192Y132609D01*
X16092Y132670D01*
X15982Y132715D01*
X15868Y132743D01*
X15750Y132752D01*
X15632Y132743D01*
X15518Y132715D01*
X15408Y132670D01*
X15308Y132609D01*
X15218Y132532D01*
X15141Y132442D01*
X15080Y132342D01*
X15035Y132232D01*
X15007Y132118D01*
X15000Y132000D01*
Y129500D01*
X8000D01*
Y139000D01*
G37*
G36*
X25250D02*X38000D01*
Y121000D01*
X25250D01*
Y126248D01*
X25368Y126257D01*
X25482Y126285D01*
X25592Y126330D01*
X25692Y126391D01*
X25782Y126468D01*
X25859Y126558D01*
X25920Y126658D01*
X25965Y126768D01*
X25993Y126882D01*
X26000Y127000D01*
Y132000D01*
X25993Y132118D01*
X25965Y132232D01*
X25920Y132342D01*
X25859Y132442D01*
X25782Y132532D01*
X25692Y132609D01*
X25592Y132670D01*
X25482Y132715D01*
X25368Y132743D01*
X25250Y132752D01*
Y139000D01*
G37*
G36*
X20500D02*X25250D01*
Y132752D01*
X25132Y132743D01*
X25018Y132715D01*
X24908Y132670D01*
X24808Y132609D01*
X24718Y132532D01*
X24641Y132442D01*
X24580Y132342D01*
X24535Y132232D01*
X24507Y132118D01*
X24500Y132000D01*
Y127000D01*
X24507Y126882D01*
X24535Y126768D01*
X24580Y126658D01*
X24641Y126558D01*
X24718Y126468D01*
X24808Y126391D01*
X24908Y126330D01*
X25018Y126285D01*
X25132Y126257D01*
X25250Y126248D01*
Y121000D01*
X20500D01*
Y124000D01*
X23000D01*
X23118Y124007D01*
X23232Y124035D01*
X23342Y124080D01*
X23442Y124141D01*
X23532Y124218D01*
X23609Y124308D01*
X23670Y124408D01*
X23715Y124518D01*
X23743Y124632D01*
X23752Y124750D01*
X23743Y124868D01*
X23715Y124982D01*
X23670Y125092D01*
X23609Y125192D01*
X23532Y125282D01*
X23442Y125359D01*
X23342Y125420D01*
X23232Y125465D01*
X23118Y125493D01*
X23000Y125500D01*
X20500D01*
Y133500D01*
X23000D01*
X23118Y133507D01*
X23232Y133535D01*
X23342Y133580D01*
X23442Y133641D01*
X23532Y133718D01*
X23609Y133808D01*
X23670Y133908D01*
X23715Y134018D01*
X23743Y134132D01*
X23752Y134250D01*
X23743Y134368D01*
X23715Y134482D01*
X23670Y134592D01*
X23609Y134692D01*
X23532Y134782D01*
X23442Y134859D01*
X23342Y134920D01*
X23232Y134965D01*
X23118Y134993D01*
X23000Y135000D01*
X20500D01*
Y139000D01*
G37*
G36*
X15750D02*X20500D01*
Y135000D01*
X18000D01*
X17882Y134993D01*
X17768Y134965D01*
X17658Y134920D01*
X17558Y134859D01*
X17468Y134782D01*
X17391Y134692D01*
X17330Y134592D01*
X17285Y134482D01*
X17257Y134368D01*
X17248Y134250D01*
X17257Y134132D01*
X17285Y134018D01*
X17330Y133908D01*
X17391Y133808D01*
X17468Y133718D01*
X17558Y133641D01*
X17658Y133580D01*
X17768Y133535D01*
X17882Y133507D01*
X18000Y133500D01*
X20500D01*
Y125500D01*
X18000D01*
X17882Y125493D01*
X17768Y125465D01*
X17658Y125420D01*
X17558Y125359D01*
X17468Y125282D01*
X17391Y125192D01*
X17330Y125092D01*
X17285Y124982D01*
X17257Y124868D01*
X17248Y124750D01*
X17257Y124632D01*
X17285Y124518D01*
X17330Y124408D01*
X17391Y124308D01*
X17468Y124218D01*
X17558Y124141D01*
X17658Y124080D01*
X17768Y124035D01*
X17882Y124007D01*
X18000Y124000D01*
X20500D01*
Y121000D01*
X15750D01*
Y126248D01*
X15868Y126257D01*
X15982Y126285D01*
X16092Y126330D01*
X16192Y126391D01*
X16282Y126468D01*
X16359Y126558D01*
X16420Y126658D01*
X16465Y126768D01*
X16493Y126882D01*
X16500Y127000D01*
Y132000D01*
X16493Y132118D01*
X16465Y132232D01*
X16420Y132342D01*
X16359Y132442D01*
X16282Y132532D01*
X16192Y132609D01*
X16092Y132670D01*
X15982Y132715D01*
X15868Y132743D01*
X15750Y132752D01*
Y139000D01*
G37*
G36*
X8000D02*X15750D01*
Y132752D01*
X15632Y132743D01*
X15518Y132715D01*
X15408Y132670D01*
X15308Y132609D01*
X15218Y132532D01*
X15141Y132442D01*
X15080Y132342D01*
X15035Y132232D01*
X15007Y132118D01*
X15000Y132000D01*
Y127000D01*
X15007Y126882D01*
X15035Y126768D01*
X15080Y126658D01*
X15141Y126558D01*
X15218Y126468D01*
X15308Y126391D01*
X15408Y126330D01*
X15518Y126285D01*
X15632Y126257D01*
X15750Y126248D01*
Y121000D01*
X8000D01*
Y139000D01*
G37*
G36*
X50500Y99000D02*X55500D01*
Y91435D01*
X55437Y91440D01*
X55280Y91428D01*
X55127Y91391D01*
X54982Y91331D01*
X54847Y91249D01*
X54728Y91146D01*
X54625Y91027D01*
X54543Y90892D01*
X54483Y90747D01*
X54446Y90594D01*
X54437Y90437D01*
Y86563D01*
X54446Y86406D01*
X54483Y86253D01*
X54543Y86108D01*
X54625Y85973D01*
X54728Y85854D01*
X54847Y85751D01*
X54982Y85669D01*
X55127Y85609D01*
X55280Y85572D01*
X55437Y85560D01*
X55500Y85565D01*
Y78500D01*
X50500D01*
Y82563D01*
X52437D01*
X52594Y82572D01*
X52747Y82609D01*
X52892Y82669D01*
X53027Y82751D01*
X53146Y82854D01*
X53249Y82973D01*
X53331Y83108D01*
X53391Y83253D01*
X53428Y83406D01*
X53440Y83563D01*
X53428Y83720D01*
X53391Y83873D01*
X53331Y84018D01*
X53249Y84153D01*
X53146Y84272D01*
X53027Y84375D01*
X52892Y84457D01*
X52747Y84517D01*
X52594Y84554D01*
X52437Y84563D01*
X50500D01*
Y92437D01*
X52437D01*
X52594Y92446D01*
X52747Y92483D01*
X52892Y92543D01*
X53027Y92625D01*
X53146Y92728D01*
X53249Y92847D01*
X53331Y92982D01*
X53391Y93127D01*
X53428Y93280D01*
X53440Y93437D01*
X53428Y93594D01*
X53391Y93747D01*
X53331Y93892D01*
X53249Y94027D01*
X53146Y94146D01*
X53027Y94249D01*
X52892Y94331D01*
X52747Y94391D01*
X52594Y94428D01*
X52437Y94437D01*
X50500D01*
Y99000D01*
G37*
G36*
X45563D02*X50500D01*
Y94437D01*
X48563D01*
X48406Y94428D01*
X48253Y94391D01*
X48108Y94331D01*
X47973Y94249D01*
X47854Y94146D01*
X47751Y94027D01*
X47669Y93892D01*
X47609Y93747D01*
X47572Y93594D01*
X47560Y93437D01*
X47572Y93280D01*
X47609Y93127D01*
X47669Y92982D01*
X47751Y92847D01*
X47854Y92728D01*
X47973Y92625D01*
X48108Y92543D01*
X48253Y92483D01*
X48406Y92446D01*
X48563Y92437D01*
X50500D01*
Y84563D01*
X48563D01*
X48406Y84554D01*
X48253Y84517D01*
X48108Y84457D01*
X47973Y84375D01*
X47854Y84272D01*
X47751Y84153D01*
X47669Y84018D01*
X47609Y83873D01*
X47572Y83720D01*
X47560Y83563D01*
X47572Y83406D01*
X47609Y83253D01*
X47669Y83108D01*
X47751Y82973D01*
X47854Y82854D01*
X47973Y82751D01*
X48108Y82669D01*
X48253Y82609D01*
X48406Y82572D01*
X48563Y82563D01*
X50500D01*
Y78500D01*
X45563D01*
Y85560D01*
X45720Y85572D01*
X45873Y85609D01*
X46018Y85669D01*
X46153Y85751D01*
X46272Y85854D01*
X46375Y85973D01*
X46457Y86108D01*
X46517Y86253D01*
X46554Y86406D01*
X46563Y86563D01*
Y90437D01*
X46554Y90594D01*
X46517Y90747D01*
X46457Y90892D01*
X46375Y91027D01*
X46272Y91146D01*
X46153Y91249D01*
X46018Y91331D01*
X45873Y91391D01*
X45720Y91428D01*
X45563Y91440D01*
Y99000D01*
G37*
G36*
X16500D02*X45563D01*
Y91440D01*
X45406Y91428D01*
X45253Y91391D01*
X45108Y91331D01*
X44973Y91249D01*
X44854Y91146D01*
X44751Y91027D01*
X44669Y90892D01*
X44609Y90747D01*
X44572Y90594D01*
X44563Y90437D01*
Y86563D01*
X44572Y86406D01*
X44609Y86253D01*
X44669Y86108D01*
X44751Y85973D01*
X44854Y85854D01*
X44973Y85751D01*
X45108Y85669D01*
X45253Y85609D01*
X45406Y85572D01*
X45563Y85560D01*
Y78500D01*
X25998D01*
X25986Y85735D01*
X25931Y85965D01*
X25841Y86183D01*
X25717Y86384D01*
X25564Y86564D01*
X25384Y86717D01*
X25183Y86841D01*
X24965Y86931D01*
X24735Y86986D01*
X24500Y87000D01*
X16500Y86986D01*
Y99000D01*
G37*
G36*
X8000Y96000D02*X19500D01*
Y87000D01*
X8000D01*
Y96000D01*
G37*
G36*
X91000Y52500D02*X103000D01*
Y41500D01*
X91000D01*
Y52500D01*
G37*
G36*
X134000Y93500D02*X155000D01*
Y89500D01*
X134000D01*
Y93500D01*
G37*
G36*
X137000Y88000D02*X147000D01*
Y78500D01*
X146209D01*
X146209Y78500D01*
X146208Y78500D01*
X141879D01*
X141879Y78500D01*
X141878Y78500D01*
X137000D01*
Y88000D01*
G37*
G36*
X148500Y93500D02*X155500D01*
Y79000D01*
X148500D01*
Y93500D01*
G37*
G36*
X142500Y78500D02*X141879D01*
X141879Y78500D01*
X141878Y78500D01*
X98500D01*
Y88000D01*
X142500D01*
Y78500D01*
G37*
G36*
X212000Y63000D02*X209993D01*
Y66295D01*
X210018Y66285D01*
X210132Y66257D01*
X210250Y66248D01*
X210368Y66257D01*
X210482Y66285D01*
X210592Y66330D01*
X210692Y66391D01*
X210782Y66468D01*
X210859Y66558D01*
X210920Y66658D01*
X210965Y66768D01*
X210993Y66882D01*
X211000Y67000D01*
Y72000D01*
X210993Y72118D01*
X210965Y72232D01*
X210920Y72342D01*
X210859Y72442D01*
X210782Y72532D01*
X210692Y72609D01*
X210592Y72670D01*
X210482Y72715D01*
X210368Y72743D01*
X210250Y72752D01*
X210132Y72743D01*
X210018Y72715D01*
X209993Y72705D01*
Y86645D01*
X210078Y86681D01*
X210179Y86743D01*
X210269Y86819D01*
X210345Y86909D01*
X210405Y87011D01*
X210622Y87480D01*
X210789Y87969D01*
X210909Y88472D01*
X210982Y88984D01*
X211006Y89500D01*
X210982Y90016D01*
X210909Y90528D01*
X210789Y91031D01*
X210622Y91520D01*
X210410Y91992D01*
X210349Y92093D01*
X210272Y92184D01*
X210182Y92261D01*
X210080Y92323D01*
X209993Y92360D01*
Y97000D01*
X212000D01*
Y63000D01*
G37*
G36*
X209993D02*X205502D01*
Y64000D01*
X208000D01*
X208118Y64007D01*
X208232Y64035D01*
X208342Y64080D01*
X208442Y64141D01*
X208532Y64218D01*
X208609Y64308D01*
X208670Y64408D01*
X208715Y64518D01*
X208743Y64632D01*
X208752Y64750D01*
X208743Y64868D01*
X208715Y64982D01*
X208670Y65092D01*
X208609Y65192D01*
X208532Y65282D01*
X208442Y65359D01*
X208342Y65420D01*
X208232Y65465D01*
X208118Y65493D01*
X208000Y65500D01*
X205502D01*
Y73500D01*
X208000D01*
X208118Y73507D01*
X208232Y73535D01*
X208342Y73580D01*
X208442Y73641D01*
X208532Y73718D01*
X208609Y73808D01*
X208670Y73908D01*
X208715Y74018D01*
X208743Y74132D01*
X208752Y74250D01*
X208743Y74368D01*
X208715Y74482D01*
X208670Y74592D01*
X208609Y74692D01*
X208532Y74782D01*
X208442Y74859D01*
X208342Y74920D01*
X208232Y74965D01*
X208118Y74993D01*
X208000Y75000D01*
X205502D01*
Y83994D01*
X206016Y84018D01*
X206528Y84091D01*
X207031Y84211D01*
X207520Y84378D01*
X207992Y84590D01*
X208093Y84651D01*
X208184Y84728D01*
X208261Y84818D01*
X208323Y84920D01*
X208369Y85029D01*
X208397Y85145D01*
X208406Y85263D01*
X208397Y85381D01*
X208370Y85497D01*
X208324Y85607D01*
X208262Y85708D01*
X208186Y85798D01*
X208095Y85876D01*
X207994Y85938D01*
X207885Y85984D01*
X207769Y86011D01*
X207651Y86021D01*
X207532Y86012D01*
X207417Y85984D01*
X207308Y85937D01*
X206968Y85779D01*
X206612Y85658D01*
X206247Y85570D01*
X205875Y85518D01*
X205502Y85500D01*
Y93500D01*
X205875Y93482D01*
X206247Y93430D01*
X206612Y93342D01*
X206968Y93221D01*
X207310Y93067D01*
X207418Y93020D01*
X207533Y92993D01*
X207651Y92983D01*
X207768Y92993D01*
X207883Y93021D01*
X207992Y93066D01*
X208093Y93128D01*
X208182Y93205D01*
X208259Y93295D01*
X208320Y93395D01*
X208365Y93504D01*
X208393Y93619D01*
X208402Y93737D01*
X208392Y93855D01*
X208365Y93969D01*
X208319Y94078D01*
X208257Y94179D01*
X208181Y94269D01*
X208091Y94345D01*
X207989Y94405D01*
X207520Y94622D01*
X207031Y94789D01*
X206528Y94909D01*
X206016Y94982D01*
X205502Y95006D01*
Y97000D01*
X209993D01*
Y92360D01*
X209971Y92369D01*
X209855Y92397D01*
X209737Y92406D01*
X209619Y92397D01*
X209503Y92370D01*
X209393Y92324D01*
X209292Y92262D01*
X209202Y92186D01*
X209124Y92095D01*
X209062Y91994D01*
X209016Y91885D01*
X208989Y91769D01*
X208979Y91651D01*
X208988Y91532D01*
X209016Y91417D01*
X209063Y91308D01*
X209221Y90968D01*
X209342Y90612D01*
X209430Y90247D01*
X209482Y89875D01*
X209500Y89500D01*
X209482Y89125D01*
X209430Y88753D01*
X209342Y88388D01*
X209221Y88032D01*
X209067Y87690D01*
X209020Y87582D01*
X208993Y87467D01*
X208983Y87349D01*
X208993Y87232D01*
X209021Y87117D01*
X209066Y87008D01*
X209128Y86907D01*
X209205Y86818D01*
X209295Y86741D01*
X209395Y86680D01*
X209504Y86635D01*
X209619Y86607D01*
X209737Y86598D01*
X209855Y86608D01*
X209969Y86635D01*
X209993Y86645D01*
Y72705D01*
X209908Y72670D01*
X209808Y72609D01*
X209718Y72532D01*
X209641Y72442D01*
X209580Y72342D01*
X209535Y72232D01*
X209507Y72118D01*
X209500Y72000D01*
Y67000D01*
X209507Y66882D01*
X209535Y66768D01*
X209580Y66658D01*
X209641Y66558D01*
X209718Y66468D01*
X209808Y66391D01*
X209908Y66330D01*
X209993Y66295D01*
Y63000D01*
G37*
G36*
X205502D02*X201007D01*
Y66295D01*
X201092Y66330D01*
X201192Y66391D01*
X201282Y66468D01*
X201359Y66558D01*
X201420Y66658D01*
X201465Y66768D01*
X201493Y66882D01*
X201500Y67000D01*
Y72000D01*
X201493Y72118D01*
X201465Y72232D01*
X201420Y72342D01*
X201359Y72442D01*
X201282Y72532D01*
X201192Y72609D01*
X201092Y72670D01*
X201007Y72705D01*
Y86640D01*
X201029Y86631D01*
X201145Y86603D01*
X201263Y86594D01*
X201381Y86603D01*
X201497Y86630D01*
X201607Y86676D01*
X201708Y86738D01*
X201798Y86814D01*
X201876Y86905D01*
X201938Y87006D01*
X201984Y87115D01*
X202011Y87231D01*
X202021Y87349D01*
X202012Y87468D01*
X201984Y87583D01*
X201937Y87692D01*
X201779Y88032D01*
X201658Y88388D01*
X201570Y88753D01*
X201518Y89125D01*
X201500Y89500D01*
X201518Y89875D01*
X201570Y90247D01*
X201658Y90612D01*
X201779Y90968D01*
X201933Y91310D01*
X201980Y91418D01*
X202007Y91533D01*
X202017Y91651D01*
X202007Y91768D01*
X201979Y91883D01*
X201934Y91992D01*
X201872Y92093D01*
X201795Y92182D01*
X201705Y92259D01*
X201605Y92320D01*
X201496Y92365D01*
X201381Y92393D01*
X201263Y92402D01*
X201145Y92392D01*
X201031Y92365D01*
X201007Y92355D01*
Y97000D01*
X205502D01*
Y95006D01*
X205500Y95006D01*
X204984Y94982D01*
X204472Y94909D01*
X203969Y94789D01*
X203480Y94622D01*
X203008Y94410D01*
X202907Y94349D01*
X202816Y94272D01*
X202739Y94182D01*
X202677Y94080D01*
X202631Y93971D01*
X202603Y93855D01*
X202594Y93737D01*
X202603Y93619D01*
X202630Y93503D01*
X202676Y93393D01*
X202738Y93292D01*
X202814Y93202D01*
X202905Y93124D01*
X203006Y93062D01*
X203115Y93016D01*
X203231Y92989D01*
X203349Y92979D01*
X203468Y92988D01*
X203583Y93016D01*
X203692Y93063D01*
X204032Y93221D01*
X204388Y93342D01*
X204753Y93430D01*
X205125Y93482D01*
X205500Y93500D01*
X205502Y93500D01*
Y85500D01*
X205500Y85500D01*
X205125Y85518D01*
X204753Y85570D01*
X204388Y85658D01*
X204032Y85779D01*
X203690Y85933D01*
X203582Y85980D01*
X203467Y86007D01*
X203349Y86017D01*
X203232Y86007D01*
X203117Y85979D01*
X203008Y85934D01*
X202907Y85872D01*
X202818Y85795D01*
X202741Y85705D01*
X202680Y85605D01*
X202635Y85496D01*
X202607Y85381D01*
X202598Y85263D01*
X202608Y85145D01*
X202635Y85031D01*
X202681Y84922D01*
X202743Y84821D01*
X202819Y84731D01*
X202909Y84655D01*
X203011Y84595D01*
X203480Y84378D01*
X203969Y84211D01*
X204472Y84091D01*
X204984Y84018D01*
X205500Y83994D01*
X205502Y83994D01*
Y75000D01*
X203000D01*
X202882Y74993D01*
X202768Y74965D01*
X202658Y74920D01*
X202558Y74859D01*
X202468Y74782D01*
X202391Y74692D01*
X202330Y74592D01*
X202285Y74482D01*
X202257Y74368D01*
X202248Y74250D01*
X202257Y74132D01*
X202285Y74018D01*
X202330Y73908D01*
X202391Y73808D01*
X202468Y73718D01*
X202558Y73641D01*
X202658Y73580D01*
X202768Y73535D01*
X202882Y73507D01*
X203000Y73500D01*
X205502D01*
Y65500D01*
X203000D01*
X202882Y65493D01*
X202768Y65465D01*
X202658Y65420D01*
X202558Y65359D01*
X202468Y65282D01*
X202391Y65192D01*
X202330Y65092D01*
X202285Y64982D01*
X202257Y64868D01*
X202248Y64750D01*
X202257Y64632D01*
X202285Y64518D01*
X202330Y64408D01*
X202391Y64308D01*
X202468Y64218D01*
X202558Y64141D01*
X202658Y64080D01*
X202768Y64035D01*
X202882Y64007D01*
X203000Y64000D01*
X205502D01*
Y63000D01*
G37*
G36*
X201007D02*X193000D01*
Y97000D01*
X201007D01*
Y92355D01*
X200922Y92319D01*
X200821Y92257D01*
X200731Y92181D01*
X200655Y92091D01*
X200595Y91989D01*
X200378Y91520D01*
X200211Y91031D01*
X200091Y90528D01*
X200018Y90016D01*
X199994Y89500D01*
X200018Y88984D01*
X200091Y88472D01*
X200211Y87969D01*
X200378Y87480D01*
X200590Y87008D01*
X200651Y86907D01*
X200728Y86816D01*
X200818Y86739D01*
X200920Y86677D01*
X201007Y86640D01*
Y72705D01*
X200982Y72715D01*
X200868Y72743D01*
X200750Y72752D01*
X200632Y72743D01*
X200518Y72715D01*
X200408Y72670D01*
X200308Y72609D01*
X200218Y72532D01*
X200141Y72442D01*
X200080Y72342D01*
X200035Y72232D01*
X200007Y72118D01*
X200000Y72000D01*
Y67000D01*
X200007Y66882D01*
X200035Y66768D01*
X200080Y66658D01*
X200141Y66558D01*
X200218Y66468D01*
X200308Y66391D01*
X200408Y66330D01*
X200518Y66285D01*
X200632Y66257D01*
X200750Y66248D01*
X200868Y66257D01*
X200982Y66285D01*
X201007Y66295D01*
Y63000D01*
G37*
G36*
X157000Y93500D02*X175000D01*
Y79000D01*
X157000D01*
Y93500D01*
G37*
G36*
X82500Y88000D02*X117500D01*
Y71000D01*
X82500D01*
Y88000D01*
G37*
G36*
X98500Y99500D02*X138000D01*
Y89500D01*
X98500D01*
Y99500D01*
G37*
G36*
X148500Y42500D02*Y40059D01*
X148495Y40000D01*
X148500Y39941D01*
Y31000D01*
X135002D01*
Y38995D01*
X135433Y39016D01*
X135863Y39078D01*
X136284Y39182D01*
X136694Y39325D01*
X136800Y39378D01*
X136896Y39447D01*
X136981Y39530D01*
X137051Y39625D01*
X137106Y39731D01*
X137143Y39843D01*
X137163Y39960D01*
X137164Y40079D01*
X137146Y40196D01*
X137110Y40309D01*
X137057Y40415D01*
X136988Y40512D01*
X136905Y40596D01*
X136809Y40667D01*
X136704Y40721D01*
X136592Y40759D01*
X136475Y40778D01*
X136356Y40779D01*
X136239Y40761D01*
X136126Y40723D01*
X135855Y40624D01*
X135575Y40556D01*
X135289Y40514D01*
X135002Y40500D01*
Y42500D01*
X137825D01*
X137780Y42372D01*
X137742Y42261D01*
X137725Y42144D01*
X137725Y42026D01*
X137745Y41909D01*
X137782Y41797D01*
X137836Y41693D01*
X137906Y41598D01*
X137991Y41515D01*
X138087Y41446D01*
X138192Y41393D01*
X138305Y41357D01*
X138421Y41340D01*
X138539Y41341D01*
X138656Y41360D01*
X138768Y41397D01*
X138873Y41452D01*
X138968Y41522D01*
X139051Y41606D01*
X139119Y41702D01*
X139170Y41808D01*
X139318Y42216D01*
X139388Y42500D01*
X148500D01*
G37*
G36*
X135002Y31000D02*X130000D01*
Y42500D01*
X130612D01*
X130682Y42216D01*
X130825Y41806D01*
X130878Y41700D01*
X130947Y41604D01*
X131030Y41519D01*
X131125Y41449D01*
X131231Y41394D01*
X131343Y41357D01*
X131460Y41337D01*
X131579Y41336D01*
X131696Y41354D01*
X131809Y41390D01*
X131915Y41443D01*
X132012Y41512D01*
X132096Y41595D01*
X132167Y41691D01*
X132221Y41796D01*
X132259Y41908D01*
X132278Y42025D01*
X132279Y42144D01*
X132261Y42261D01*
X132223Y42374D01*
X132177Y42500D01*
X135002D01*
Y40500D01*
X135000Y40500D01*
X134711Y40514D01*
X134425Y40556D01*
X134145Y40624D01*
X133872Y40720D01*
X133761Y40758D01*
X133644Y40775D01*
X133526Y40775D01*
X133409Y40755D01*
X133297Y40718D01*
X133193Y40664D01*
X133098Y40594D01*
X133015Y40509D01*
X132946Y40413D01*
X132893Y40308D01*
X132857Y40195D01*
X132840Y40079D01*
X132841Y39961D01*
X132860Y39844D01*
X132897Y39732D01*
X132952Y39627D01*
X133022Y39532D01*
X133106Y39449D01*
X133202Y39381D01*
X133308Y39330D01*
X133716Y39182D01*
X134137Y39078D01*
X134567Y39016D01*
X135000Y38995D01*
X135002Y38995D01*
Y31000D01*
G37*
G36*
X83000Y40000D02*X97000D01*
Y36000D01*
X83000D01*
Y40000D01*
G37*
G36*
X141500Y47500D02*Y32500D01*
X138613D01*
Y41353D01*
X138656Y41360D01*
X138768Y41397D01*
X138873Y41452D01*
X138968Y41522D01*
X139051Y41606D01*
X139119Y41702D01*
X139170Y41808D01*
X139318Y42216D01*
X139422Y42637D01*
X139484Y43067D01*
X139505Y43500D01*
X139484Y43933D01*
X139422Y44363D01*
X139318Y44784D01*
X139175Y45194D01*
X139122Y45300D01*
X139053Y45396D01*
X138970Y45481D01*
X138875Y45551D01*
X138769Y45606D01*
X138657Y45643D01*
X138613Y45651D01*
Y47500D01*
X139441D01*
X139500Y47495D01*
X139559Y47500D01*
X141500D01*
G37*
G36*
X138613Y32500D02*X135002D01*
Y38995D01*
X135433Y39016D01*
X135863Y39078D01*
X136284Y39182D01*
X136694Y39325D01*
X136800Y39378D01*
X136896Y39447D01*
X136981Y39530D01*
X137051Y39625D01*
X137106Y39731D01*
X137143Y39843D01*
X137163Y39960D01*
X137164Y40079D01*
X137146Y40196D01*
X137110Y40309D01*
X137057Y40415D01*
X136988Y40512D01*
X136905Y40596D01*
X136809Y40667D01*
X136704Y40721D01*
X136592Y40759D01*
X136475Y40778D01*
X136356Y40779D01*
X136239Y40761D01*
X136126Y40723D01*
X135855Y40624D01*
X135575Y40556D01*
X135289Y40514D01*
X135002Y40500D01*
Y46500D01*
X135289Y46486D01*
X135575Y46444D01*
X135855Y46376D01*
X136128Y46280D01*
X136239Y46242D01*
X136356Y46225D01*
X136474Y46225D01*
X136591Y46245D01*
X136703Y46282D01*
X136807Y46336D01*
X136902Y46406D01*
X136985Y46491D01*
X137054Y46587D01*
X137107Y46692D01*
X137143Y46805D01*
X137160Y46921D01*
X137159Y47039D01*
X137140Y47156D01*
X137103Y47268D01*
X137048Y47373D01*
X136978Y47468D01*
X136945Y47500D01*
X138613D01*
Y45651D01*
X138540Y45663D01*
X138421Y45664D01*
X138304Y45646D01*
X138191Y45610D01*
X138085Y45557D01*
X137988Y45488D01*
X137904Y45405D01*
X137833Y45309D01*
X137779Y45204D01*
X137741Y45092D01*
X137722Y44975D01*
X137721Y44856D01*
X137739Y44739D01*
X137777Y44626D01*
X137876Y44355D01*
X137944Y44075D01*
X137986Y43789D01*
X138000Y43500D01*
X137986Y43211D01*
X137944Y42925D01*
X137876Y42645D01*
X137780Y42372D01*
X137742Y42261D01*
X137725Y42144D01*
X137725Y42026D01*
X137745Y41909D01*
X137782Y41797D01*
X137836Y41693D01*
X137906Y41598D01*
X137991Y41515D01*
X138087Y41446D01*
X138192Y41393D01*
X138305Y41357D01*
X138421Y41340D01*
X138539Y41341D01*
X138613Y41353D01*
Y32500D01*
G37*
G36*
X135002D02*X131387D01*
Y41349D01*
X131460Y41337D01*
X131579Y41336D01*
X131696Y41354D01*
X131809Y41390D01*
X131915Y41443D01*
X132012Y41512D01*
X132096Y41595D01*
X132167Y41691D01*
X132221Y41796D01*
X132259Y41908D01*
X132278Y42025D01*
X132279Y42144D01*
X132261Y42261D01*
X132223Y42374D01*
X132124Y42645D01*
X132056Y42925D01*
X132014Y43211D01*
X132000Y43500D01*
X132014Y43789D01*
X132056Y44075D01*
X132124Y44355D01*
X132220Y44628D01*
X132258Y44739D01*
X132275Y44856D01*
X132275Y44974D01*
X132255Y45091D01*
X132218Y45203D01*
X132164Y45307D01*
X132094Y45402D01*
X132009Y45485D01*
X131913Y45554D01*
X131808Y45607D01*
X131695Y45643D01*
X131579Y45660D01*
X131461Y45659D01*
X131387Y45647D01*
Y47500D01*
X133050D01*
X133019Y47470D01*
X132949Y47375D01*
X132894Y47269D01*
X132857Y47157D01*
X132837Y47040D01*
X132836Y46921D01*
X132854Y46804D01*
X132890Y46691D01*
X132943Y46585D01*
X133012Y46488D01*
X133095Y46404D01*
X133191Y46333D01*
X133296Y46279D01*
X133408Y46241D01*
X133525Y46222D01*
X133644Y46221D01*
X133761Y46239D01*
X133874Y46277D01*
X134145Y46376D01*
X134425Y46444D01*
X134711Y46486D01*
X135000Y46500D01*
X135002Y46500D01*
Y40500D01*
X135000Y40500D01*
X134711Y40514D01*
X134425Y40556D01*
X134145Y40624D01*
X133872Y40720D01*
X133761Y40758D01*
X133644Y40775D01*
X133526Y40775D01*
X133409Y40755D01*
X133297Y40718D01*
X133193Y40664D01*
X133098Y40594D01*
X133015Y40509D01*
X132946Y40413D01*
X132893Y40308D01*
X132857Y40195D01*
X132840Y40079D01*
X132841Y39961D01*
X132860Y39844D01*
X132897Y39732D01*
X132952Y39627D01*
X133022Y39532D01*
X133106Y39449D01*
X133202Y39381D01*
X133308Y39330D01*
X133716Y39182D01*
X134137Y39078D01*
X134567Y39016D01*
X135000Y38995D01*
X135002Y38995D01*
Y32500D01*
G37*
G36*
X131387D02*X130000D01*
Y47500D01*
X131387D01*
Y45647D01*
X131344Y45640D01*
X131232Y45603D01*
X131127Y45548D01*
X131032Y45478D01*
X130949Y45394D01*
X130881Y45298D01*
X130830Y45192D01*
X130682Y44784D01*
X130578Y44363D01*
X130516Y43933D01*
X130495Y43500D01*
X130516Y43067D01*
X130578Y42637D01*
X130682Y42216D01*
X130825Y41806D01*
X130878Y41700D01*
X130947Y41604D01*
X131030Y41519D01*
X131125Y41449D01*
X131231Y41394D01*
X131343Y41357D01*
X131387Y41349D01*
Y32500D01*
G37*
G36*
X49500Y139000D02*X56000D01*
Y126000D01*
X49500D01*
Y139000D01*
G37*
G36*
X80000D01*
Y132319D01*
X79936Y132264D01*
X79924Y132250D01*
X79677D01*
X79651Y132272D01*
X79275Y132503D01*
X78868Y132671D01*
X78439Y132774D01*
X78000Y132809D01*
X77561Y132774D01*
X77132Y132671D01*
X76725Y132503D01*
X76349Y132272D01*
X76014Y131986D01*
X75728Y131651D01*
X75497Y131275D01*
X75329Y130868D01*
X75226Y130439D01*
X75191Y130000D01*
X75226Y129561D01*
X75329Y129132D01*
X75497Y128725D01*
X75728Y128349D01*
X76014Y128014D01*
X76349Y127728D01*
X76725Y127497D01*
X77132Y127329D01*
X77561Y127226D01*
X78000Y127191D01*
X78439Y127226D01*
X78868Y127329D01*
X79275Y127497D01*
X79651Y127728D01*
X79677Y127750D01*
X79924D01*
X79936Y127736D01*
X80000Y127681D01*
Y122500D01*
X49500D01*
Y139000D01*
G37*
G36*
X53000Y121000D02*X80000D01*
Y100500D01*
X53000D01*
Y121000D01*
G37*
G36*
X85500Y114000D02*X81500D01*
Y126000D01*
X85500D01*
Y114000D01*
G37*
G36*
X77500Y126000D02*X85500D01*
Y122500D01*
X77500D01*
Y126000D01*
G37*
G36*
X79500Y139000D02*X85000D01*
Y132700D01*
X80765Y132686D01*
X80535Y132631D01*
X80317Y132541D01*
X80116Y132417D01*
X79936Y132264D01*
X79924Y132250D01*
X79677D01*
X79651Y132272D01*
X79500Y132365D01*
Y139000D01*
G37*
G36*
X43500Y76500D02*X64500D01*
Y70500D01*
X43500D01*
Y76500D01*
G37*
G36*
X28500Y50500D02*Y76500D01*
X56000D01*
Y50500D01*
X28500D01*
G37*
G36*
Y55000D02*X33500D01*
Y42500D01*
X28500D01*
Y55000D01*
G37*
G36*
X36500Y67500D02*X16000D01*
Y75500D01*
X36500D01*
Y67500D01*
G37*
G36*
X35500Y49000D02*X81000D01*
Y42500D01*
X35500D01*
Y49000D01*
G37*
G36*
X57500Y54000D02*X81000D01*
Y45500D01*
X57500D01*
Y54000D01*
G37*
G36*
X83000Y52500D02*X97000D01*
Y37500D01*
X83000D01*
Y52500D01*
G37*
G36*
X55500Y45000D02*X64000D01*
Y38000D01*
X55500D01*
Y45000D01*
G37*
G36*
X59000Y25500D02*X76000D01*
Y22000D01*
X59000D01*
Y25500D01*
G37*
G36*
X55500D02*X76000D01*
Y16500D01*
X55500D01*
Y25500D01*
G37*
G36*
X28000Y29500D02*X20000D01*
Y35941D01*
X20005Y36000D01*
X19986Y36235D01*
X19931Y36465D01*
X19841Y36683D01*
X19717Y36884D01*
X19564Y37064D01*
X19519Y37102D01*
X18500Y38121D01*
Y41000D01*
X28000D01*
Y29500D01*
G37*
G36*
X29000Y43000D02*X33000D01*
Y29521D01*
X32697Y29646D01*
X32353Y29729D01*
X32000Y29757D01*
X31647Y29729D01*
X31303Y29646D01*
X30975Y29511D01*
X30958Y29500D01*
X29000D01*
Y43000D01*
G37*
G36*
X55500D02*X64000D01*
Y22000D01*
X55500D01*
Y43000D01*
G37*
G36*
X41000Y39500D02*X54000D01*
Y29500D01*
X41000D01*
Y39500D01*
G37*
G36*
X40000Y29500D02*X35500D01*
Y43500D01*
X40000D01*
Y29500D01*
G37*
G36*
X35000Y49000D02*X37500D01*
Y29500D01*
X35000D01*
Y49000D01*
G37*
G36*
X32000D02*X33500D01*
Y29500D01*
X33042D01*
X33025Y29511D01*
X32697Y29646D01*
X32353Y29729D01*
X32000Y29757D01*
X32000D01*
Y49000D01*
G37*
G36*
X93500Y119500D02*X104000D01*
Y114000D01*
X93500D01*
Y119500D01*
G37*
G36*
X98500D02*X104500D01*
Y91500D01*
X98500D01*
Y119500D01*
G37*
G36*
X107000Y130500D02*X112000D01*
Y113500D01*
X107000D01*
Y130500D01*
G37*
G36*
X103500Y101500D02*X125500D01*
Y97000D01*
X103500D01*
Y101500D01*
G37*
G36*
X104000Y104500D02*X112000D01*
Y98000D01*
X104000D01*
Y104500D01*
G37*
G36*
X114000Y139000D02*X121500D01*
Y114500D01*
X114000D01*
Y139000D01*
G37*
G36*
X136500Y101000D02*X127000D01*
Y127000D01*
X136500D01*
Y101000D01*
G37*
G36*
X114000Y127000D02*X136500D01*
Y114500D01*
X114000D01*
Y127000D01*
G37*
G36*
X122500Y116500D02*X132000D01*
Y103000D01*
X122500D01*
Y116500D01*
G37*
G36*
X119500Y129500D02*X136500D01*
Y120000D01*
X119500D01*
Y129500D01*
G37*
G36*
X77000Y139000D02*X85000D01*
Y135000D01*
X77000D01*
Y139000D01*
G37*
G36*
X79924Y127750D02*X79936Y127736D01*
X80116Y127583D01*
X80317Y127459D01*
X80535Y127369D01*
X80765Y127314D01*
X81000Y127300D01*
X85235Y127314D01*
X85465Y127369D01*
X85500Y127384D01*
Y123000D01*
X78000D01*
Y127191D01*
X78439Y127226D01*
X78868Y127329D01*
X79275Y127497D01*
X79651Y127728D01*
X79677Y127750D01*
X79924D01*
G37*
G36*
X89000Y139000D02*X113000D01*
Y134500D01*
X89000D01*
Y139000D01*
G37*
G36*
X107000D02*X121000D01*
Y132000D01*
X107000D01*
Y139000D01*
G37*
G36*
X89000Y137000D02*X97500D01*
Y132000D01*
X89970D01*
X89651Y132272D01*
X89275Y132503D01*
X89000Y132616D01*
Y137000D01*
G37*
G54D12*X114086Y31500D02*X114000Y31586D01*
X117500Y31500D02*X114086D01*
X118500Y49000D02*X109500D01*
X119000Y45500D02*Y41500D01*
X122000Y38500D01*
Y32000D01*
X91000Y57957D02*X108000D01*
X108957Y57000D01*
X105000Y57914D02*X105043Y57957D01*
X91000Y65043D02*X102457D01*
X103414Y66000D01*
X110500D02*X122500D01*
X125000Y29500D02*Y43500D01*
X105000Y58000D02*Y39000D01*
X103500Y37500D01*
X151579Y48421D02*X150000Y50000D01*
X139500Y49000D02*X117500D01*
X125000Y53500D02*Y54000D01*
X129000Y58000D01*
X148500D01*
X153500Y53000D01*
X152000Y38500D02*X151000Y37500D01*
X153500Y56000D02*X149500Y60000D01*
X154500Y58000D02*X150000Y62500D01*
X149500Y60000D02*X142000D01*
X140000Y62000D01*
X114000Y24500D02*X111000D01*
X109500Y26000D01*
X108500Y31000D02*X109500Y30000D01*
Y26000D01*
X110000Y25500D01*
X118500Y22500D02*Y30500D01*
X117500Y31500D01*
X126500Y28000D02*X125000Y29500D01*
X125500Y23500D02*X122000Y27000D01*
Y35000D01*
X154000Y8000D02*Y5500D01*
X155500Y4000D01*
X145500Y2000D02*X143000Y4500D01*
Y8000D01*
X154000Y10595D02*Y7000D01*
X154953Y36610D02*Y23358D01*
X154000Y22405D01*
X150000Y27500D02*X148500Y26000D01*
Y23500D01*
X147500Y22500D01*
X143095D01*
X151000Y28500D02*X149500Y27000D01*
G54D13*X130500Y7500D02*X128000D01*
X123500Y12000D01*
X116586D01*
X116086Y11500D01*
X101914D02*X100000D01*
X94000Y5500D01*
G54D12*X130500Y17500D02*X123500D01*
X118500Y22500D01*
X133000Y23500D02*X125500D01*
X145000Y28000D02*X126500D01*
X143000Y7000D02*Y10595D01*
X134500Y2500D02*X136500Y4500D01*
Y17000D01*
X143095Y22500D02*X143000Y22405D01*
X137000Y28000D02*Y19500D01*
X140000Y16500D01*
X136500Y17000D02*X135000Y18500D01*
Y21500D01*
X133000Y23500D01*
X144500Y70500D02*Y74807D01*
X144831Y75138D01*
G54D13*X153500Y74507D02*X153493Y74500D01*
G54D12*X149000Y74976D02*X149162Y75138D01*
G54D13*X153500Y74000D02*Y83500D01*
X153493Y75138D02*Y66464D01*
X155957Y64000D01*
X162154Y75654D02*Y64889D01*
G54D12*X157824Y75138D02*Y70176D01*
X158000Y70000D01*
X149000Y69000D02*Y74976D01*
X175000Y78500D02*X171500Y82000D01*
X154953Y42516D02*X152516D01*
X154953Y44484D02*X151516D01*
X149000Y47000D01*
X154953Y48421D02*X152079D01*
X152421D02*X151579D01*
X152516Y42516D02*X150000Y40000D01*
X146000D01*
X149000Y47000D02*X145543D01*
X145500Y47043D01*
G54D14*Y52500D02*Y47000D01*
G54D12*X150000Y50000D02*Y53500D01*
X147500Y56000D01*
X143500D01*
X141500Y54000D01*
Y51000D01*
X139500Y49000D01*
X153500Y53000D02*X157563D01*
X157610Y53047D01*
X158500Y56000D02*X153500D01*
X159579Y53047D02*Y54921D01*
X158500Y56000D01*
X161547Y53047D02*Y55953D01*
X159500Y58000D01*
X154500D01*
X155016Y42516D02*X163516D01*
X165484Y44484D01*
X140000Y62000D02*Y66000D01*
X150000Y62500D02*X146000D01*
X144500Y64000D01*
Y71500D01*
X122500Y66000D02*X125000Y63500D01*
X140000Y66000D02*X137500Y68500D01*
X126500D01*
X125000Y67000D01*
Y63500D01*
X120500Y72000D02*X123000D01*
X124500Y70500D01*
X144500D01*
G54D13*X108500Y109000D02*X113000D01*
X115500Y106500D01*
X88000Y130000D02*X83000D01*
X83500D02*X78000D01*
G54D12*X91000Y126000D02*X95000D01*
X97500Y123500D01*
X102000D01*
X88000Y130000D02*X103000D01*
X188500Y2000D02*X207500D01*
X178500Y4000D02*X198000D01*
G54D13*X192000Y15000D02*X204543D01*
G54D12*X192000Y7914D02*X188414D01*
G54D13*X192500Y15000D02*X187000D01*
X186500Y14500D01*
Y12500D01*
X185000Y11000D01*
X180543D01*
G54D12*X189000Y2000D02*X145500D01*
X164500Y10595D02*Y7500D01*
X164405Y22500D02*X164500Y22405D01*
X155500Y4000D02*X181000D01*
X164500Y7500D02*X165500Y6500D01*
X188414Y7914D02*X186500Y6000D01*
X166000D01*
X164750Y7250D01*
X140000Y16500D02*X167500D01*
X170500Y19500D01*
X173457D01*
Y11000D01*
X207500Y2000D02*X209500Y4000D01*
X212629D01*
X213543Y4914D01*
X204543Y7000D02*X205000Y7457D01*
X198000Y4000D02*X201000Y7000D01*
X204543D01*
G54D13*Y15000D02*X205000Y14543D01*
X211000D01*
X213543Y12000D01*
G54D12*X211500Y24500D02*Y43500D01*
X211000Y21000D02*X213500Y23500D01*
X200000Y23000D02*X210000D01*
X211500Y24500D01*
X199000Y21000D02*X211000D01*
X198000Y19000D02*X212000D01*
X215500Y22500D01*
G54D13*X186000Y22000D02*Y20500D01*
X185000Y19500D01*
X180543D01*
G54D12*X196500Y31000D02*X198500Y29000D01*
Y24500D01*
X200000Y23000D01*
X196500Y23500D02*X199000Y21000D01*
X194500Y22500D02*X198000Y19000D01*
X195500Y29000D02*X196500Y28000D01*
Y23500D01*
X194500Y26500D02*Y22500D01*
X174047Y36610D02*X177390D01*
X179000Y35000D01*
X170500Y31000D02*X196500D01*
X169421Y33953D02*Y32079D01*
X170500Y31000D01*
X167453Y33953D02*Y31047D01*
X169500Y29000D01*
X195500D01*
X155000Y38500D02*X152000D01*
X151000Y37500D02*Y28500D01*
X171390Y53047D02*Y55390D01*
X169421Y53047D02*Y55079D01*
X165484Y30016D02*X168500Y27000D01*
X171390Y55390D02*X173000Y57000D01*
X169421Y55079D02*X167000Y57500D01*
X174047Y48421D02*X177421D01*
X177079D02*X178421D01*
X180500Y50500D01*
Y53000D01*
X174047Y46453D02*X181453D01*
X183000Y48000D01*
X174047Y38579D02*X179921D01*
X180000Y38500D01*
X174047Y44484D02*X181516D01*
X168500Y27000D02*X194000D01*
X194500Y26500D01*
X174500Y44484D02*X165484D01*
X181516D02*X183000Y43000D01*
G54D13*X162154Y64889D02*X163043Y64000D01*
G54D12*X174500Y61000D02*X175000D01*
X166485Y75138D02*Y69936D01*
X167000Y57500D02*Y69421D01*
X166485Y69936D01*
Y71500D01*
X182000Y115500D02*X181000Y116500D01*
X178320D01*
X178296Y116476D01*
X173000Y81000D02*Y85500D01*
X175000Y74500D02*Y78500D01*
G54D13*X162000Y74500D02*Y85000D01*
X174000Y68500D02*X175500D01*
X180500Y73500D01*
G54D12*X211500Y43500D02*X205500Y49500D01*
X213500Y23500D02*Y101500D01*
X205500Y109500D01*
X215500Y22500D02*Y119500D01*
X205500Y129500D01*
X183000Y80500D02*Y114500D01*
G54D13*X190500Y71500D02*Y98500D01*
X184500Y73500D02*X187000Y76000D01*
G54D12*X183000Y114500D02*X181250Y116250D01*
G54D13*X190500Y98500D02*X193000Y101000D01*
X203500D01*
X205500Y103000D01*
Y110000D01*
X180500Y73500D02*X184500D01*
X187000Y76000D02*Y127000D01*
X189500Y129500D01*
X206000D01*
G54D12*X161547Y33953D02*Y30453D01*
X165484Y33953D02*Y30016D01*
X161547Y32047D02*Y29453D01*
X163000Y28000D01*
X159579Y33953D02*Y23421D01*
X160500Y22500D01*
X164405D01*
G54D13*X174300Y64900D02*X200900D01*
X182500Y61000D02*X191000D01*
X196000Y56000D01*
X179000Y57500D02*X189000D01*
X200900Y64900D02*X205500Y69500D01*
X196000Y56000D02*X203500D01*
X205500Y54000D01*
Y49500D01*
X174000Y61000D02*X175500D01*
X189000Y57500D02*X196500Y50000D01*
X175500Y61000D02*X179000Y57500D01*
X182500Y69000D02*X188000D01*
X190500Y71500D01*
X196500Y50000D02*Y35000D01*
X202000Y29500D01*
X204500D01*
G54D12*X179000Y35000D02*X196500D01*
G54D13*X78500Y18500D02*Y15500D01*
X85586Y11500D02*Y22086D01*
X87000Y23500D01*
X78500Y27500D02*Y15500D01*
G54D12*X71750Y28500D02*Y33500D01*
Y38500D02*X76500D01*
X84000Y31000D01*
G54D13*X71750Y28500D02*X77500D01*
X78500Y27500D01*
X87000Y23500D02*X103543D01*
G54D12*X88000Y31000D02*X103957D01*
X84000D02*X89500D01*
X92250Y28500D02*Y23500D01*
X6000Y2500D02*X134500D01*
X78500Y17000D02*Y7000D01*
G54D13*X94000Y5500D02*X79500D01*
X78500Y6500D01*
Y7500D01*
X103543Y23500D02*X104500Y24457D01*
G54D12*X99500Y31000D02*X108500D01*
X92000Y33500D02*X98000D01*
X99000Y34500D01*
Y36500D01*
X100000Y37500D01*
X103500D01*
G54D13*X32000Y33750D02*Y44457D01*
X30957Y45500D01*
X37000Y33750D02*Y44457D01*
X38043Y45500D01*
X32000Y34500D02*Y27500D01*
X33500Y26000D01*
X48543D01*
X49500Y25043D01*
G54D15*X20500Y81500D02*X12500D01*
X10500Y79500D01*
G54D16*Y52000D01*
X23000Y39500D02*X10500Y52000D01*
G54D12*X18500Y36000D02*X15500Y39000D01*
X7500D01*
X8500D02*X6000D01*
X4000Y37000D01*
G54D13*X12500Y23000D02*Y33500D01*
G54D12*X18500Y27500D02*Y36000D01*
X4000Y37000D02*Y4500D01*
X6000Y2500D01*
X27000Y19000D02*X18500Y27500D01*
G54D13*X37000Y13250D02*X32000D01*
X40000Y6000D02*X25000D01*
X34000D02*X47500D01*
X42000Y13000D02*Y6000D01*
X37250Y17500D02*Y17750D01*
X39500Y20000D01*
X44000D01*
X45500Y18500D01*
X49457D01*
X37000Y17500D02*X38500Y19000D01*
X49457Y18500D02*X49500Y18457D01*
X37000Y13250D02*Y17500D01*
G54D12*X27000Y13250D02*Y19000D01*
G54D13*X47500Y6000D02*X49000Y7500D01*
X56086D02*X60000D01*
X64000Y11500D01*
X71414D01*
X26500Y6000D02*X14500D01*
X12500Y8000D01*
Y13000D01*
G54D11*G36*
X8563Y16937D02*Y9063D01*
X16437D01*
Y16937D01*
X8563D01*
G37*
G36*
X127500Y10500D02*Y4500D01*
X133500D01*
Y10500D01*
X127500D01*
G37*
G54D17*X130500Y17500D03*
G54D11*G36*
X122000Y66500D02*Y60500D01*
X128000D01*
Y66500D01*
X122000D01*
G37*
G54D17*X125000Y53500D03*
Y43500D03*
X135000Y63500D03*
Y53500D03*
Y43500D03*
G54D11*G36*
X201500Y113500D02*Y105500D01*
X209500D01*
Y113500D01*
X201500D01*
G37*
G54D15*X205500Y89500D03*
Y129500D03*
G54D11*G36*
X201500Y33500D02*Y25500D01*
X209500D01*
Y33500D01*
X201500D01*
G37*
G54D15*X205500Y49500D03*
G54D11*G36*
X201500Y73500D02*Y65500D01*
X209500D01*
Y73500D01*
X201500D01*
G37*
G36*
X16500Y85500D02*Y77500D01*
X24500D01*
Y85500D01*
X16500D01*
G37*
G54D15*X20500Y61500D03*
G54D11*G36*
X16500Y133500D02*Y125500D01*
X24500D01*
Y133500D01*
X16500D01*
G37*
G54D15*X20500Y109500D03*
G54D18*X70500Y88500D03*
X60500D03*
G54D11*G36*
X46563Y92437D02*Y84563D01*
X54437D01*
Y92437D01*
X46563D01*
G37*
G54D18*X12500Y33000D03*
Y23000D03*
G54D19*X49000Y7893D02*Y7107D01*
X56086Y7893D02*Y7107D01*
X49107Y18457D02*X49893D01*
G54D20*X43508Y55500D02*X49807D01*
G54D21*X27000Y16500D02*Y10000D01*
X32000Y16500D02*Y10000D01*
X37000Y16500D02*Y10000D01*
X42000Y16500D02*Y10000D01*
G54D19*X49107Y25543D02*X49893D01*
G54D21*X42000Y37000D02*Y30500D01*
X37000Y37000D02*Y30500D01*
X32000Y37000D02*Y30500D01*
X27000Y37000D02*Y30500D01*
G54D19*X38043Y45893D02*Y45107D01*
X30957Y45893D02*Y45107D01*
G54D20*X83618Y11500D02*X87554D01*
G54D21*X89000Y23500D02*X95500D01*
X89000Y28500D02*X95500D01*
X89000Y33500D02*X95500D01*
G54D20*X69446Y11500D02*X73382D01*
G54D21*X68500Y28500D02*X75000D01*
X68500Y23500D02*X75000D01*
G54D20*X63193Y55500D02*X69492D01*
G54D21*X68500Y38500D02*X75000D01*
X68500Y33500D02*X75000D01*
G54D19*X78457Y45893D02*Y45107D01*
X85543Y45893D02*Y45107D01*
X145107Y47043D02*X145893D01*
X145107Y39957D02*X145893D01*
X113607Y31586D02*X114393D01*
X113607Y24500D02*X114393D01*
X104107Y31543D02*X104893D01*
X104107Y24457D02*X104893D01*
X110500Y66393D02*Y65607D01*
X109607Y57043D02*X110393D01*
X109607Y49957D02*X110393D01*
G54D20*X99946Y11500D02*X103882D01*
X114118D02*X118054D01*
G54D19*X141819Y10595D02*X144181D01*
X141819Y22405D02*X144181D01*
G54D22*X140501Y76122D02*Y74153D01*
X144831Y76122D02*Y74153D01*
X149162Y76122D02*Y74153D01*
G54D23*X134399Y75531D02*Y74743D01*
G54D19*X173457Y19893D02*Y19107D01*
X180543Y19893D02*Y19107D01*
X163319Y22405D02*X165681D01*
X152819D02*X155181D01*
X173457Y11393D02*Y10607D01*
X163319Y10595D02*X165681D01*
X152819D02*X155181D01*
X180543Y11393D02*Y10607D01*
G54D24*X171390Y34780D02*Y33126D01*
G54D19*X191607Y7914D02*X192393D01*
X213150Y4914D02*X213936D01*
X213150Y12000D02*X213936D01*
X204607Y7457D02*X205393D01*
X204607Y14543D02*X205393D01*
X191607Y15000D02*X192393D01*
G54D24*X154126Y50390D02*X155780D01*
X161547Y53874D02*Y52220D01*
X159579Y53874D02*Y52220D01*
X157610Y53874D02*Y52220D01*
X154126Y48421D02*X155780D01*
X154126Y46453D02*X155780D01*
X154126Y44484D02*X155780D01*
X169421Y53874D02*Y52220D01*
X167453Y53874D02*Y52220D01*
X165484Y53874D02*Y52220D01*
X163516Y53874D02*Y52220D01*
G54D11*G36*
X159185Y48815D02*Y38185D01*
X169815D01*
Y48815D01*
X159185D01*
G37*
G36*
X158398Y49602D02*Y37398D01*
X170602D01*
Y49602D01*
X158398D01*
G37*
G54D24*X154126Y42516D02*X155780D01*
X154126Y40547D02*X155780D01*
X154126Y38579D02*X155780D01*
X154126Y36610D02*X155780D01*
X157610Y34780D02*Y33126D01*
X159579Y34780D02*Y33126D01*
X161547Y34780D02*Y33126D01*
X163516Y34780D02*Y33126D01*
X165484Y34780D02*Y33126D01*
X167453Y34780D02*Y33126D01*
X169421Y34780D02*Y33126D01*
G54D20*X64000Y134492D02*Y128193D01*
Y114807D02*Y108508D01*
G54D25*X43400Y121600D02*X44600D01*
X43400Y134500D02*X44600D01*
G54D19*X44107Y112043D02*X44893D01*
X44107Y104957D02*X44893D01*
X69043Y73893D02*Y73107D01*
X61957Y73893D02*Y73107D01*
X103414Y66393D02*Y65607D01*
X89607Y57957D02*X90393D01*
X89607Y65043D02*X90393D01*
X99564Y57043D02*X100350D01*
X99564Y49957D02*X100350D01*
G54D21*X89000Y38500D02*X95500D01*
G54D20*X107500Y81307D02*Y75008D01*
G54D19*X109607Y135043D02*X110393D01*
X109607Y127957D02*X110393D01*
X108607Y108957D02*X109393D01*
X108607Y116043D02*X109393D01*
X101607Y123457D02*X102393D01*
G54D26*X95406Y119984D02*Y115890D01*
G54D19*X101607Y130543D02*X102393D01*
G54D26*X89500Y119984D02*Y108174D01*
G54D27*Y106440D02*Y104550D01*
G54D11*G36*
X91385Y114005D02*X94225Y111165D01*
X92805Y109745D01*
X89965Y112585D01*
X91385Y114005D01*
G37*
G36*
X84775Y111165D02*X87615Y114005D01*
X89035Y112585D01*
X86195Y109745D01*
X84775Y111165D01*
G37*
G54D26*X83594Y119984D02*Y115890D01*
G54D28*X90400Y126100D02*X92000D01*
X90400Y133900D02*X92000D01*
X82200D02*X83800D01*
X82200Y130000D02*X83800D01*
X82200Y126100D02*X83800D01*
X181700Y61000D02*X183300D01*
X181700Y64900D02*X183300D01*
X181700Y68800D02*X183300D01*
X173500D02*X175100D01*
X173500Y64900D02*X175100D01*
X173500Y61000D02*X175100D01*
G54D24*X173220Y36610D02*X174874D01*
X173220Y38579D02*X174874D01*
X173220Y40547D02*X174874D01*
X173220Y42516D02*X174874D01*
X173220Y44484D02*X174874D01*
X173220Y46453D02*X174874D01*
X173220Y48421D02*X174874D01*
X173220Y50390D02*X174874D01*
X171390Y53874D02*Y52220D01*
G54D29*X177903Y116476D02*X178689D01*
G54D23*X178296Y92460D02*Y91672D01*
X178295Y136358D02*Y129270D01*
G54D19*X155957Y64393D02*Y63607D01*
X163043Y64393D02*Y63607D01*
G54D22*X153493Y76122D02*Y74153D01*
X157824Y76122D02*Y74153D01*
X162154Y76122D02*Y74153D01*
X166485Y76122D02*Y74153D01*
X170816Y76122D02*Y74153D01*
X175147Y76122D02*Y74153D01*
G54D19*X125146Y135769D02*Y133406D01*
X116319Y105595D02*X118681D01*
X116319Y117405D02*X118681D01*
G54D20*X107500Y100992D02*Y94693D01*
G54D30*X31000Y64500D03*
X36000D03*
X31000Y69500D03*
X36000D03*
X31000Y74000D03*
X36000D03*
X41500D03*
Y69500D03*
Y64500D03*
X20000Y71500D03*
X24500D03*
X140000Y85500D03*
X149000Y69000D03*
X144500Y85500D03*
Y81000D03*
X158000Y70000D03*
X120500Y72000D03*
X101000Y73500D03*
X114000Y74000D03*
X170500Y86500D03*
X161500Y91000D03*
X166000D03*
X161500Y86500D03*
X166000D03*
X161500Y82000D03*
X166000D03*
X170500D03*
X101000Y82500D03*
Y78000D03*
X114000Y83000D03*
Y78500D03*
X96500Y82500D03*
Y78000D03*
Y73500D03*
X170500Y91000D03*
X134000Y108000D03*
Y103500D03*
X129500Y108000D03*
Y103500D03*
X109500Y122000D03*
X88000Y130000D03*
X78000D03*
X85000Y97000D03*
X89500D03*
X94000D03*
X85000Y92500D03*
X89500D03*
X94000D03*
X82000Y108000D03*
X77500Y109500D03*
X82000Y103500D03*
X72000Y118500D03*
X77500D03*
X72000Y114000D03*
X77500D03*
X72000Y109500D03*
X77500Y105000D03*
X56000Y118500D03*
Y109500D03*
Y114000D03*
Y105000D03*
X60500Y97500D03*
Y102000D03*
X31000Y54500D03*
X36000D03*
X31000Y59500D03*
X36000D03*
X145500Y52500D03*
X50300Y32300D03*
X145000Y28000D03*
X163000D03*
X119000Y45500D03*
X133000Y34500D03*
X137500D03*
X92500Y44500D03*
Y49500D03*
X186500Y14500D03*
X186000Y22000D03*
X173500Y57000D03*
X180500Y53000D03*
X180000Y38500D03*
X183000Y43000D03*
Y48000D03*
Y80500D03*
X196500Y87500D03*
Y80500D03*
Y73500D03*
X45800Y36800D03*
Y32300D03*
X50300Y36800D03*
X52500Y74000D03*
X47000D03*
X52500Y69500D03*
Y64500D03*
X47000D03*
Y69500D03*
G54D31*G54D32*G54D33*G54D34*G54D32*M02*
