G04 start of page 8 for group -4079 idx -4079 *
G04 Title: (unknown), topsilk *
G04 Creator: pcb 20110918 *
G04 CreationDate: Fri 20 Jun 2014 04:10:56 PM GMT UTC *
G04 For: ndholmes *
G04 Format: Gerber/RS-274X *
G04 PCB-Dimensions: 225000 140000 *
G04 PCB-Coordinate-Origin: lower left *
%MOIN*%
%FSLAX25Y25*%
%LNTOPSILK*%
%ADD75C,0.0080*%
%ADD74C,0.0100*%
G54D74*X179500Y139500D02*X500D01*
Y58500D01*
Y61000D02*Y500D01*
X224500D02*Y139500D01*
X167500D01*
X500Y500D02*X224500D01*
X117500Y69500D02*X116000D01*
X116500D02*X115500D01*
X115000Y72000D02*X117500Y69500D01*
Y71500D01*
G54D75*X219500Y66500D02*X220000Y67000D01*
X219500Y66500D02*Y65000D01*
X220000Y64500D02*X219500Y65000D01*
X220000Y64500D02*X223000D01*
X223500Y65000D01*
Y66500D02*Y65000D01*
Y66500D02*X223000Y67000D01*
X222000D02*X223000D01*
X221500Y66500D02*X222000Y67000D01*
X221500Y66500D02*Y65500D01*
X219500Y68200D02*X223500D01*
X219500D02*X223500Y70700D01*
X219500D02*X223500D01*
X219500Y72400D02*X223500D01*
X219500Y73700D02*X220200Y74400D01*
X222800D01*
X223500Y73700D02*X222800Y74400D01*
X223500Y73700D02*Y71900D01*
X219500Y73700D02*Y71900D01*
Y86000D02*X220000Y86500D01*
X219500Y86000D02*Y84500D01*
X220000Y84000D02*X219500Y84500D01*
X220000Y84000D02*X223000D01*
X223500Y84500D01*
Y86000D02*Y84500D01*
Y86000D02*X223000Y86500D01*
X222000D02*X223000D01*
X221500Y86000D02*X222000Y86500D01*
X221500Y86000D02*Y85000D01*
X219500Y87700D02*X223500D01*
X219500D02*X223500Y90200D01*
X219500D02*X223500D01*
X219500Y91900D02*X223500D01*
X219500Y93200D02*X220200Y93900D01*
X222800D01*
X223500Y93200D02*X222800Y93900D01*
X223500Y93200D02*Y91400D01*
X219500Y93200D02*Y91400D01*
Y86000D02*X220000Y86500D01*
X219500Y86000D02*Y84500D01*
X220000Y84000D02*X219500Y84500D01*
X220000Y84000D02*X223000D01*
X223500Y84500D01*
Y86000D02*Y84500D01*
Y86000D02*X223000Y86500D01*
X222000D02*X223000D01*
X221500Y86000D02*X222000Y86500D01*
X221500Y86000D02*Y85000D01*
X219500Y87700D02*X223500D01*
X219500D02*X223500Y90200D01*
X219500D02*X223500D01*
X219500Y91900D02*X223500D01*
X219500Y93200D02*X220200Y93900D01*
X222800D01*
X223500Y93200D02*X222800Y93900D01*
X223500Y93200D02*Y91400D01*
X219500Y93200D02*Y91400D01*
Y27500D02*X220000Y28000D01*
X219500Y27500D02*Y26000D01*
X220000Y25500D02*X219500Y26000D01*
X220000Y25500D02*X221000D01*
X221500Y26000D01*
Y27500D02*Y26000D01*
Y27500D02*X222000Y28000D01*
X223000D01*
X223500Y27500D02*X223000Y28000D01*
X223500Y27500D02*Y26000D01*
X223000Y25500D02*X223500Y26000D01*
X219500Y29200D02*X221500D01*
X223500Y29700D01*
X221500Y30700D01*
X223500Y31700D01*
X221500Y32200D01*
X219500D02*X221500D01*
X220300Y33400D02*X219500Y34200D01*
X223500D01*
Y34900D02*Y33400D01*
X219500Y46500D02*X220000Y47000D01*
X219500Y46500D02*Y45000D01*
X220000Y44500D02*X219500Y45000D01*
X220000Y44500D02*X221000D01*
X221500Y45000D01*
Y46500D02*Y45000D01*
Y46500D02*X222000Y47000D01*
X223000D01*
X223500Y46500D02*X223000Y47000D01*
X223500Y46500D02*Y45000D01*
X223000Y44500D02*X223500Y45000D01*
X219500Y48200D02*X221500D01*
X223500Y48700D01*
X221500Y49700D01*
X223500Y50700D01*
X221500Y51200D01*
X219500D02*X221500D01*
X220000Y52400D02*X219500Y52900D01*
Y54400D02*Y52900D01*
Y54400D02*X220000Y54900D01*
X221000D01*
X223500Y52400D02*X221000Y54900D01*
X223500D02*Y52400D01*
X6500Y131500D02*X2500Y130500D01*
X6500Y129500D01*
X4500Y128300D02*Y126300D01*
X3500Y127300D02*X5500D01*
X6000Y112000D02*X5500Y111500D01*
X6000Y113500D02*Y112000D01*
X5500Y114000D02*X6000Y113500D01*
X2500Y114000D02*X5500D01*
X2500D02*X2000Y113500D01*
Y112000D01*
X2500Y111500D01*
X3500D01*
X4000Y112000D02*X3500Y111500D01*
X4000Y113000D02*Y112000D01*
X2000Y110300D02*X6000D01*
X2000Y107800D01*
X6000D01*
X2000Y106100D02*X6000D01*
Y104800D02*X5300Y104100D01*
X2700D02*X5300D01*
X2000Y104800D02*X2700Y104100D01*
X2000Y106600D02*Y104800D01*
X6000Y106600D02*Y104800D01*
Y75500D02*X5500Y75000D01*
X6000Y77000D02*Y75500D01*
X5500Y77500D02*X6000Y77000D01*
X4500Y77500D02*X5500D01*
X4500D02*X4000Y77000D01*
Y75500D01*
X3500Y75000D01*
X2500D02*X3500D01*
X2000Y75500D02*X2500Y75000D01*
X2000Y77000D02*Y75500D01*
X2500Y77500D02*X2000Y77000D01*
Y73300D02*X6000D01*
Y73800D02*Y71800D01*
X5500Y71300D01*
X4500D02*X5500D01*
X4000Y71800D02*X4500Y71300D01*
X4000Y73300D02*Y71800D01*
X2000Y70100D02*X6000D01*
X4000D02*X6000Y68100D01*
X4000Y70100D02*X2000Y68100D01*
X6000Y66900D02*Y64900D01*
X5500Y64400D01*
X4500D02*X5500D01*
X4000Y64900D02*X4500Y64400D01*
X4000Y66400D02*Y64900D01*
X2000Y66400D02*X6000D01*
X4000Y65600D02*X2000Y64400D01*
X219500Y106500D02*X220000Y107000D01*
X219500Y106500D02*Y105000D01*
X220000Y104500D02*X219500Y105000D01*
X220000Y104500D02*X221000D01*
X221500Y105000D01*
Y106500D02*Y105000D01*
Y106500D02*X222000Y107000D01*
X223000D01*
X223500Y106500D02*X223000Y107000D01*
X223500Y106500D02*Y105000D01*
X223000Y104500D02*X223500Y105000D01*
X219500Y108200D02*X221500D01*
X223500Y108700D01*
X221500Y109700D01*
X223500Y110700D01*
X221500Y111200D01*
X219500D02*X221500D01*
X220000Y112400D02*X219500Y112900D01*
Y113900D02*Y112900D01*
Y113900D02*X220000Y114400D01*
X223500Y113900D02*X223000Y114400D01*
X223500Y113900D02*Y112900D01*
X223000Y112400D02*X223500Y112900D01*
X221300Y113900D02*Y112900D01*
X220000Y114400D02*X220800D01*
X221800D02*X223000D01*
X221800D02*X221300Y113900D01*
X220800Y114400D02*X221300Y113900D01*
X219500Y126000D02*X220000Y126500D01*
X219500Y126000D02*Y124500D01*
X220000Y124000D02*X219500Y124500D01*
X220000Y124000D02*X221000D01*
X221500Y124500D01*
Y126000D02*Y124500D01*
Y126000D02*X222000Y126500D01*
X223000D01*
X223500Y126000D02*X223000Y126500D01*
X223500Y126000D02*Y124500D01*
X223000Y124000D02*X223500Y124500D01*
X219500Y127700D02*X221500D01*
X223500Y128200D01*
X221500Y129200D01*
X223500Y130200D01*
X221500Y130700D01*
X219500D02*X221500D01*
X222000Y131900D02*X219500Y133900D01*
X222000Y134400D02*Y131900D01*
X219500Y133900D02*X223500D01*
X112000Y122500D02*X114000D01*
X113000Y123500D02*Y121500D01*
X167000Y28000D02*X169000D01*
X168000Y29000D02*Y27000D01*
X153000Y28000D02*X155000D01*
X154000Y29000D02*Y27000D01*
X185500Y57000D02*X186000D01*
X138500Y28000D02*X140500D01*
X139500Y29000D02*Y27000D01*
G54D74*X51008Y108508D02*X57504D01*
X70496D02*X76992D01*
Y127996D02*Y108508D01*
X51008Y127996D02*Y108508D01*
X76992Y127996D02*X70496Y134492D01*
X51008Y127996D02*X57504Y134492D01*
X54000Y127500D02*X58000D01*
X56000Y129500D02*Y125500D01*
X7700Y139500D02*Y99500D01*
X37700Y139500D02*Y99500D01*
X33300Y139500D02*Y99500D01*
X7700Y139500D02*X37700D01*
X7700Y99500D02*X37700D01*
X48000Y137900D02*Y118200D01*
X40000Y137900D02*Y118200D01*
X48000D01*
X40000Y137900D02*X48000D01*
X40000Y125000D02*X48000D01*
X47255Y108893D02*Y108107D01*
X41745Y108893D02*Y108107D01*
X112755Y131893D02*Y131107D01*
X107245Y131893D02*Y131107D01*
X113760Y113862D02*Y109138D01*
X121240Y113862D02*Y109138D01*
X99245Y127393D02*Y126607D01*
X104755Y127393D02*Y126607D01*
X106245Y112893D02*Y112107D01*
X111755Y112893D02*Y112107D01*
X98750Y116480D02*Y105850D01*
X80250Y116480D02*Y105850D01*
X95500D02*X98750D01*
X80250D02*X83500D01*
X98571Y116480D02*X98750D01*
X80250D02*X80429D01*
X80200Y124100D02*X94100D01*
Y135900D02*Y124100D01*
X80200Y135900D02*X94100D01*
X80200D02*Y124100D01*
X80185Y78657D02*X40815D01*
X80185Y100311D02*X40815D01*
Y94405D02*X80185D01*
Y100311D02*Y78657D01*
X40815D02*Y100311D01*
X7700Y91500D02*Y51500D01*
X37700Y91500D02*Y51500D01*
X33300Y91500D02*Y51500D01*
X7700Y91500D02*X37700D01*
X7700Y51500D02*X37700D01*
X65107Y70745D02*X65893D01*
X65107Y76255D02*X65893D01*
X87245Y61893D02*Y61107D01*
X92755Y61893D02*Y61107D01*
X25000Y8000D02*X44000D01*
Y39000D02*Y8000D01*
X25000Y39000D02*X44000D01*
X25000Y21000D02*Y8000D01*
Y39000D02*Y26000D01*
Y21000D02*G75*G03X25000Y26000I0J2500D01*G01*
X34107Y42745D02*X34893D01*
X34107Y48255D02*X34893D01*
X22343Y42685D02*Y3315D01*
X689Y42685D02*Y3315D01*
X6595Y42685D02*Y3315D01*
X689Y42685D02*X22343D01*
X689Y3315D02*X22343D01*
X43508Y68492D02*Y61996D01*
Y49004D02*Y42508D01*
X62996D01*
X43508Y68492D02*X62996D01*
Y42508D02*X69492Y49004D01*
X62996Y68492D02*X69492Y61996D01*
X62500Y65500D02*Y61500D01*
X60500Y63500D02*X64500D01*
X97500Y40500D02*Y21500D01*
X66500Y40500D02*X97500D01*
X66500D02*Y21500D01*
X84500D02*X97500D01*
X66500D02*X79500D01*
X84500D02*G75*G03X79500Y21500I-2500J0D01*G01*
X52150Y10255D02*X52936D01*
X52150Y4745D02*X52936D01*
X87161Y2839D02*Y6004D01*
Y20161D02*Y16996D01*
X73004Y20161D02*X87161D01*
X73004Y2839D02*X87161D01*
X73004Y20161D02*X69839Y16996D01*
X73004Y2839D02*X69839Y6004D01*
X68500Y5500D02*Y1500D01*
X66500Y3500D02*X70500D01*
X46745Y22393D02*Y21607D01*
X52255Y22393D02*Y21607D01*
X81607Y48255D02*X82393D01*
X81607Y42745D02*X82393D01*
X148255Y43893D02*Y43107D01*
X142745Y43893D02*Y43107D01*
X116755Y28436D02*Y27650D01*
X111245Y28436D02*Y27650D01*
X120000Y68500D02*Y38500D01*
X140000D01*
Y68500D02*Y38500D01*
X120000Y68500D02*X140000D01*
X120000Y58500D02*X130000D01*
Y68500D02*Y58500D01*
X112755Y53893D02*Y53107D01*
X107245Y53893D02*Y53107D01*
X106564Y68755D02*X107350D01*
X106564Y63245D02*X107350D01*
X94508Y75008D02*X101004D01*
X113996D02*X120492D01*
Y94496D02*Y75008D01*
X94508Y94496D02*Y75008D01*
X120492Y94496D02*X113996Y100992D01*
X94508Y94496D02*X101004Y100992D01*
X97500Y94000D02*X101500D01*
X99500Y96000D02*Y92000D01*
X102712Y53893D02*Y53107D01*
X97202Y53893D02*Y53107D01*
X107255Y28393D02*Y27607D01*
X101745Y28393D02*Y27607D01*
X117661Y2839D02*Y6004D01*
Y20161D02*Y16996D01*
X103504Y20161D02*X117661D01*
X103504Y2839D02*X117661D01*
X103504Y20161D02*X100339Y16996D01*
X103504Y2839D02*X100339Y6004D01*
X99000Y5500D02*Y1500D01*
X97000Y3500D02*X101000D01*
X135500Y22500D02*Y2500D01*
X125500Y22500D02*X135500D01*
X125500D02*Y2500D01*
X135500D01*
X125500Y12500D02*X135500D01*
X125500D02*Y2500D01*
X139260Y18862D02*Y14138D01*
X146740Y18862D02*Y14138D01*
X176607Y13755D02*X177393D01*
X176607Y8245D02*X177393D01*
X176607Y22255D02*X177393D01*
X176607Y16745D02*X177393D01*
X171500Y59000D02*X185400D01*
Y70800D02*Y59000D01*
X171500Y70800D02*X185400D01*
X171500D02*Y59000D01*
X152689Y55311D02*X176311D01*
Y31689D01*
X152689D01*
Y55311D01*
X150689Y56811D02*G75*G03X150689Y56811I500J0D01*G01*
X159107Y66755D02*X159893D01*
X159107Y61245D02*X159893D01*
G54D75*X139712Y101122D02*Y94823D01*
X172783Y101122D02*Y94823D01*
X139712Y101122D02*X172783D01*
X139712Y94823D02*X172783D01*
Y99941D02*X175539D01*
Y129862D02*Y99941D01*
X172783Y129862D02*X175539D01*
X172783D02*Y99941D01*
X176917Y76910D02*X179870D01*
Y88721D02*Y76910D01*
X176917Y88721D02*X179870D01*
X176917D02*Y76910D01*
X140500Y136949D02*X139319Y138130D01*
X140500Y137736D02*X140106Y138130D01*
X139713Y133012D02*X134595Y138130D01*
X138926Y133012D02*X133808Y138130D01*
X129870D02*X140500D01*
X129870D02*Y133012D01*
X140500D01*
Y138130D02*Y133012D01*
X179870Y76910D02*X176918Y79862D01*
X179082Y76910D02*X176917Y79075D01*
X178295Y76910D02*X176917Y78288D01*
X177508Y76910D02*X176918Y77500D01*
X179870Y77697D02*X176918Y80649D01*
X179870Y78484D02*X176918Y81436D01*
X179870Y79271D02*X176918Y82223D01*
X179870Y80059D02*X176918Y83011D01*
X179870Y80846D02*X176918Y83798D01*
X179870Y81634D02*X176918Y84586D01*
X179870Y82421D02*X176918Y85373D01*
X179870Y83208D02*X176918Y86160D01*
X179870Y83996D02*X176918Y86948D01*
X179870Y84783D02*X176918Y87735D01*
X179870Y85571D02*X176918Y88523D01*
X179870Y86358D02*X177509Y88720D01*
X179870Y87146D02*X178295Y88721D01*
X179870Y87933D02*X179082Y88721D01*
X179870Y108013D02*X179279Y108603D01*
X138138Y133012D02*X133020Y138130D01*
X137351Y133012D02*X132233Y138130D01*
X136563Y133012D02*X131445Y138130D01*
X135776Y133012D02*X130658Y138130D01*
X134989Y133012D02*X129871Y138130D01*
Y137343D02*X134202Y133012D01*
X129871Y136555D02*X133414Y133012D01*
X129871Y135768D02*X132627Y133012D01*
X129871Y134980D02*X131839Y133012D01*
X129871Y134193D02*X131052Y133012D01*
X129871Y133406D02*X130265Y133012D01*
X128689Y138130D02*X172783D01*
X179870Y126319D02*Y119036D01*
Y113918D02*Y95414D01*
Y88721D02*Y75138D01*
X177508D02*X179870D01*
X137350D02*X138137D01*
X122783D02*X131445D01*
X122783Y129862D02*Y75138D01*
X172783Y138130D02*X173767Y137146D01*
X175342D01*
X175539Y99941D02*X172783Y102697D01*
X174752Y99941D02*X172783Y101910D01*
X173964Y99941D02*X172783Y101122D01*
Y99547D02*X171208Y101122D01*
X175539Y100728D02*X172783Y103484D01*
X175539Y101516D02*X172783Y104272D01*
X175539Y102303D02*X172783Y105059D01*
X175539Y103091D02*X172783Y105847D01*
X175539Y103878D02*X172783Y106634D01*
X175539Y104665D02*X172783Y107421D01*
X175539Y105453D02*X172783Y108209D01*
X175539Y106240D02*X172783Y108996D01*
X175539Y107028D02*X172783Y109784D01*
X175539Y107815D02*X172783Y110571D01*
X175539Y108602D02*X172783Y111358D01*
X175539Y109390D02*X172783Y112146D01*
X175539Y110177D02*X172783Y112933D01*
X175539Y110965D02*X172783Y113721D01*
X175539Y111753D02*X172783Y114509D01*
X175539Y112540D02*X172783Y115296D01*
X175539Y113327D02*X172783Y116083D01*
X175539Y114115D02*X172783Y116871D01*
X175539Y114902D02*X172783Y117658D01*
X175539Y115690D02*X172783Y118446D01*
X175539Y116477D02*X172783Y119233D01*
X175539Y117264D02*X172783Y120020D01*
X175539Y118052D02*X172783Y120808D01*
X175539Y118839D02*X172783Y121595D01*
X175539Y119627D02*X172783Y122383D01*
X175539Y120414D02*X172783Y123170D01*
X175539Y121201D02*X172783Y123957D01*
X175539Y121988D02*X172783Y124744D01*
X175539Y122776D02*X172783Y125532D01*
X175539Y123563D02*X172783Y126319D01*
X175539Y124351D02*X172783Y127107D01*
X175539Y125138D02*X172783Y127894D01*
X175539Y125925D02*X172783Y128681D01*
X175539Y126713D02*X172783Y129469D01*
X175539Y127500D02*X173177Y129862D01*
X175539Y128288D02*X173964Y129862D01*
X175539Y129075D02*X174752Y129862D01*
X172783Y94823D02*X166484Y101122D01*
X172783Y95610D02*X167271Y101122D01*
X172783Y96398D02*X168059Y101122D01*
X172783Y97185D02*X168846Y101122D01*
X172783Y97973D02*X169633Y101123D01*
X172783Y98760D02*X170421Y101122D01*
X173177Y99941D02*X171996Y101122D01*
X171995Y94823D02*X165696Y101122D01*
X171208Y94823D02*X164909Y101122D01*
X170420Y94823D02*X164121Y101122D01*
X169633Y94823D02*X163334Y101122D01*
X168845Y94823D02*X162546Y101122D01*
X168058Y94823D02*X161759Y101122D01*
X167270Y94823D02*X160971Y101122D01*
X166483Y94823D02*X160184Y101122D01*
X165695Y94823D02*X159396Y101122D01*
X164908Y94823D02*X158609Y101122D01*
X164120Y94823D02*X157821Y101122D01*
X163333Y94823D02*X157034Y101122D01*
X162545Y94823D02*X156246Y101122D01*
X161758Y94823D02*X155459Y101122D01*
X160970Y94823D02*X154671Y101122D01*
X160184Y94823D02*X153885Y101122D01*
X159396Y94823D02*X153097Y101122D01*
X158609Y94823D02*X152310Y101122D01*
X157821Y94823D02*X151522Y101122D01*
X157034Y94823D02*X150735Y101122D01*
X156246Y94823D02*X149947Y101122D01*
X155459Y94823D02*X149160Y101122D01*
X154671Y94823D02*X148372Y101122D01*
X153885Y94823D02*X147586Y101122D01*
X153097Y94823D02*X146798Y101122D01*
X152310Y94823D02*X146011Y101122D01*
X151522Y94823D02*X145223Y101122D01*
X150735Y94823D02*X144436Y101122D01*
X149947Y94823D02*X143648Y101122D01*
X149160Y94823D02*X142861Y101122D01*
X148372Y94823D02*X142073Y101122D01*
X147586Y94823D02*X141287Y101122D01*
X146798Y94823D02*X140499Y101122D01*
X146011Y94823D02*X139712Y101122D01*
X145223Y94823D02*X139711Y100335D01*
X144436Y94823D02*X139712Y99547D01*
X143648Y94823D02*X139712Y98760D01*
X142861Y94823D02*X139711Y97973D01*
X142073Y94823D02*X139711Y97185D01*
X141287Y94823D02*X139712Y96398D01*
X140500Y94823D02*X139713Y95610D01*
X140500Y133012D02*X135382Y138130D01*
X140500Y133799D02*X136169Y138130D01*
X140500Y134587D02*X136957Y138130D01*
X140500Y135374D02*X137744Y138130D01*
X140500Y136162D02*X138532Y138130D01*
X179870Y108603D02*Y95414D01*
X176917Y108604D02*X179870D01*
X176917Y108603D02*Y95414D01*
X179870D01*
X176918Y98366D01*
X179082Y95414D02*X176917Y97579D01*
X178295Y95414D02*X176917Y96792D01*
X177508Y95414D02*X176918Y96004D01*
X179870Y96201D02*X176918Y99153D01*
X179870Y96988D02*X176918Y99940D01*
X179870Y97775D02*X176918Y100727D01*
X179870Y98563D02*X176918Y101515D01*
X179870Y99350D02*X176918Y102302D01*
X179870Y100138D02*X176918Y103090D01*
X179870Y100925D02*X176918Y103877D01*
X179870Y101712D02*X176918Y104664D01*
X179870Y102500D02*X176918Y105452D01*
X179870Y103287D02*X176918Y106239D01*
X179870Y104075D02*X176918Y107027D01*
X179870Y104862D02*X176918Y107814D01*
X179870Y105650D02*X176917Y108602D01*
X179870Y106437D02*X177704Y108603D01*
X179870Y107225D02*X178492Y108603D01*
X131445Y139705D02*Y138130D01*
X174752Y139705D02*Y138130D01*
G54D74*X189245Y11850D02*Y11064D01*
X194755Y11850D02*Y11064D01*
X218300Y139500D02*Y99500D01*
X188300Y139500D02*Y99500D01*
X192700Y139500D02*Y99500D01*
X188300D02*X218300D01*
X188300Y139500D02*X218300D01*
Y59500D02*Y19500D01*
X188300Y59500D02*Y19500D01*
X192700Y59500D02*Y19500D01*
X188300D02*X218300D01*
X188300Y59500D02*X218300D01*
Y99500D02*Y59500D01*
X188300Y99500D02*Y59500D01*
X192700Y99500D02*Y59500D01*
X188300D02*X218300D01*
X188300Y99500D02*X218300D01*
X210788Y8850D02*Y8064D01*
X216298Y8850D02*Y8064D01*
X202245Y11393D02*Y10607D01*
X207755Y11393D02*Y10607D01*
X160760Y18862D02*Y14138D01*
X168240Y18862D02*Y14138D01*
X150260Y18862D02*Y14138D01*
X157740Y18862D02*Y14138D01*
G54D75*X174000Y28500D02*X176000D01*
X176500Y28000D01*
Y27000D01*
X176000Y26500D02*X176500Y27000D01*
X174500Y26500D02*X176000D01*
X174500Y28500D02*Y24500D01*
X175300Y26500D02*X176500Y24500D01*
X177700Y28000D02*X178200Y28500D01*
X179700D01*
X180200Y28000D01*
Y27000D01*
X177700Y24500D02*X180200Y27000D01*
X177700Y24500D02*X180200D01*
X181500Y77000D02*Y73500D01*
X182000Y73000D01*
X183000D01*
X183500Y73500D01*
Y77000D02*Y73500D01*
X186200Y77000D02*X186700Y76500D01*
X185200Y77000D02*X186200D01*
X184700Y76500D02*X185200Y77000D01*
X184700Y76500D02*Y73500D01*
X185200Y73000D01*
X186200Y75200D02*X186700Y74700D01*
X184700Y75200D02*X186200D01*
X185200Y73000D02*X186200D01*
X186700Y73500D01*
Y74700D02*Y73500D01*
X179500Y35000D02*Y31500D01*
X180000Y31000D01*
X181000D01*
X181500Y31500D01*
Y35000D02*Y31500D01*
X182700Y32500D02*X184700Y35000D01*
X182700Y32500D02*X185200D01*
X184700Y35000D02*Y31000D01*
X173050Y2650D02*X174350D01*
X172350Y3350D02*X173050Y2650D01*
X172350Y5950D02*Y3350D01*
Y5950D02*X173050Y6650D01*
X174350D01*
X175550Y6150D02*X176050Y6650D01*
X177050D01*
X177550Y6150D01*
X177050Y2650D02*X177550Y3150D01*
X176050Y2650D02*X177050D01*
X175550Y3150D02*X176050Y2650D01*
Y4850D02*X177050D01*
X177550Y6150D02*Y5350D01*
Y4350D02*Y3150D01*
Y4350D02*X177050Y4850D01*
X177550Y5350D02*X177050Y4850D01*
X183500Y4457D02*Y2457D01*
Y4457D02*X184000Y4957D01*
X185000D01*
X185500Y4457D02*X185000Y4957D01*
X185500Y4457D02*Y2957D01*
X183500D02*X187500D01*
X185500Y3757D02*X187500Y4957D01*
X184000Y6157D02*X183500Y6657D01*
Y7657D02*Y6657D01*
Y7657D02*X184000Y8157D01*
X187500Y7657D02*X187000Y8157D01*
X187500Y7657D02*Y6657D01*
X187000Y6157D02*X187500Y6657D01*
X185300Y7657D02*Y6657D01*
X184000Y8157D02*X184800D01*
X185800D02*X187000D01*
X185800D02*X185300Y7657D01*
X184800Y8157D02*X185300Y7657D01*
X218043Y4957D02*Y2957D01*
Y4957D02*X218543Y5457D01*
X219543D01*
X220043Y4957D02*X219543Y5457D01*
X220043Y4957D02*Y3457D01*
X218043D02*X222043D01*
X220043Y4257D02*X222043Y5457D01*
X218043Y8657D02*Y6657D01*
X220043D01*
X219543Y7157D01*
Y8157D02*Y7157D01*
Y8157D02*X220043Y8657D01*
X221543D01*
X222043Y8157D02*X221543Y8657D01*
X222043Y8157D02*Y7157D01*
X221543Y6657D02*X222043Y7157D01*
X196500Y4586D02*Y2586D01*
Y4586D02*X197000Y5086D01*
X198000D01*
X198500Y4586D02*X198000Y5086D01*
X198500Y4586D02*Y3086D01*
X196500D02*X200500D01*
X198500Y3886D02*X200500Y5086D01*
X199000Y6286D02*X196500Y8286D01*
X199000Y8786D02*Y6286D01*
X196500Y8286D02*X200500D01*
X162255Y6245D02*Y2245D01*
X163555Y6245D02*X164255Y5545D01*
Y2945D01*
X163555Y2245D02*X164255Y2945D01*
X161755Y2245D02*X163555D01*
X161755Y6245D02*X163555D01*
X165455Y5745D02*X165955Y6245D01*
X166955D01*
X167455Y5745D01*
X166955Y2245D02*X167455Y2745D01*
X165955Y2245D02*X166955D01*
X165455Y2745D02*X165955Y2245D01*
Y4445D02*X166955D01*
X167455Y5745D02*Y4945D01*
Y3945D02*Y2745D01*
Y3945D02*X166955Y4445D01*
X167455Y4945D02*X166955Y4445D01*
X151755Y6245D02*Y2245D01*
X153055Y6245D02*X153755Y5545D01*
Y2945D01*
X153055Y2245D02*X153755Y2945D01*
X151255Y2245D02*X153055D01*
X151255Y6245D02*X153055D01*
X154955Y3745D02*X156955Y6245D01*
X154955Y3745D02*X157455D01*
X156955Y6245D02*Y2245D01*
X140755Y6245D02*Y2245D01*
X142055Y6245D02*X142755Y5545D01*
Y2945D01*
X142055Y2245D02*X142755Y2945D01*
X140255Y2245D02*X142055D01*
X140255Y6245D02*X142055D01*
X143955D02*X145955D01*
X143955D02*Y4245D01*
X144455Y4745D01*
X145455D01*
X145955Y4245D01*
Y2745D01*
X145455Y2245D02*X145955Y2745D01*
X144455Y2245D02*X145455D01*
X143955Y2745D02*X144455Y2245D01*
X181812Y124840D02*X182740D01*
Y120780D01*
X182160Y120200D02*X182740Y120780D01*
X181580Y120200D02*X182160D01*
X181000Y120780D02*X181580Y120200D01*
X181000Y121360D02*Y120780D01*
X184132Y124260D02*X184712Y124840D01*
X186452D01*
X187032Y124260D01*
Y123100D01*
X184132Y120200D02*X187032Y123100D01*
X184132Y120200D02*X187032D01*
X32000Y98170D02*Y93515D01*
X32665Y92850D01*
X33995D01*
X34660Y93515D01*
Y98170D02*Y93515D01*
X36256Y97106D02*X37320Y98170D01*
Y92850D01*
X36256D02*X38251D01*
X50500Y137500D02*Y133500D01*
X51800Y137500D02*X52500Y136800D01*
Y134200D01*
X51800Y133500D02*X52500Y134200D01*
X50000Y133500D02*X51800D01*
X50000Y137500D02*X51800D01*
X53700Y136700D02*X54500Y137500D01*
Y133500D01*
X53700D02*X55200D01*
X53000Y104000D02*Y102700D01*
X52300Y102000D02*X53000Y102700D01*
X49700Y102000D02*X52300D01*
X49700D02*X49000Y102700D01*
Y104000D02*Y102700D01*
X49800Y105200D02*X49000Y106000D01*
X53000D01*
Y106700D02*Y105200D01*
X81000Y60500D02*Y58500D01*
Y60500D02*X81500Y61000D01*
X82500D01*
X83000Y60500D02*X82500Y61000D01*
X83000Y60500D02*Y59000D01*
X81000D02*X85000D01*
X83000Y59800D02*X85000Y61000D01*
Y62700D02*X81000Y64700D01*
Y62200D01*
X68700Y102000D02*X70000D01*
X68000Y102700D02*X68700Y102000D01*
X68000Y105300D02*Y102700D01*
Y105300D02*X68700Y106000D01*
X70000D01*
X71200Y105500D02*X71700Y106000D01*
X73200D01*
X73700Y105500D01*
Y104500D01*
X71200Y102000D02*X73700Y104500D01*
X71200Y102000D02*X73700D01*
X71200Y64500D02*X72500D01*
X70500Y65200D02*X71200Y64500D01*
X70500Y67800D02*Y65200D01*
Y67800D02*X71200Y68500D01*
X72500D01*
X73700D02*X75700D01*
X73700D02*Y66500D01*
X74200Y67000D01*
X75200D01*
X75700Y66500D01*
Y65000D01*
X75200Y64500D02*X75700Y65000D01*
X74200Y64500D02*X75200D01*
X73700Y65000D02*X74200Y64500D01*
X74700Y72000D02*X76000D01*
X74000Y72700D02*X74700Y72000D01*
X74000Y75300D02*Y72700D01*
Y75300D02*X74700Y76000D01*
X76000D01*
X77200Y73500D02*X79200Y76000D01*
X77200Y73500D02*X79700D01*
X79200Y76000D02*Y72000D01*
X78700Y50500D02*X80000D01*
X78000Y51200D02*X78700Y50500D01*
X78000Y53800D02*Y51200D01*
Y53800D02*X78700Y54500D01*
X80000D01*
X81200Y53700D02*X82000Y54500D01*
Y50500D01*
X81200D02*X82700D01*
X83900Y54500D02*X85900D01*
X83900D02*Y52500D01*
X84400Y53000D01*
X85400D01*
X85900Y52500D01*
Y51000D01*
X85400Y50500D02*X85900Y51000D01*
X84400Y50500D02*X85400D01*
X83900Y51000D02*X84400Y50500D01*
X72500Y138000D02*Y134500D01*
X73000Y134000D01*
X74000D01*
X74500Y134500D01*
Y138000D02*Y134500D01*
X75700Y137500D02*X76200Y138000D01*
X77700D01*
X78200Y137500D01*
Y136500D01*
X75700Y134000D02*X78200Y136500D01*
X75700Y134000D02*X78200D01*
X53936Y16150D02*X55936D01*
X56436Y15650D01*
Y14650D01*
X55936Y14150D02*X56436Y14650D01*
X54436Y14150D02*X55936D01*
X54436Y16150D02*Y12150D01*
X55236Y14150D02*X56436Y12150D01*
X57636Y15350D02*X58436Y16150D01*
Y12150D01*
X57636D02*X59136D01*
X60336Y12650D02*X60836Y12150D01*
X60336Y15650D02*Y12650D01*
Y15650D02*X60836Y16150D01*
X61836D01*
X62336Y15650D01*
Y12650D01*
X61836Y12150D02*X62336Y12650D01*
X60836Y12150D02*X61836D01*
X60336Y13150D02*X62336Y15150D01*
X32000Y6000D02*Y2500D01*
X32500Y2000D01*
X33500D01*
X34000Y2500D01*
Y6000D02*Y2500D01*
X35200Y6000D02*X37200D01*
X35200D02*Y4000D01*
X35700Y4500D01*
X36700D01*
X37200Y4000D01*
Y2500D01*
X36700Y2000D02*X37200Y2500D01*
X35700Y2000D02*X36700D01*
X35200Y2500D02*X35700Y2000D01*
X19200Y45000D02*X20500D01*
X18500Y45700D02*X19200Y45000D01*
X18500Y48300D02*Y45700D01*
Y48300D02*X19200Y49000D01*
X20500D01*
X21700Y48200D02*X22500Y49000D01*
Y45000D01*
X21700D02*X23200D01*
X24400Y48500D02*X24900Y49000D01*
X25900D01*
X26400Y48500D01*
X25900Y45000D02*X26400Y45500D01*
X24900Y45000D02*X25900D01*
X24400Y45500D02*X24900Y45000D01*
Y47200D02*X25900D01*
X26400Y48500D02*Y47700D01*
Y46700D02*Y45500D01*
Y46700D02*X25900Y47200D01*
X26400Y47700D02*X25900Y47200D01*
X2500Y48920D02*X4660D01*
X5200Y48380D01*
Y47300D01*
X4660Y46760D02*X5200Y47300D01*
X3040Y46760D02*X4660D01*
X3040Y48920D02*Y44600D01*
X3904Y46760D02*X5200Y44600D01*
X7036D02*X8656Y46760D01*
Y48380D02*Y46760D01*
X8116Y48920D02*X8656Y48380D01*
X7036Y48920D02*X8116D01*
X6496Y48380D02*X7036Y48920D01*
X6496Y48380D02*Y47300D01*
X7036Y46760D01*
X8656D01*
X55200Y18000D02*X56500D01*
X54500Y18700D02*X55200Y18000D01*
X54500Y21300D02*Y18700D01*
Y21300D02*X55200Y22000D01*
X56500D01*
X57700Y21200D02*X58500Y22000D01*
Y18000D01*
X57700D02*X59200D01*
X60400Y21500D02*X60900Y22000D01*
X62400D01*
X62900Y21500D01*
Y20500D01*
X60400Y18000D02*X62900Y20500D01*
X60400Y18000D02*X62900D01*
X58500Y38500D02*Y35000D01*
X59000Y34500D01*
X60000D01*
X60500Y35000D01*
Y38500D02*Y35000D01*
X61700Y38000D02*X62200Y38500D01*
X63200D01*
X63700Y38000D01*
X63200Y34500D02*X63700Y35000D01*
X62200Y34500D02*X63200D01*
X61700Y35000D02*X62200Y34500D01*
Y36700D02*X63200D01*
X63700Y38000D02*Y37200D01*
Y36200D02*Y35000D01*
Y36200D02*X63200Y36700D01*
X63700Y37200D02*X63200Y36700D01*
X93764Y68150D02*X95764D01*
X96264Y67650D01*
Y66650D01*
X95764Y66150D02*X96264Y66650D01*
X94264Y66150D02*X95764D01*
X94264Y68150D02*Y64150D01*
X95064Y66150D02*X96264Y64150D01*
X98964Y68150D02*X99464Y67650D01*
X97964Y68150D02*X98964D01*
X97464Y67650D02*X97964Y68150D01*
X97464Y67650D02*Y64650D01*
X97964Y64150D01*
X98964Y66350D02*X99464Y65850D01*
X97464Y66350D02*X98964D01*
X97964Y64150D02*X98964D01*
X99464Y64650D01*
Y65850D02*Y64650D01*
X145200Y60000D02*X146500D01*
X144500Y60700D02*X145200Y60000D01*
X144500Y63300D02*Y60700D01*
Y63300D02*X145200Y64000D01*
X146500D01*
X147700Y60500D02*X148200Y60000D01*
X147700Y61300D02*Y60500D01*
Y61300D02*X148400Y62000D01*
X149000D01*
X149700Y61300D01*
Y60500D01*
X149200Y60000D02*X149700Y60500D01*
X148200Y60000D02*X149200D01*
X147700Y62700D02*X148400Y62000D01*
X147700Y63500D02*Y62700D01*
Y63500D02*X148200Y64000D01*
X149200D01*
X149700Y63500D01*
Y62700D01*
X149000Y62000D02*X149700Y62700D01*
X103500Y42500D02*Y41200D01*
X102800Y40500D02*X103500Y41200D01*
X100200Y40500D02*X102800D01*
X100200D02*X99500Y41200D01*
Y42500D02*Y41200D01*
X103500Y44200D02*X101500Y45700D01*
X100000D02*X101500D01*
X99500Y45200D02*X100000Y45700D01*
X99500Y45200D02*Y44200D01*
X100000Y43700D02*X99500Y44200D01*
X100000Y43700D02*X101000D01*
X101500Y44200D01*
Y45700D02*Y44200D01*
X100000Y39500D02*X102000D01*
X102500Y39000D01*
Y38000D01*
X102000Y37500D02*X102500Y38000D01*
X100500Y37500D02*X102000D01*
X100500Y39500D02*Y35500D01*
X101300Y37500D02*X102500Y35500D01*
X103700Y38700D02*X104500Y39500D01*
Y35500D01*
X103700D02*X105200D01*
X106400Y39000D02*X106900Y39500D01*
X108400D01*
X108900Y39000D01*
Y38000D01*
X106400Y35500D02*X108900Y38000D01*
X106400Y35500D02*X108900D01*
X90200Y15500D02*X91500D01*
X89500Y16200D02*X90200Y15500D01*
X89500Y18800D02*Y16200D01*
Y18800D02*X90200Y19500D01*
X91500D01*
X92700Y18700D02*X93500Y19500D01*
Y15500D01*
X92700D02*X94200D01*
X95400Y18700D02*X96200Y19500D01*
Y15500D01*
X95400D02*X96900D01*
X124000Y19000D02*Y17700D01*
X123300Y17000D02*X124000Y17700D01*
X120700Y17000D02*X123300D01*
X120700D02*X120000Y17700D01*
Y19000D02*Y17700D01*
X120800Y20200D02*X120000Y21000D01*
X124000D01*
Y21700D02*Y20200D01*
X123500Y22900D02*X124000Y23400D01*
X120500Y22900D02*X123500D01*
X120500D02*X120000Y23400D01*
Y24400D02*Y23400D01*
Y24400D02*X120500Y24900D01*
X123500D01*
X124000Y24400D02*X123500Y24900D01*
X124000Y24400D02*Y23400D01*
X123000Y22900D02*X121000Y24900D01*
X142200Y32000D02*X143500D01*
X141500Y32700D02*X142200Y32000D01*
X141500Y35300D02*Y32700D01*
Y35300D02*X142200Y36000D01*
X143500D01*
X144700Y35200D02*X145500Y36000D01*
Y32000D01*
X144700D02*X146200D01*
X147400Y33500D02*X149400Y36000D01*
X147400Y33500D02*X149900D01*
X149400Y36000D02*Y32000D01*
X111850Y37264D02*Y35264D01*
Y37264D02*X112350Y37764D01*
X113350D01*
X113850Y37264D02*X113350Y37764D01*
X113850Y37264D02*Y35764D01*
X111850D02*X115850D01*
X113850Y36564D02*X115850Y37764D01*
X112650Y38964D02*X111850Y39764D01*
X115850D01*
Y40464D02*Y38964D01*
X112650Y41664D02*X111850Y42464D01*
X115850D01*
Y43164D02*Y41664D01*
X128700Y28500D02*X129500D01*
Y25000D01*
X129000Y24500D02*X129500Y25000D01*
X128500Y24500D02*X129000D01*
X128000Y25000D02*X128500Y24500D01*
X128000Y25500D02*Y25000D01*
X130700D02*X131200Y24500D01*
X130700Y25800D02*Y25000D01*
Y25800D02*X131400Y26500D01*
X132000D01*
X132700Y25800D01*
Y25000D01*
X132200Y24500D02*X132700Y25000D01*
X131200Y24500D02*X132200D01*
X130700Y27200D02*X131400Y26500D01*
X130700Y28000D02*Y27200D01*
Y28000D02*X131200Y28500D01*
X132200D01*
X132700Y28000D01*
Y27200D01*
X132000Y26500D02*X132700Y27200D01*
X125500Y34000D02*Y33200D01*
Y34000D02*X129000D01*
X129500Y33500D02*X129000Y34000D01*
X129500Y33500D02*Y33000D01*
X129000Y32500D02*X129500Y33000D01*
X128500Y32500D02*X129000D01*
X126000Y35200D02*X125500Y35700D01*
Y36700D02*Y35700D01*
Y36700D02*X126000Y37200D01*
X129500Y36700D02*X129000Y37200D01*
X129500Y36700D02*Y35700D01*
X129000Y35200D02*X129500Y35700D01*
X127300Y36700D02*Y35700D01*
X126000Y37200D02*X126800D01*
X127800D02*X129000D01*
X127800D02*X127300Y36700D01*
X126800Y37200D02*X127300Y36700D01*
X114500Y53000D02*Y51000D01*
Y53000D02*X115000Y53500D01*
X116000D01*
X116500Y53000D02*X116000Y53500D01*
X116500Y53000D02*Y51500D01*
X114500D02*X118500D01*
X116500Y52300D02*X118500Y53500D01*
X118000Y54700D02*X118500Y55200D01*
X117200Y54700D02*X118000D01*
X117200D02*X116500Y55400D01*
Y56000D02*Y55400D01*
Y56000D02*X117200Y56700D01*
X118000D01*
X118500Y56200D02*X118000Y56700D01*
X118500Y56200D02*Y55200D01*
X115800Y54700D02*X116500Y55400D01*
X115000Y54700D02*X115800D01*
X115000D02*X114500Y55200D01*
Y56200D02*Y55200D01*
Y56200D02*X115000Y56700D01*
X115800D01*
X116500Y56000D02*X115800Y56700D01*
X128700Y78000D02*X130000D01*
X128000Y78700D02*X128700Y78000D01*
X128000Y81300D02*Y78700D01*
Y81300D02*X128700Y82000D01*
X130000D01*
X132700D02*X133200Y81500D01*
X131700Y82000D02*X132700D01*
X131200Y81500D02*X131700Y82000D01*
X131200Y81500D02*Y78500D01*
X131700Y78000D01*
X132700Y80200D02*X133200Y79700D01*
X131200Y80200D02*X132700D01*
X131700Y78000D02*X132700D01*
X133200Y78500D01*
Y79700D02*Y78500D01*
X115200Y133000D02*X116500D01*
X114500Y133700D02*X115200Y133000D01*
X114500Y136300D02*Y133700D01*
Y136300D02*X115200Y137000D01*
X116500D01*
X118200Y133000D02*X120200Y137000D01*
X117700D02*X120200D01*
X116000Y122500D02*X120000D01*
X116000Y123800D02*X116700Y124500D01*
X119300D01*
X120000Y123800D02*X119300Y124500D01*
X120000Y123800D02*Y122000D01*
X116000Y123800D02*Y122000D01*
X116500Y125700D02*X116000Y126200D01*
Y127700D02*Y126200D01*
Y127700D02*X116500Y128200D01*
X117500D01*
X120000Y125700D02*X117500Y128200D01*
X120000D02*Y125700D01*
X97200Y134500D02*X98500D01*
X96500Y135200D02*X97200Y134500D01*
X96500Y137800D02*Y135200D01*
Y137800D02*X97200Y138500D01*
X98500D01*
X99700Y137700D02*X100500Y138500D01*
Y134500D01*
X99700D02*X101200D01*
X103900Y138500D02*X104400Y138000D01*
X102900Y138500D02*X103900D01*
X102400Y138000D02*X102900Y138500D01*
X102400Y138000D02*Y135000D01*
X102900Y134500D01*
X103900Y136700D02*X104400Y136200D01*
X102400Y136700D02*X103900D01*
X102900Y134500D02*X103900D01*
X104400Y135000D01*
Y136200D02*Y135000D01*
X100500Y111500D02*Y109500D01*
Y111500D02*X101000Y112000D01*
X102000D01*
X102500Y111500D02*X102000Y112000D01*
X102500Y111500D02*Y110000D01*
X100500D02*X104500D01*
X102500Y110800D02*X104500Y112000D01*
X101300Y113200D02*X100500Y114000D01*
X104500D01*
Y114700D02*Y113200D01*
X96000Y104200D02*Y101400D01*
X96400Y101000D01*
X97200D01*
X97600Y101400D01*
Y104200D02*Y101400D01*
X98960Y101000D02*X100560Y104200D01*
X98560D02*X100560D01*
M02*
