G04 start of page 12 for group -3984 idx -3984 *
G04 Title: (unknown), fab *
G04 Creator: pcb 20110918 *
G04 CreationDate: Tue 27 May 2014 03:52:58 AM GMT UTC *
G04 For: ndholmes *
G04 Format: Gerber/RS-274X *
G04 PCB-Dimensions: 225000 140000 *
G04 PCB-Coordinate-Origin: lower left *
%MOIN*%
%FSLAX25Y25*%
%LNFAB*%
%ADD88C,0.0100*%
%ADD87C,0.0075*%
%ADD86C,0.0060*%
%ADD85R,0.0080X0.0080*%
G54D85*X19700Y81500D02*G75*G03X21300Y81500I800J0D01*G01*
G75*G03X19700Y81500I-800J0D01*G01*
Y61500D02*G75*G03X21300Y61500I800J0D01*G01*
G75*G03X19700Y61500I-800J0D01*G01*
Y129500D02*G75*G03X21300Y129500I800J0D01*G01*
G75*G03X19700Y129500I-800J0D01*G01*
Y109500D02*G75*G03X21300Y109500I800J0D01*G01*
G75*G03X19700Y109500I-800J0D01*G01*
X204700D02*G75*G03X206300Y109500I800J0D01*G01*
G75*G03X204700Y109500I-800J0D01*G01*
Y129500D02*G75*G03X206300Y129500I800J0D01*G01*
G75*G03X204700Y129500I-800J0D01*G01*
Y29500D02*G75*G03X206300Y29500I800J0D01*G01*
G75*G03X204700Y29500I-800J0D01*G01*
Y49500D02*G75*G03X206300Y49500I800J0D01*G01*
G75*G03X204700Y49500I-800J0D01*G01*
Y69500D02*G75*G03X206300Y69500I800J0D01*G01*
G75*G03X204700Y69500I-800J0D01*G01*
Y89500D02*G75*G03X206300Y89500I800J0D01*G01*
G75*G03X204700Y89500I-800J0D01*G01*
X14200Y151250D02*G75*G03X15800Y151250I800J0D01*G01*
G75*G03X14200Y151250I-800J0D01*G01*
G54D86*X135000Y153500D02*X136500Y150500D01*
X138000Y153500D01*
X136500Y150500D02*Y147500D01*
X139800Y150800D02*X142050D01*
X139800Y147500D02*X142800D01*
X139800Y153500D02*Y147500D01*
Y153500D02*X142800D01*
X147600D02*X148350Y152750D01*
X145350Y153500D02*X147600D01*
X144600Y152750D02*X145350Y153500D01*
X144600Y152750D02*Y151250D01*
X145350Y150500D01*
X147600D01*
X148350Y149750D01*
Y148250D01*
X147600Y147500D02*X148350Y148250D01*
X145350Y147500D02*X147600D01*
X144600Y148250D02*X145350Y147500D01*
X98000Y152300D02*X99200Y153500D01*
Y147500D01*
X98000D02*X100250D01*
X102050Y148250D02*X102800Y147500D01*
X102050Y152750D02*Y148250D01*
Y152750D02*X102800Y153500D01*
X104300D01*
X105050Y152750D01*
Y148250D01*
X104300Y147500D02*X105050Y148250D01*
X102800Y147500D02*X104300D01*
X102050Y149000D02*X105050Y152000D01*
X45000Y148250D02*X45750Y147500D01*
X45000Y152750D02*Y148250D01*
Y152750D02*X45750Y153500D01*
X47250D01*
X48000Y152750D01*
Y148250D01*
X47250Y147500D02*X48000Y148250D01*
X45750Y147500D02*X47250D01*
X45000Y149000D02*X48000Y152000D01*
X49800Y147500D02*X50550D01*
X52350Y148250D02*X53100Y147500D01*
X52350Y152750D02*Y148250D01*
Y152750D02*X53100Y153500D01*
X54600D01*
X55350Y152750D01*
Y148250D01*
X54600Y147500D02*X55350Y148250D01*
X53100Y147500D02*X54600D01*
X52350Y149000D02*X55350Y152000D01*
X57150Y149750D02*X60150Y153500D01*
X57150Y149750D02*X60900D01*
X60150Y153500D02*Y147500D01*
X62700Y148250D02*X63450Y147500D01*
X62700Y149450D02*Y148250D01*
Y149450D02*X63750Y150500D01*
X64650D01*
X65700Y149450D01*
Y148250D01*
X64950Y147500D02*X65700Y148250D01*
X63450Y147500D02*X64950D01*
X62700Y151550D02*X63750Y150500D01*
X62700Y152750D02*Y151550D01*
Y152750D02*X63450Y153500D01*
X64950D01*
X65700Y152750D01*
Y151550D01*
X64650Y150500D02*X65700Y151550D01*
X69300Y89700D02*X71700Y87300D01*
X69300D02*X71700Y89700D01*
X59300D02*X61700Y87300D01*
X59300D02*X61700Y89700D01*
X49300D02*X51700Y87300D01*
X49300D02*X51700Y89700D01*
X87300Y129200D02*X89700Y126800D01*
X87300D02*X89700Y129200D01*
X97300D02*X99700Y126800D01*
X97300D02*X99700Y129200D01*
X107300D02*X109700Y126800D01*
X107300D02*X109700Y129200D01*
X11300Y34200D02*X13700Y31800D01*
X11300D02*X13700Y34200D01*
X11300Y24200D02*X13700Y21800D01*
X11300D02*X13700Y24200D01*
X11300Y14200D02*X13700Y11800D01*
X11300D02*X13700Y14200D01*
X13800Y167450D02*X16200Y165050D01*
X13800D02*X16200Y167450D01*
X135000Y168500D02*X136500Y165500D01*
X138000Y168500D01*
X136500Y165500D02*Y162500D01*
X139800Y165800D02*X142050D01*
X139800Y162500D02*X142800D01*
X139800Y168500D02*Y162500D01*
Y168500D02*X142800D01*
X147600D02*X148350Y167750D01*
X145350Y168500D02*X147600D01*
X144600Y167750D02*X145350Y168500D01*
X144600Y167750D02*Y166250D01*
X145350Y165500D01*
X147600D01*
X148350Y164750D01*
Y163250D01*
X147600Y162500D02*X148350Y163250D01*
X145350Y162500D02*X147600D01*
X144600Y163250D02*X145350Y162500D01*
X98750D02*X101000Y165500D01*
Y167750D02*Y165500D01*
X100250Y168500D02*X101000Y167750D01*
X98750Y168500D02*X100250D01*
X98000Y167750D02*X98750Y168500D01*
X98000Y167750D02*Y166250D01*
X98750Y165500D01*
X101000D01*
X45000Y163250D02*X45750Y162500D01*
X45000Y167750D02*Y163250D01*
Y167750D02*X45750Y168500D01*
X47250D01*
X48000Y167750D01*
Y163250D01*
X47250Y162500D02*X48000Y163250D01*
X45750Y162500D02*X47250D01*
X45000Y164000D02*X48000Y167000D01*
X49800Y162500D02*X50550D01*
X52350Y163250D02*X53100Y162500D01*
X52350Y167750D02*Y163250D01*
Y167750D02*X53100Y168500D01*
X54600D01*
X55350Y167750D01*
Y163250D01*
X54600Y162500D02*X55350Y163250D01*
X53100Y162500D02*X54600D01*
X52350Y164000D02*X55350Y167000D01*
X57150Y164750D02*X60150Y168500D01*
X57150Y164750D02*X60900D01*
X60150Y168500D02*Y162500D01*
X62700Y168500D02*X65700D01*
X62700D02*Y165500D01*
X63450Y166250D01*
X64950D01*
X65700Y165500D01*
Y163250D01*
X64950Y162500D02*X65700Y163250D01*
X63450Y162500D02*X64950D01*
X62700Y163250D02*X63450Y162500D01*
X130500Y9100D02*Y5900D01*
X128900Y7500D02*X132100D01*
X130500Y19100D02*Y15900D01*
X128900Y17500D02*X132100D01*
X125000Y65100D02*Y61900D01*
X123400Y63500D02*X126600D01*
X125000Y55100D02*Y51900D01*
X123400Y53500D02*X126600D01*
X125000Y45100D02*Y41900D01*
X123400Y43500D02*X126600D01*
X135000Y65100D02*Y61900D01*
X133400Y63500D02*X136600D01*
X135000Y55100D02*Y51900D01*
X133400Y53500D02*X136600D01*
X135000Y45100D02*Y41900D01*
X133400Y43500D02*X136600D01*
X15000Y182850D02*Y179650D01*
X13400Y181250D02*X16600D01*
X135000Y183500D02*X136500Y180500D01*
X138000Y183500D01*
X136500Y180500D02*Y177500D01*
X139800Y180800D02*X142050D01*
X139800Y177500D02*X142800D01*
X139800Y183500D02*Y177500D01*
Y183500D02*X142800D01*
X147600D02*X148350Y182750D01*
X145350Y183500D02*X147600D01*
X144600Y182750D02*X145350Y183500D01*
X144600Y182750D02*Y181250D01*
X145350Y180500D01*
X147600D01*
X148350Y179750D01*
Y178250D01*
X147600Y177500D02*X148350Y178250D01*
X145350Y177500D02*X147600D01*
X144600Y178250D02*X145350Y177500D01*
X98000Y178250D02*X98750Y177500D01*
X98000Y179450D02*Y178250D01*
Y179450D02*X99050Y180500D01*
X99950D01*
X101000Y179450D01*
Y178250D01*
X100250Y177500D02*X101000Y178250D01*
X98750Y177500D02*X100250D01*
X98000Y181550D02*X99050Y180500D01*
X98000Y182750D02*Y181550D01*
Y182750D02*X98750Y183500D01*
X100250D01*
X101000Y182750D01*
Y181550D01*
X99950Y180500D02*X101000Y181550D01*
X45000Y178250D02*X45750Y177500D01*
X45000Y182750D02*Y178250D01*
Y182750D02*X45750Y183500D01*
X47250D01*
X48000Y182750D01*
Y178250D01*
X47250Y177500D02*X48000Y178250D01*
X45750Y177500D02*X47250D01*
X45000Y179000D02*X48000Y182000D01*
X49800Y177500D02*X50550D01*
X52350Y178250D02*X53100Y177500D01*
X52350Y182750D02*Y178250D01*
Y182750D02*X53100Y183500D01*
X54600D01*
X55350Y182750D01*
Y178250D01*
X54600Y177500D02*X55350Y178250D01*
X53100Y177500D02*X54600D01*
X52350Y179000D02*X55350Y182000D01*
X57150Y182750D02*X57900Y183500D01*
X59400D01*
X60150Y182750D01*
X59400Y177500D02*X60150Y178250D01*
X57900Y177500D02*X59400D01*
X57150Y178250D02*X57900Y177500D01*
Y180800D02*X59400D01*
X60150Y182750D02*Y181550D01*
Y180050D02*Y178250D01*
Y180050D02*X59400Y180800D01*
X60150Y181550D02*X59400Y180800D01*
X61950Y178250D02*X62700Y177500D01*
X61950Y179450D02*Y178250D01*
Y179450D02*X63000Y180500D01*
X63900D01*
X64950Y179450D01*
Y178250D01*
X64200Y177500D02*X64950Y178250D01*
X62700Y177500D02*X64200D01*
X61950Y181550D02*X63000Y180500D01*
X61950Y182750D02*Y181550D01*
Y182750D02*X62700Y183500D01*
X64200D01*
X64950Y182750D01*
Y181550D01*
X63900Y180500D02*X64950Y181550D01*
X72000Y115500D02*Y113900D01*
Y115500D02*X73387Y116300D01*
X72000Y115500D02*X70613Y116300D01*
X56000Y115500D02*Y113900D01*
Y115500D02*X57387Y116300D01*
X56000Y115500D02*X54613Y116300D01*
X56000Y110000D02*Y108400D01*
Y110000D02*X57387Y110800D01*
X56000Y110000D02*X54613Y110800D01*
X72000Y109500D02*Y107900D01*
Y109500D02*X73387Y110300D01*
X72000Y109500D02*X70613Y110300D01*
X56000Y104500D02*Y102900D01*
Y104500D02*X57387Y105300D01*
X56000Y104500D02*X54613Y105300D01*
X70500Y104000D02*Y102400D01*
Y104000D02*X71887Y104800D01*
X70500Y104000D02*X69113Y104800D01*
X77500Y115500D02*Y113900D01*
Y115500D02*X78887Y116300D01*
X77500Y115500D02*X76113Y116300D01*
X77500Y109500D02*Y107900D01*
Y109500D02*X78887Y110300D01*
X77500Y109500D02*X76113Y110300D01*
X97000Y95500D02*Y93900D01*
Y95500D02*X98387Y96300D01*
X97000Y95500D02*X95613Y96300D01*
X97000Y90500D02*Y88900D01*
Y90500D02*X98387Y91300D01*
X97000Y90500D02*X95613Y91300D01*
X97000Y85500D02*Y83900D01*
Y85500D02*X98387Y86300D01*
X97000Y85500D02*X95613Y86300D01*
X115000Y95500D02*Y93900D01*
Y95500D02*X116387Y96300D01*
X115000Y95500D02*X113613Y96300D01*
X115000Y90500D02*Y88900D01*
Y90500D02*X116387Y91300D01*
X115000Y90500D02*X113613Y91300D01*
X115000Y85500D02*Y83900D01*
Y85500D02*X116387Y86300D01*
X115000Y85500D02*X113613Y86300D01*
X115000Y80500D02*Y78900D01*
Y80500D02*X116387Y81300D01*
X115000Y80500D02*X113613Y81300D01*
X111500Y75500D02*Y73900D01*
Y75500D02*X112887Y76300D01*
X111500Y75500D02*X110113Y76300D01*
X31000Y54500D02*Y52900D01*
Y54500D02*X32387Y55300D01*
X31000Y54500D02*X29613Y55300D01*
X36000Y54500D02*Y52900D01*
Y54500D02*X37387Y55300D01*
X36000Y54500D02*X34613Y55300D01*
X31000Y59500D02*Y57900D01*
Y59500D02*X32387Y60300D01*
X31000Y59500D02*X29613Y60300D01*
X36000Y59500D02*Y57900D01*
Y59500D02*X37387Y60300D01*
X36000Y59500D02*X34613Y60300D01*
X31000Y64500D02*Y62900D01*
Y64500D02*X32387Y65300D01*
X31000Y64500D02*X29613Y65300D01*
X36000Y64500D02*Y62900D01*
Y64500D02*X37387Y65300D01*
X36000Y64500D02*X34613Y65300D01*
X31000Y69500D02*Y67900D01*
Y69500D02*X32387Y70300D01*
X31000Y69500D02*X29613Y70300D01*
X36000Y69500D02*Y67900D01*
Y69500D02*X37387Y70300D01*
X36000Y69500D02*X34613Y70300D01*
X45800Y36800D02*Y35200D01*
Y36800D02*X47187Y37600D01*
X45800Y36800D02*X44413Y37600D01*
X45800Y32300D02*Y30700D01*
Y32300D02*X47187Y33100D01*
X45800Y32300D02*X44413Y33100D01*
X50300Y36800D02*Y35200D01*
Y36800D02*X51687Y37600D01*
X50300Y36800D02*X48913Y37600D01*
X50300Y32300D02*Y30700D01*
Y32300D02*X51687Y33100D01*
X50300Y32300D02*X48913Y33100D01*
X58000Y24500D02*Y22900D01*
Y24500D02*X59387Y25300D01*
X58000Y24500D02*X56613Y25300D01*
X128000Y112500D02*Y110900D01*
Y112500D02*X129387Y113300D01*
X128000Y112500D02*X126613Y113300D01*
X122500Y112500D02*Y110900D01*
Y112500D02*X123887Y113300D01*
X122500Y112500D02*X121113Y113300D01*
X122500Y103000D02*Y101400D01*
Y103000D02*X123887Y103800D01*
X122500Y103000D02*X121113Y103800D01*
X128000Y103000D02*Y101400D01*
Y103000D02*X129387Y103800D01*
X128000Y103000D02*X126613Y103800D01*
X125500Y107500D02*Y105900D01*
Y107500D02*X126887Y108300D01*
X125500Y107500D02*X124113Y108300D01*
X135500Y85500D02*Y83900D01*
Y85500D02*X136887Y86300D01*
X135500Y85500D02*X134113Y86300D01*
X140000Y85500D02*Y83900D01*
Y85500D02*X141387Y86300D01*
X140000Y85500D02*X138613Y86300D01*
X145500Y52500D02*Y50900D01*
Y52500D02*X146887Y53300D01*
X145500Y52500D02*X144113Y53300D01*
X145000Y28000D02*Y26400D01*
Y28000D02*X146387Y28800D01*
X145000Y28000D02*X143613Y28800D01*
X158000Y70000D02*Y68400D01*
Y70000D02*X159387Y70800D01*
X158000Y70000D02*X156613Y70800D01*
X149000Y69000D02*Y67400D01*
Y69000D02*X150387Y69800D01*
X149000Y69000D02*X147613Y69800D01*
X186500Y14500D02*Y12900D01*
Y14500D02*X187887Y15300D01*
X186500Y14500D02*X185113Y15300D01*
X173500Y57000D02*Y55400D01*
Y57000D02*X174887Y57800D01*
X173500Y57000D02*X172113Y57800D01*
X180500Y53000D02*Y51400D01*
Y53000D02*X181887Y53800D01*
X180500Y53000D02*X179113Y53800D01*
X180000Y38500D02*Y36900D01*
Y38500D02*X181387Y39300D01*
X180000Y38500D02*X178613Y39300D01*
X183000Y43000D02*Y41400D01*
Y43000D02*X184387Y43800D01*
X183000Y43000D02*X181613Y43800D01*
X186000Y22000D02*Y20400D01*
Y22000D02*X187387Y22800D01*
X186000Y22000D02*X184613Y22800D01*
X163000Y28000D02*Y26400D01*
Y28000D02*X164387Y28800D01*
X163000Y28000D02*X161613Y28800D01*
X183000Y48000D02*Y46400D01*
Y48000D02*X184387Y48800D01*
X183000Y48000D02*X181613Y48800D01*
X183000Y80500D02*Y78900D01*
Y80500D02*X184387Y81300D01*
X183000Y80500D02*X181613Y81300D01*
X30500Y22000D02*Y20400D01*
Y22000D02*X31887Y22800D01*
X30500Y22000D02*X29113Y22800D01*
X196500Y87500D02*Y85900D01*
Y87500D02*X197887Y88300D01*
X196500Y87500D02*X195113Y88300D01*
X196500Y80500D02*Y78900D01*
Y80500D02*X197887Y81300D01*
X196500Y80500D02*X195113Y81300D01*
X196500Y73500D02*Y71900D01*
Y73500D02*X197887Y74300D01*
X196500Y73500D02*X195113Y74300D01*
X91000Y44500D02*Y42900D01*
Y44500D02*X92387Y45300D01*
X91000Y44500D02*X89613Y45300D01*
X144500Y85500D02*Y83900D01*
Y85500D02*X145887Y86300D01*
X144500Y85500D02*X143113Y86300D01*
X144500Y81000D02*Y79400D01*
Y81000D02*X145887Y81800D01*
X144500Y81000D02*X143113Y81800D01*
X161500Y91000D02*Y89400D01*
Y91000D02*X162887Y91800D01*
X161500Y91000D02*X160113Y91800D01*
X166000Y91000D02*Y89400D01*
Y91000D02*X167387Y91800D01*
X166000Y91000D02*X164613Y91800D01*
X170500Y91000D02*Y89400D01*
Y91000D02*X171887Y91800D01*
X170500Y91000D02*X169113Y91800D01*
X161500Y86500D02*Y84900D01*
Y86500D02*X162887Y87300D01*
X161500Y86500D02*X160113Y87300D01*
X166000Y86500D02*Y84900D01*
Y86500D02*X167387Y87300D01*
X166000Y86500D02*X164613Y87300D01*
X170500Y86500D02*Y84900D01*
Y86500D02*X171887Y87300D01*
X170500Y86500D02*X169113Y87300D01*
X161500Y82000D02*Y80400D01*
Y82000D02*X162887Y82800D01*
X161500Y82000D02*X160113Y82800D01*
X166000Y82000D02*Y80400D01*
Y82000D02*X167387Y82800D01*
X166000Y82000D02*X164613Y82800D01*
X170500Y82000D02*Y80400D01*
Y82000D02*X171887Y82800D01*
X170500Y82000D02*X169113Y82800D01*
X120500Y72000D02*Y70400D01*
Y72000D02*X121887Y72800D01*
X120500Y72000D02*X119113Y72800D01*
X31000Y74000D02*Y72400D01*
Y74000D02*X32387Y74800D01*
X31000Y74000D02*X29613Y74800D01*
X36000Y74000D02*Y72400D01*
Y74000D02*X37387Y74800D01*
X36000Y74000D02*X34613Y74800D01*
X52500Y74000D02*Y72400D01*
Y74000D02*X53887Y74800D01*
X52500Y74000D02*X51113Y74800D01*
X47000Y74000D02*Y72400D01*
Y74000D02*X48387Y74800D01*
X47000Y74000D02*X45613Y74800D01*
X41500Y74000D02*Y72400D01*
Y74000D02*X42887Y74800D01*
X41500Y74000D02*X40113Y74800D01*
X52500Y69500D02*Y67900D01*
Y69500D02*X53887Y70300D01*
X52500Y69500D02*X51113Y70300D01*
X41500Y69500D02*Y67900D01*
Y69500D02*X42887Y70300D01*
X41500Y69500D02*X40113Y70300D01*
X52500Y64500D02*Y62900D01*
Y64500D02*X53887Y65300D01*
X52500Y64500D02*X51113Y65300D01*
X47000Y64500D02*Y62900D01*
Y64500D02*X48387Y65300D01*
X47000Y64500D02*X45613Y65300D01*
X41500Y64500D02*Y62900D01*
Y64500D02*X42887Y65300D01*
X41500Y64500D02*X40113Y65300D01*
X47000Y69500D02*Y67900D01*
Y69500D02*X48387Y70300D01*
X47000Y69500D02*X45613Y70300D01*
X81000Y104000D02*Y102400D01*
Y104000D02*X82387Y104800D01*
X81000Y104000D02*X79613Y104800D01*
X76000Y104000D02*Y102400D01*
Y104000D02*X77387Y104800D01*
X76000Y104000D02*X74613Y104800D01*
X94000Y49500D02*Y47900D01*
Y49500D02*X95387Y50300D01*
X94000Y49500D02*X92613Y50300D01*
X15000Y196250D02*Y194650D01*
Y196250D02*X16387Y197050D01*
X15000Y196250D02*X13613Y197050D01*
X135000Y198500D02*X136500Y195500D01*
X138000Y198500D01*
X136500Y195500D02*Y192500D01*
X139800Y195800D02*X142050D01*
X139800Y192500D02*X142800D01*
X139800Y198500D02*Y192500D01*
Y198500D02*X142800D01*
X147600D02*X148350Y197750D01*
X145350Y198500D02*X147600D01*
X144600Y197750D02*X145350Y198500D01*
X144600Y197750D02*Y196250D01*
X145350Y195500D01*
X147600D01*
X148350Y194750D01*
Y193250D01*
X147600Y192500D02*X148350Y193250D01*
X145350Y192500D02*X147600D01*
X144600Y193250D02*X145350Y192500D01*
X98000Y193250D02*X98750Y192500D01*
X98000Y194450D02*Y193250D01*
Y194450D02*X99050Y195500D01*
X99950D01*
X101000Y194450D01*
Y193250D01*
X100250Y192500D02*X101000Y193250D01*
X98750Y192500D02*X100250D01*
X98000Y196550D02*X99050Y195500D01*
X98000Y197750D02*Y196550D01*
Y197750D02*X98750Y198500D01*
X100250D01*
X101000Y197750D01*
Y196550D01*
X99950Y195500D02*X101000Y196550D01*
X102800Y193250D02*X103550Y192500D01*
X102800Y197750D02*Y193250D01*
Y197750D02*X103550Y198500D01*
X105050D01*
X105800Y197750D01*
Y193250D01*
X105050Y192500D02*X105800Y193250D01*
X103550Y192500D02*X105050D01*
X102800Y194000D02*X105800Y197000D01*
X45000Y193250D02*X45750Y192500D01*
X45000Y197750D02*Y193250D01*
Y197750D02*X45750Y198500D01*
X47250D01*
X48000Y197750D01*
Y193250D01*
X47250Y192500D02*X48000Y193250D01*
X45750Y192500D02*X47250D01*
X45000Y194000D02*X48000Y197000D01*
X49800Y192500D02*X50550D01*
X52350Y193250D02*X53100Y192500D01*
X52350Y197750D02*Y193250D01*
Y197750D02*X53100Y198500D01*
X54600D01*
X55350Y197750D01*
Y193250D01*
X54600Y192500D02*X55350Y193250D01*
X53100Y192500D02*X54600D01*
X52350Y194000D02*X55350Y197000D01*
X57150Y197750D02*X57900Y198500D01*
X60150D01*
X60900Y197750D01*
Y196250D01*
X57150Y192500D02*X60900Y196250D01*
X57150Y192500D02*X60900D01*
X62700Y193250D02*X63450Y192500D01*
X62700Y197750D02*Y193250D01*
Y197750D02*X63450Y198500D01*
X64950D01*
X65700Y197750D01*
Y193250D01*
X64950Y192500D02*X65700Y193250D01*
X63450Y192500D02*X64950D01*
X62700Y194000D02*X65700Y197000D01*
X3000Y213500D02*X3750Y212750D01*
X750Y213500D02*X3000D01*
X0Y212750D02*X750Y213500D01*
X0Y212750D02*Y211250D01*
X750Y210500D01*
X3000D01*
X3750Y209750D01*
Y208250D01*
X3000Y207500D02*X3750Y208250D01*
X750Y207500D02*X3000D01*
X0Y208250D02*X750Y207500D01*
X5550Y210500D02*Y208250D01*
X6300Y207500D01*
X8550Y210500D02*Y206000D01*
X7800Y205250D02*X8550Y206000D01*
X6300Y205250D02*X7800D01*
X5550Y206000D02*X6300Y205250D01*
Y207500D02*X7800D01*
X8550Y208250D01*
X11100Y209750D02*Y207500D01*
Y209750D02*X11850Y210500D01*
X12600D01*
X13350Y209750D01*
Y207500D01*
Y209750D02*X14100Y210500D01*
X14850D01*
X15600Y209750D01*
Y207500D01*
X10350Y210500D02*X11100Y209750D01*
X17400Y213500D02*Y207500D01*
Y208250D02*X18150Y207500D01*
X19650D01*
X20400Y208250D01*
Y209750D02*Y208250D01*
X19650Y210500D02*X20400Y209750D01*
X18150Y210500D02*X19650D01*
X17400Y209750D02*X18150Y210500D01*
X22200Y209750D02*Y208250D01*
Y209750D02*X22950Y210500D01*
X24450D01*
X25200Y209750D01*
Y208250D01*
X24450Y207500D02*X25200Y208250D01*
X22950Y207500D02*X24450D01*
X22200Y208250D02*X22950Y207500D01*
X27000Y213500D02*Y208250D01*
X27750Y207500D01*
X0Y204250D02*X29250D01*
X41750Y213500D02*Y207500D01*
X43700Y213500D02*X44750Y212450D01*
Y208550D01*
X43700Y207500D02*X44750Y208550D01*
X41000Y207500D02*X43700D01*
X41000Y213500D02*X43700D01*
G54D87*X46550Y212000D02*Y211850D01*
G54D86*Y209750D02*Y207500D01*
X50300Y210500D02*X51050Y209750D01*
X48800Y210500D02*X50300D01*
X48050Y209750D02*X48800Y210500D01*
X48050Y209750D02*Y208250D01*
X48800Y207500D01*
X51050Y210500D02*Y208250D01*
X51800Y207500D01*
X48800D02*X50300D01*
X51050Y208250D01*
X54350Y209750D02*Y207500D01*
Y209750D02*X55100Y210500D01*
X55850D01*
X56600Y209750D01*
Y207500D01*
Y209750D02*X57350Y210500D01*
X58100D01*
X58850Y209750D01*
Y207500D01*
X53600Y210500D02*X54350Y209750D01*
X60650Y207500D02*X61400D01*
X65900Y208250D02*X66650Y207500D01*
X65900Y212750D02*X66650Y213500D01*
X65900Y212750D02*Y208250D01*
X68450Y213500D02*X69950D01*
X69200D02*Y207500D01*
X68450D02*X69950D01*
X72500Y209750D02*Y207500D01*
Y209750D02*X73250Y210500D01*
X74000D01*
X74750Y209750D01*
Y207500D01*
X71750Y210500D02*X72500Y209750D01*
X77300Y210500D02*X79550D01*
X76550Y209750D02*X77300Y210500D01*
X76550Y209750D02*Y208250D01*
X77300Y207500D01*
X79550D01*
X81350Y213500D02*Y207500D01*
Y209750D02*X82100Y210500D01*
X83600D01*
X84350Y209750D01*
Y207500D01*
X86150Y213500D02*X86900Y212750D01*
Y208250D01*
X86150Y207500D02*X86900Y208250D01*
X41000Y204250D02*X88700D01*
X96050Y207500D02*X98000D01*
X95000Y208550D02*X96050Y207500D01*
X95000Y212450D02*Y208550D01*
Y212450D02*X96050Y213500D01*
X98000D01*
X99800Y209750D02*Y208250D01*
Y209750D02*X100550Y210500D01*
X102050D01*
X102800Y209750D01*
Y208250D01*
X102050Y207500D02*X102800Y208250D01*
X100550Y207500D02*X102050D01*
X99800Y208250D02*X100550Y207500D01*
X104600Y210500D02*Y208250D01*
X105350Y207500D01*
X106850D01*
X107600Y208250D01*
Y210500D02*Y208250D01*
X110150Y209750D02*Y207500D01*
Y209750D02*X110900Y210500D01*
X111650D01*
X112400Y209750D01*
Y207500D01*
X109400Y210500D02*X110150Y209750D01*
X114950Y213500D02*Y208250D01*
X115700Y207500D01*
X114200Y211250D02*X115700D01*
X95000Y204250D02*X117200D01*
X130750Y213500D02*Y207500D01*
X130000Y213500D02*X133000D01*
X133750Y212750D01*
Y211250D01*
X133000Y210500D02*X133750Y211250D01*
X130750Y210500D02*X133000D01*
X135550Y213500D02*Y208250D01*
X136300Y207500D01*
X140050Y210500D02*X140800Y209750D01*
X138550Y210500D02*X140050D01*
X137800Y209750D02*X138550Y210500D01*
X137800Y209750D02*Y208250D01*
X138550Y207500D01*
X140800Y210500D02*Y208250D01*
X141550Y207500D01*
X138550D02*X140050D01*
X140800Y208250D01*
X144100Y213500D02*Y208250D01*
X144850Y207500D01*
X143350Y211250D02*X144850D01*
X147100Y207500D02*X149350D01*
X146350Y208250D02*X147100Y207500D01*
X146350Y209750D02*Y208250D01*
Y209750D02*X147100Y210500D01*
X148600D01*
X149350Y209750D01*
X146350Y209000D02*X149350D01*
Y209750D02*Y209000D01*
X154150Y213500D02*Y207500D01*
X153400D02*X154150Y208250D01*
X151900Y207500D02*X153400D01*
X151150Y208250D02*X151900Y207500D01*
X151150Y209750D02*Y208250D01*
Y209750D02*X151900Y210500D01*
X153400D01*
X154150Y209750D01*
X157450Y210500D02*Y209750D01*
Y208250D02*Y207500D01*
X155950Y212750D02*Y212000D01*
Y212750D02*X156700Y213500D01*
X158200D01*
X158950Y212750D01*
Y212000D01*
X157450Y210500D02*X158950Y212000D01*
X130000Y204250D02*X160750D01*
X0Y228500D02*X3000D01*
X1500D02*Y222500D01*
X4800Y228500D02*Y222500D01*
Y224750D02*X5550Y225500D01*
X7050D01*
X7800Y224750D01*
Y222500D01*
X10350D02*X12600D01*
X9600Y223250D02*X10350Y222500D01*
X9600Y224750D02*Y223250D01*
Y224750D02*X10350Y225500D01*
X11850D01*
X12600Y224750D01*
X9600Y224000D02*X12600D01*
Y224750D02*Y224000D01*
X15150Y224750D02*Y222500D01*
Y224750D02*X15900Y225500D01*
X17400D01*
X14400D02*X15150Y224750D01*
X19950Y222500D02*X22200D01*
X19200Y223250D02*X19950Y222500D01*
X19200Y224750D02*Y223250D01*
Y224750D02*X19950Y225500D01*
X21450D01*
X22200Y224750D01*
X19200Y224000D02*X22200D01*
Y224750D02*Y224000D01*
X28950Y225500D02*X29700Y224750D01*
X27450Y225500D02*X28950D01*
X26700Y224750D02*X27450Y225500D01*
X26700Y224750D02*Y223250D01*
X27450Y222500D01*
X29700Y225500D02*Y223250D01*
X30450Y222500D01*
X27450D02*X28950D01*
X29700Y223250D01*
X33000Y224750D02*Y222500D01*
Y224750D02*X33750Y225500D01*
X35250D01*
X32250D02*X33000Y224750D01*
X37800Y222500D02*X40050D01*
X37050Y223250D02*X37800Y222500D01*
X37050Y224750D02*Y223250D01*
Y224750D02*X37800Y225500D01*
X39300D01*
X40050Y224750D01*
X37050Y224000D02*X40050D01*
Y224750D02*Y224000D01*
X44550Y224750D02*X47550Y228500D01*
X44550Y224750D02*X48300D01*
X47550Y228500D02*Y222500D01*
X55800Y228500D02*Y222500D01*
X55050D02*X55800Y223250D01*
X53550Y222500D02*X55050D01*
X52800Y223250D02*X53550Y222500D01*
X52800Y224750D02*Y223250D01*
Y224750D02*X53550Y225500D01*
X55050D01*
X55800Y224750D01*
G54D87*X57600Y227000D02*Y226850D01*
G54D86*Y224750D02*Y222500D01*
X59850Y227750D02*Y222500D01*
Y227750D02*X60600Y228500D01*
X61350D01*
X59100Y225500D02*X60600D01*
X63600Y227750D02*Y222500D01*
Y227750D02*X64350Y228500D01*
X65100D01*
X62850Y225500D02*X64350D01*
X67350Y222500D02*X69600D01*
X66600Y223250D02*X67350Y222500D01*
X66600Y224750D02*Y223250D01*
Y224750D02*X67350Y225500D01*
X68850D01*
X69600Y224750D01*
X66600Y224000D02*X69600D01*
Y224750D02*Y224000D01*
X72150Y224750D02*Y222500D01*
Y224750D02*X72900Y225500D01*
X74400D01*
X71400D02*X72150Y224750D01*
X76950Y222500D02*X79200D01*
X76200Y223250D02*X76950Y222500D01*
X76200Y224750D02*Y223250D01*
Y224750D02*X76950Y225500D01*
X78450D01*
X79200Y224750D01*
X76200Y224000D02*X79200D01*
Y224750D02*Y224000D01*
X81750Y224750D02*Y222500D01*
Y224750D02*X82500Y225500D01*
X83250D01*
X84000Y224750D01*
Y222500D01*
X81000Y225500D02*X81750Y224750D01*
X86550Y228500D02*Y223250D01*
X87300Y222500D01*
X85800Y226250D02*X87300D01*
X94500Y228500D02*Y222500D01*
X93750D02*X94500Y223250D01*
X92250Y222500D02*X93750D01*
X91500Y223250D02*X92250Y222500D01*
X91500Y224750D02*Y223250D01*
Y224750D02*X92250Y225500D01*
X93750D01*
X94500Y224750D01*
X97050D02*Y222500D01*
Y224750D02*X97800Y225500D01*
X99300D01*
X96300D02*X97050Y224750D01*
G54D87*X101100Y227000D02*Y226850D01*
G54D86*Y224750D02*Y222500D01*
X102600Y228500D02*Y223250D01*
X103350Y222500D01*
X104850Y228500D02*Y223250D01*
X105600Y222500D01*
X110550D02*X112800D01*
X113550Y223250D01*
X112800Y224000D02*X113550Y223250D01*
X110550Y224000D02*X112800D01*
X109800Y224750D02*X110550Y224000D01*
X109800Y224750D02*X110550Y225500D01*
X112800D01*
X113550Y224750D01*
X109800Y223250D02*X110550Y222500D01*
G54D87*X115350Y227000D02*Y226850D01*
G54D86*Y224750D02*Y222500D01*
X116850Y225500D02*X119850D01*
X116850Y222500D02*X119850Y225500D01*
X116850Y222500D02*X119850D01*
X122400D02*X124650D01*
X121650Y223250D02*X122400Y222500D01*
X121650Y224750D02*Y223250D01*
Y224750D02*X122400Y225500D01*
X123900D01*
X124650Y224750D01*
X121650Y224000D02*X124650D01*
Y224750D02*Y224000D01*
X127200Y222500D02*X129450D01*
X130200Y223250D01*
X129450Y224000D02*X130200Y223250D01*
X127200Y224000D02*X129450D01*
X126450Y224750D02*X127200Y224000D01*
X126450Y224750D02*X127200Y225500D01*
X129450D01*
X130200Y224750D01*
X126450Y223250D02*X127200Y222500D01*
X134700Y225500D02*Y223250D01*
X135450Y222500D01*
X136950D01*
X137700Y223250D01*
Y225500D02*Y223250D01*
X140250Y222500D02*X142500D01*
X143250Y223250D01*
X142500Y224000D02*X143250Y223250D01*
X140250Y224000D02*X142500D01*
X139500Y224750D02*X140250Y224000D01*
X139500Y224750D02*X140250Y225500D01*
X142500D01*
X143250Y224750D01*
X139500Y223250D02*X140250Y222500D01*
X145800D02*X148050D01*
X145050Y223250D02*X145800Y222500D01*
X145050Y224750D02*Y223250D01*
Y224750D02*X145800Y225500D01*
X147300D01*
X148050Y224750D01*
X145050Y224000D02*X148050D01*
Y224750D02*Y224000D01*
X152850Y228500D02*Y222500D01*
X152100D02*X152850Y223250D01*
X150600Y222500D02*X152100D01*
X149850Y223250D02*X150600Y222500D01*
X149850Y224750D02*Y223250D01*
Y224750D02*X150600Y225500D01*
X152100D01*
X152850Y224750D01*
G54D87*X157350Y227000D02*Y226850D01*
G54D86*Y224750D02*Y222500D01*
X159600Y224750D02*Y222500D01*
Y224750D02*X160350Y225500D01*
X161100D01*
X161850Y224750D01*
Y222500D01*
X158850Y225500D02*X159600Y224750D01*
X167100Y228500D02*Y223250D01*
X167850Y222500D01*
X166350Y226250D02*X167850D01*
X169350Y228500D02*Y222500D01*
Y224750D02*X170100Y225500D01*
X171600D01*
X172350Y224750D01*
Y222500D01*
G54D87*X174150Y227000D02*Y226850D01*
G54D86*Y224750D02*Y222500D01*
X176400D02*X178650D01*
X179400Y223250D01*
X178650Y224000D02*X179400Y223250D01*
X176400Y224000D02*X178650D01*
X175650Y224750D02*X176400Y224000D01*
X175650Y224750D02*X176400Y225500D01*
X178650D01*
X179400Y224750D01*
X175650Y223250D02*X176400Y222500D01*
X183900Y228500D02*Y223250D01*
X184650Y222500D01*
X188400Y225500D02*X189150Y224750D01*
X186900Y225500D02*X188400D01*
X186150Y224750D02*X186900Y225500D01*
X186150Y224750D02*Y223250D01*
X186900Y222500D01*
X189150Y225500D02*Y223250D01*
X189900Y222500D01*
X186900D02*X188400D01*
X189150Y223250D01*
X191700Y225500D02*Y223250D01*
X192450Y222500D01*
X194700Y225500D02*Y221000D01*
X193950Y220250D02*X194700Y221000D01*
X192450Y220250D02*X193950D01*
X191700Y221000D02*X192450Y220250D01*
Y222500D02*X193950D01*
X194700Y223250D01*
X196500Y224750D02*Y223250D01*
Y224750D02*X197250Y225500D01*
X198750D01*
X199500Y224750D01*
Y223250D01*
X198750Y222500D02*X199500Y223250D01*
X197250Y222500D02*X198750D01*
X196500Y223250D02*X197250Y222500D01*
X201300Y225500D02*Y223250D01*
X202050Y222500D01*
X203550D01*
X204300Y223250D01*
Y225500D02*Y223250D01*
X206850Y228500D02*Y223250D01*
X207600Y222500D01*
X206100Y226250D02*X207600D01*
X209100Y221000D02*X210600Y222500D01*
X215100Y227300D02*X216300Y228500D01*
Y222500D01*
X215100D02*X217350D01*
X219150Y223250D02*X219900Y222500D01*
X219150Y227750D02*Y223250D01*
Y227750D02*X219900Y228500D01*
X221400D01*
X222150Y227750D01*
Y223250D01*
X221400Y222500D02*X222150Y223250D01*
X219900Y222500D02*X221400D01*
X219150Y224000D02*X222150Y227000D01*
X224700Y222500D02*X227700Y228500D01*
X223950D02*X227700D01*
X232200D02*Y222500D01*
Y224750D02*X232950Y225500D01*
X234450D01*
X235200Y224750D01*
Y222500D01*
X237000Y224750D02*Y223250D01*
Y224750D02*X237750Y225500D01*
X239250D01*
X240000Y224750D01*
Y223250D01*
X239250Y222500D02*X240000Y223250D01*
X237750Y222500D02*X239250D01*
X237000Y223250D02*X237750Y222500D01*
X241800Y228500D02*Y223250D01*
X242550Y222500D01*
X244800D02*X247050D01*
X244050Y223250D02*X244800Y222500D01*
X244050Y224750D02*Y223250D01*
Y224750D02*X244800Y225500D01*
X246300D01*
X247050Y224750D01*
X244050Y224000D02*X247050D01*
Y224750D02*Y224000D01*
X249600Y222500D02*X251850D01*
X252600Y223250D01*
X251850Y224000D02*X252600Y223250D01*
X249600Y224000D02*X251850D01*
X248850Y224750D02*X249600Y224000D01*
X248850Y224750D02*X249600Y225500D01*
X251850D01*
X252600Y224750D01*
X248850Y223250D02*X249600Y222500D01*
X257850Y228500D02*Y223250D01*
X258600Y222500D01*
X257100Y226250D02*X258600D01*
X260100Y224750D02*Y223250D01*
Y224750D02*X260850Y225500D01*
X262350D01*
X263100Y224750D01*
Y223250D01*
X262350Y222500D02*X263100Y223250D01*
X260850Y222500D02*X262350D01*
X260100Y223250D02*X260850Y222500D01*
X265650Y228500D02*Y223250D01*
X266400Y222500D01*
X264900Y226250D02*X266400D01*
X270150Y225500D02*X270900Y224750D01*
X268650Y225500D02*X270150D01*
X267900Y224750D02*X268650Y225500D01*
X267900Y224750D02*Y223250D01*
X268650Y222500D01*
X270900Y225500D02*Y223250D01*
X271650Y222500D01*
X268650D02*X270150D01*
X270900Y223250D01*
X273450Y228500D02*Y223250D01*
X274200Y222500D01*
G54D88*X0Y140000D02*X180000D01*
X0Y58000D02*Y140000D01*
X179000D02*X225000D01*
Y0D01*
X0D01*
Y78000D01*
G54D86*X26175Y-9500D02*X29175D01*
X29925Y-8750D01*
Y-6950D02*Y-8750D01*
X29175Y-6200D02*X29925Y-6950D01*
X26925Y-6200D02*X29175D01*
X26925Y-3500D02*Y-9500D01*
X26175Y-3500D02*X29175D01*
X29925Y-4250D01*
Y-5450D01*
X29175Y-6200D02*X29925Y-5450D01*
X31725Y-7250D02*Y-8750D01*
Y-7250D02*X32475Y-6500D01*
X33975D01*
X34725Y-7250D01*
Y-8750D01*
X33975Y-9500D02*X34725Y-8750D01*
X32475Y-9500D02*X33975D01*
X31725Y-8750D02*X32475Y-9500D01*
X38775Y-6500D02*X39525Y-7250D01*
X37275Y-6500D02*X38775D01*
X36525Y-7250D02*X37275Y-6500D01*
X36525Y-7250D02*Y-8750D01*
X37275Y-9500D01*
X39525Y-6500D02*Y-8750D01*
X40275Y-9500D01*
X37275D02*X38775D01*
X39525Y-8750D01*
X42825Y-7250D02*Y-9500D01*
Y-7250D02*X43575Y-6500D01*
X45075D01*
X42075D02*X42825Y-7250D01*
X49875Y-3500D02*Y-9500D01*
X49125D02*X49875Y-8750D01*
X47625Y-9500D02*X49125D01*
X46875Y-8750D02*X47625Y-9500D01*
X46875Y-7250D02*Y-8750D01*
Y-7250D02*X47625Y-6500D01*
X49125D01*
X49875Y-7250D01*
X54375D02*Y-8750D01*
Y-7250D02*X55125Y-6500D01*
X56625D01*
X57375Y-7250D01*
Y-8750D01*
X56625Y-9500D02*X57375Y-8750D01*
X55125Y-9500D02*X56625D01*
X54375Y-8750D02*X55125Y-9500D01*
X59175Y-6500D02*Y-8750D01*
X59925Y-9500D01*
X61425D01*
X62175Y-8750D01*
Y-6500D02*Y-8750D01*
X64725Y-3500D02*Y-8750D01*
X65475Y-9500D01*
X63975Y-5750D02*X65475D01*
X66975Y-3500D02*Y-8750D01*
X67725Y-9500D01*
G54D87*X69225Y-5000D02*Y-5150D01*
G54D86*Y-7250D02*Y-9500D01*
X71475Y-7250D02*Y-9500D01*
Y-7250D02*X72225Y-6500D01*
X72975D01*
X73725Y-7250D01*
Y-9500D01*
X70725Y-6500D02*X71475Y-7250D01*
X76275Y-9500D02*X78525D01*
X75525Y-8750D02*X76275Y-9500D01*
X75525Y-7250D02*Y-8750D01*
Y-7250D02*X76275Y-6500D01*
X77775D01*
X78525Y-7250D01*
X75525Y-8000D02*X78525D01*
Y-7250D02*Y-8000D01*
G54D87*X83025Y-5000D02*Y-5150D01*
G54D86*Y-7250D02*Y-9500D01*
X85275D02*X87525D01*
X88275Y-8750D01*
X87525Y-8000D02*X88275Y-8750D01*
X85275Y-8000D02*X87525D01*
X84525Y-7250D02*X85275Y-8000D01*
X84525Y-7250D02*X85275Y-6500D01*
X87525D01*
X88275Y-7250D01*
X84525Y-8750D02*X85275Y-9500D01*
X93525Y-3500D02*Y-8750D01*
X94275Y-9500D01*
X92775Y-5750D02*X94275D01*
X95775Y-3500D02*Y-9500D01*
Y-7250D02*X96525Y-6500D01*
X98025D01*
X98775Y-7250D01*
Y-9500D01*
X101325D02*X103575D01*
X100575Y-8750D02*X101325Y-9500D01*
X100575Y-7250D02*Y-8750D01*
Y-7250D02*X101325Y-6500D01*
X102825D01*
X103575Y-7250D01*
X100575Y-8000D02*X103575D01*
Y-7250D02*Y-8000D01*
X108825Y-6500D02*X111075D01*
X108075Y-7250D02*X108825Y-6500D01*
X108075Y-7250D02*Y-8750D01*
X108825Y-9500D01*
X111075D01*
X113625D02*X115875D01*
X112875Y-8750D02*X113625Y-9500D01*
X112875Y-7250D02*Y-8750D01*
Y-7250D02*X113625Y-6500D01*
X115125D01*
X115875Y-7250D01*
X112875Y-8000D02*X115875D01*
Y-7250D02*Y-8000D01*
X118425Y-7250D02*Y-9500D01*
Y-7250D02*X119175Y-6500D01*
X119925D01*
X120675Y-7250D01*
Y-9500D01*
X117675Y-6500D02*X118425Y-7250D01*
X123225Y-3500D02*Y-8750D01*
X123975Y-9500D01*
X122475Y-5750D02*X123975D01*
X126225Y-9500D02*X128475D01*
X125475Y-8750D02*X126225Y-9500D01*
X125475Y-7250D02*Y-8750D01*
Y-7250D02*X126225Y-6500D01*
X127725D01*
X128475Y-7250D01*
X125475Y-8000D02*X128475D01*
Y-7250D02*Y-8000D01*
X131025Y-7250D02*Y-9500D01*
Y-7250D02*X131775Y-6500D01*
X133275D01*
X130275D02*X131025Y-7250D01*
X135075Y-3500D02*Y-8750D01*
X135825Y-9500D01*
G54D87*X137325Y-5000D02*Y-5150D01*
G54D86*Y-7250D02*Y-9500D01*
X139575Y-7250D02*Y-9500D01*
Y-7250D02*X140325Y-6500D01*
X141075D01*
X141825Y-7250D01*
Y-9500D01*
X138825Y-6500D02*X139575Y-7250D01*
X144375Y-9500D02*X146625D01*
X143625Y-8750D02*X144375Y-9500D01*
X143625Y-7250D02*Y-8750D01*
Y-7250D02*X144375Y-6500D01*
X145875D01*
X146625Y-7250D01*
X143625Y-8000D02*X146625D01*
Y-7250D02*Y-8000D01*
X151125Y-7250D02*Y-8750D01*
Y-7250D02*X151875Y-6500D01*
X153375D01*
X154125Y-7250D01*
Y-8750D01*
X153375Y-9500D02*X154125Y-8750D01*
X151875Y-9500D02*X153375D01*
X151125Y-8750D02*X151875Y-9500D01*
X156675Y-4250D02*Y-9500D01*
Y-4250D02*X157425Y-3500D01*
X158175D01*
X155925Y-6500D02*X157425D01*
X163125Y-3500D02*Y-8750D01*
X163875Y-9500D01*
X162375Y-5750D02*X163875D01*
X165375Y-3500D02*Y-9500D01*
Y-7250D02*X166125Y-6500D01*
X167625D01*
X168375Y-7250D01*
Y-9500D01*
G54D87*X170175Y-5000D02*Y-5150D01*
G54D86*Y-7250D02*Y-9500D01*
X172425D02*X174675D01*
X175425Y-8750D01*
X174675Y-8000D02*X175425Y-8750D01*
X172425Y-8000D02*X174675D01*
X171675Y-7250D02*X172425Y-8000D01*
X171675Y-7250D02*X172425Y-6500D01*
X174675D01*
X175425Y-7250D01*
X171675Y-8750D02*X172425Y-9500D01*
X180675Y-7250D02*Y-11750D01*
X179925Y-6500D02*X180675Y-7250D01*
X181425Y-6500D01*
X182925D01*
X183675Y-7250D01*
Y-8750D01*
X182925Y-9500D02*X183675Y-8750D01*
X181425Y-9500D02*X182925D01*
X180675Y-8750D02*X181425Y-9500D01*
X187725Y-6500D02*X188475Y-7250D01*
X186225Y-6500D02*X187725D01*
X185475Y-7250D02*X186225Y-6500D01*
X185475Y-7250D02*Y-8750D01*
X186225Y-9500D01*
X188475Y-6500D02*Y-8750D01*
X189225Y-9500D01*
X186225D02*X187725D01*
X188475Y-8750D01*
X191775Y-3500D02*Y-8750D01*
X192525Y-9500D01*
X191025Y-5750D02*X192525D01*
X194025Y-3500D02*Y-9500D01*
Y-7250D02*X194775Y-6500D01*
X196275D01*
X197025Y-7250D01*
Y-9500D01*
X200750Y168500D02*Y162500D01*
X202700Y168500D02*X203750Y167450D01*
Y163550D01*
X202700Y162500D02*X203750Y163550D01*
X200000Y162500D02*X202700D01*
X200000Y168500D02*X202700D01*
X207800Y165500D02*X208550Y164750D01*
X206300Y165500D02*X207800D01*
X205550Y164750D02*X206300Y165500D01*
X205550Y164750D02*Y163250D01*
X206300Y162500D01*
X208550Y165500D02*Y163250D01*
X209300Y162500D01*
X206300D02*X207800D01*
X208550Y163250D01*
X211850Y168500D02*Y163250D01*
X212600Y162500D01*
X211100Y166250D02*X212600D01*
X214850Y162500D02*X217100D01*
X214100Y163250D02*X214850Y162500D01*
X214100Y164750D02*Y163250D01*
Y164750D02*X214850Y165500D01*
X216350D01*
X217100Y164750D01*
X214100Y164000D02*X217100D01*
Y164750D02*Y164000D01*
X218900Y166250D02*X219650D01*
X218900Y164750D02*X219650D01*
X224150Y168500D02*X227150D01*
X225650D02*Y162500D01*
X228950Y165500D02*Y163250D01*
X229700Y162500D01*
X231200D01*
X231950Y163250D01*
Y165500D02*Y163250D01*
X234500Y162500D02*X236750D01*
X233750Y163250D02*X234500Y162500D01*
X233750Y164750D02*Y163250D01*
Y164750D02*X234500Y165500D01*
X236000D01*
X236750Y164750D01*
X233750Y164000D02*X236750D01*
Y164750D02*Y164000D01*
X241250Y167750D02*X242000Y168500D01*
X244250D01*
X245000Y167750D01*
Y166250D01*
X241250Y162500D02*X245000Y166250D01*
X241250Y162500D02*X245000D01*
X247550D02*X250550Y168500D01*
X246800D02*X250550D01*
X255050D02*Y162500D01*
Y168500D02*X257300Y165500D01*
X259550Y168500D01*
Y162500D01*
X263600Y165500D02*X264350Y164750D01*
X262100Y165500D02*X263600D01*
X261350Y164750D02*X262100Y165500D01*
X261350Y164750D02*Y163250D01*
X262100Y162500D01*
X264350Y165500D02*Y163250D01*
X265100Y162500D01*
X262100D02*X263600D01*
X264350Y163250D01*
X266900Y165500D02*Y163250D01*
X267650Y162500D01*
X269900Y165500D02*Y161000D01*
X269150Y160250D02*X269900Y161000D01*
X267650Y160250D02*X269150D01*
X266900Y161000D02*X267650Y160250D01*
Y162500D02*X269150D01*
X269900Y163250D01*
X274400Y167750D02*X275150Y168500D01*
X277400D01*
X278150Y167750D01*
Y166250D01*
X274400Y162500D02*X278150Y166250D01*
X274400Y162500D02*X278150D01*
X279950Y163250D02*X280700Y162500D01*
X279950Y167750D02*Y163250D01*
Y167750D02*X280700Y168500D01*
X282200D01*
X282950Y167750D01*
Y163250D01*
X282200Y162500D02*X282950Y163250D01*
X280700Y162500D02*X282200D01*
X279950Y164000D02*X282950Y167000D01*
X284750Y167300D02*X285950Y168500D01*
Y162500D01*
X284750D02*X287000D01*
X288800Y164750D02*X291800Y168500D01*
X288800Y164750D02*X292550D01*
X291800Y168500D02*Y162500D01*
X297050Y163250D02*X297800Y162500D01*
X297050Y167750D02*Y163250D01*
Y167750D02*X297800Y168500D01*
X299300D01*
X300050Y167750D01*
Y163250D01*
X299300Y162500D02*X300050Y163250D01*
X297800Y162500D02*X299300D01*
X297050Y164000D02*X300050Y167000D01*
X301850Y167750D02*X302600Y168500D01*
X304100D01*
X304850Y167750D01*
X304100Y162500D02*X304850Y163250D01*
X302600Y162500D02*X304100D01*
X301850Y163250D02*X302600Y162500D01*
Y165800D02*X304100D01*
X304850Y167750D02*Y166550D01*
Y165050D02*Y163250D01*
Y165050D02*X304100Y165800D01*
X304850Y166550D02*X304100Y165800D01*
X306650Y166250D02*X307400D01*
X306650Y164750D02*X307400D01*
X309200Y168500D02*X312200D01*
X309200D02*Y165500D01*
X309950Y166250D01*
X311450D01*
X312200Y165500D01*
Y163250D01*
X311450Y162500D02*X312200Y163250D01*
X309950Y162500D02*X311450D01*
X309200Y163250D02*X309950Y162500D01*
X314000Y167750D02*X314750Y168500D01*
X317000D01*
X317750Y167750D01*
Y166250D01*
X314000Y162500D02*X317750Y166250D01*
X314000Y162500D02*X317750D01*
X319550Y166250D02*X320300D01*
X319550Y164750D02*X320300D01*
X322100Y168500D02*X325100D01*
X322100D02*Y165500D01*
X322850Y166250D01*
X324350D01*
X325100Y165500D01*
Y163250D01*
X324350Y162500D02*X325100Y163250D01*
X322850Y162500D02*X324350D01*
X322100Y163250D02*X322850Y162500D01*
X326900Y163250D02*X327650Y162500D01*
X326900Y164450D02*Y163250D01*
Y164450D02*X327950Y165500D01*
X328850D01*
X329900Y164450D01*
Y163250D01*
X329150Y162500D02*X329900Y163250D01*
X327650Y162500D02*X329150D01*
X326900Y166550D02*X327950Y165500D01*
X326900Y167750D02*Y166550D01*
Y167750D02*X327650Y168500D01*
X329150D01*
X329900Y167750D01*
Y166550D01*
X328850Y165500D02*X329900Y166550D01*
X334400Y167000D02*Y162500D01*
Y167000D02*X335450Y168500D01*
X337100D01*
X338150Y167000D01*
Y162500D01*
X334400Y165500D02*X338150D01*
X339950Y168500D02*Y162500D01*
Y168500D02*X342200Y165500D01*
X344450Y168500D01*
Y162500D01*
X351950Y168500D02*X352700Y167750D01*
X349700Y168500D02*X351950D01*
X348950Y167750D02*X349700Y168500D01*
X348950Y167750D02*Y163250D01*
X349700Y162500D01*
X351950D01*
X352700Y163250D01*
Y164750D02*Y163250D01*
X351950Y165500D02*X352700Y164750D01*
X350450Y165500D02*X351950D01*
X354500Y168500D02*Y162500D01*
Y168500D02*X356750Y165500D01*
X359000Y168500D01*
Y162500D01*
X360800Y168500D02*X363800D01*
X362300D02*Y162500D01*
X368300Y168500D02*Y163250D01*
X369050Y162500D01*
X370550D01*
X371300Y163250D01*
Y168500D02*Y163250D01*
X373100Y168500D02*X376100D01*
X374600D02*Y162500D01*
X378950D02*X380900D01*
X377900Y163550D02*X378950Y162500D01*
X377900Y167450D02*Y163550D01*
Y167450D02*X378950Y168500D01*
X380900D01*
X200000Y182000D02*Y177500D01*
Y182000D02*X201050Y183500D01*
X202700D01*
X203750Y182000D01*
Y177500D01*
X200000Y180500D02*X203750D01*
X205550D02*Y178250D01*
X206300Y177500D01*
X207800D01*
X208550Y178250D01*
Y180500D02*Y178250D01*
X211100Y183500D02*Y178250D01*
X211850Y177500D01*
X210350Y181250D02*X211850D01*
X213350Y183500D02*Y177500D01*
Y179750D02*X214100Y180500D01*
X215600D01*
X216350Y179750D01*
Y177500D01*
X218150Y179750D02*Y178250D01*
Y179750D02*X218900Y180500D01*
X220400D01*
X221150Y179750D01*
Y178250D01*
X220400Y177500D02*X221150Y178250D01*
X218900Y177500D02*X220400D01*
X218150Y178250D02*X218900Y177500D01*
X223700Y179750D02*Y177500D01*
Y179750D02*X224450Y180500D01*
X225950D01*
X222950D02*X223700Y179750D01*
X227750Y181250D02*X228500D01*
X227750Y179750D02*X228500D01*
X233000Y183500D02*Y177500D01*
Y183500D02*X236750Y177500D01*
Y183500D02*Y177500D01*
X240800Y180500D02*X241550Y179750D01*
X239300Y180500D02*X240800D01*
X238550Y179750D02*X239300Y180500D01*
X238550Y179750D02*Y178250D01*
X239300Y177500D01*
X241550Y180500D02*Y178250D01*
X242300Y177500D01*
X239300D02*X240800D01*
X241550Y178250D01*
X244850Y183500D02*Y178250D01*
X245600Y177500D01*
X244100Y181250D02*X245600D01*
X247100Y183500D02*Y177500D01*
Y179750D02*X247850Y180500D01*
X249350D01*
X250100Y179750D01*
Y177500D01*
X254150Y180500D02*X254900Y179750D01*
X252650Y180500D02*X254150D01*
X251900Y179750D02*X252650Y180500D01*
X251900Y179750D02*Y178250D01*
X252650Y177500D01*
X254900Y180500D02*Y178250D01*
X255650Y177500D01*
X252650D02*X254150D01*
X254900Y178250D01*
X258200Y179750D02*Y177500D01*
Y179750D02*X258950Y180500D01*
X259700D01*
X260450Y179750D01*
Y177500D01*
X257450Y180500D02*X258200Y179750D01*
X265700Y183500D02*Y177500D01*
X267650Y183500D02*X268700Y182450D01*
Y178550D01*
X267650Y177500D02*X268700Y178550D01*
X264950Y177500D02*X267650D01*
X264950Y183500D02*X267650D01*
X270500Y177500D02*X271250D01*
X275750Y183500D02*Y177500D01*
X279500Y183500D02*Y177500D01*
X275750Y180500D02*X279500D01*
X281300Y179750D02*Y178250D01*
Y179750D02*X282050Y180500D01*
X283550D01*
X284300Y179750D01*
Y178250D01*
X283550Y177500D02*X284300Y178250D01*
X282050Y177500D02*X283550D01*
X281300Y178250D02*X282050Y177500D01*
X286100Y183500D02*Y178250D01*
X286850Y177500D01*
X289100Y179750D02*Y177500D01*
Y179750D02*X289850Y180500D01*
X290600D01*
X291350Y179750D01*
Y177500D01*
Y179750D02*X292100Y180500D01*
X292850D01*
X293600Y179750D01*
Y177500D01*
X288350Y180500D02*X289100Y179750D01*
X296150Y177500D02*X298400D01*
X295400Y178250D02*X296150Y177500D01*
X295400Y179750D02*Y178250D01*
Y179750D02*X296150Y180500D01*
X297650D01*
X298400Y179750D01*
X295400Y179000D02*X298400D01*
Y179750D02*Y179000D01*
X300950Y177500D02*X303200D01*
X303950Y178250D01*
X303200Y179000D02*X303950Y178250D01*
X300950Y179000D02*X303200D01*
X300200Y179750D02*X300950Y179000D01*
X300200Y179750D02*X300950Y180500D01*
X303200D01*
X303950Y179750D01*
X300200Y178250D02*X300950Y177500D01*
X200000Y198500D02*X203000D01*
X201500D02*Y192500D01*
G54D87*X204800Y197000D02*Y196850D01*
G54D86*Y194750D02*Y192500D01*
X207050Y198500D02*Y193250D01*
X207800Y192500D01*
X206300Y196250D02*X207800D01*
X209300Y198500D02*Y193250D01*
X210050Y192500D01*
X212300D02*X214550D01*
X211550Y193250D02*X212300Y192500D01*
X211550Y194750D02*Y193250D01*
Y194750D02*X212300Y195500D01*
X213800D01*
X214550Y194750D01*
X211550Y194000D02*X214550D01*
Y194750D02*Y194000D01*
X216350Y196250D02*X217100D01*
X216350Y194750D02*X217100D01*
X221600Y193250D02*X222350Y192500D01*
X221600Y197750D02*X222350Y198500D01*
X221600Y197750D02*Y193250D01*
X224150Y195500D02*Y193250D01*
X224900Y192500D01*
X226400D01*
X227150Y193250D01*
Y195500D02*Y193250D01*
X229700Y194750D02*Y192500D01*
Y194750D02*X230450Y195500D01*
X231200D01*
X231950Y194750D01*
Y192500D01*
X228950Y195500D02*X229700Y194750D01*
X233750Y198500D02*Y192500D01*
Y194750D02*X236000Y192500D01*
X233750Y194750D02*X235250Y196250D01*
X238550Y194750D02*Y192500D01*
Y194750D02*X239300Y195500D01*
X240050D01*
X240800Y194750D01*
Y192500D01*
X237800Y195500D02*X238550Y194750D01*
X242600D02*Y193250D01*
Y194750D02*X243350Y195500D01*
X244850D01*
X245600Y194750D01*
Y193250D01*
X244850Y192500D02*X245600Y193250D01*
X243350Y192500D02*X244850D01*
X242600Y193250D02*X243350Y192500D01*
X247400Y195500D02*Y193250D01*
X248150Y192500D01*
X248900D01*
X249650Y193250D01*
Y195500D02*Y193250D01*
X250400Y192500D01*
X251150D01*
X251900Y193250D01*
Y195500D02*Y193250D01*
X254450Y194750D02*Y192500D01*
Y194750D02*X255200Y195500D01*
X255950D01*
X256700Y194750D01*
Y192500D01*
X253700Y195500D02*X254450Y194750D01*
X258500Y198500D02*X259250Y197750D01*
Y193250D01*
X258500Y192500D02*X259250Y193250D01*
X263750Y195500D02*X266750D01*
X271250Y198500D02*Y192500D01*
Y198500D02*X274250D01*
X271250Y195800D02*X273500D01*
X278300Y195500D02*X279050Y194750D01*
X276800Y195500D02*X278300D01*
X276050Y194750D02*X276800Y195500D01*
X276050Y194750D02*Y193250D01*
X276800Y192500D01*
X279050Y195500D02*Y193250D01*
X279800Y192500D01*
X276800D02*X278300D01*
X279050Y193250D01*
X281600Y198500D02*Y192500D01*
Y193250D02*X282350Y192500D01*
X283850D01*
X284600Y193250D01*
Y194750D02*Y193250D01*
X283850Y195500D02*X284600Y194750D01*
X282350Y195500D02*X283850D01*
X281600Y194750D02*X282350Y195500D01*
X287150Y194750D02*Y192500D01*
Y194750D02*X287900Y195500D01*
X289400D01*
X286400D02*X287150Y194750D01*
G54D87*X291200Y197000D02*Y196850D01*
G54D86*Y194750D02*Y192500D01*
X293450Y195500D02*X295700D01*
X292700Y194750D02*X293450Y195500D01*
X292700Y194750D02*Y193250D01*
X293450Y192500D01*
X295700D01*
X299750Y195500D02*X300500Y194750D01*
X298250Y195500D02*X299750D01*
X297500Y194750D02*X298250Y195500D01*
X297500Y194750D02*Y193250D01*
X298250Y192500D01*
X300500Y195500D02*Y193250D01*
X301250Y192500D01*
X298250D02*X299750D01*
X300500Y193250D01*
X303800Y198500D02*Y193250D01*
X304550Y192500D01*
X303050Y196250D02*X304550D01*
G54D87*X306050Y197000D02*Y196850D01*
G54D86*Y194750D02*Y192500D01*
X307550Y194750D02*Y193250D01*
Y194750D02*X308300Y195500D01*
X309800D01*
X310550Y194750D01*
Y193250D01*
X309800Y192500D02*X310550Y193250D01*
X308300Y192500D02*X309800D01*
X307550Y193250D02*X308300Y192500D01*
X313100Y194750D02*Y192500D01*
Y194750D02*X313850Y195500D01*
X314600D01*
X315350Y194750D01*
Y192500D01*
X312350Y195500D02*X313100Y194750D01*
X320600Y198500D02*Y192500D01*
X322550Y198500D02*X323600Y197450D01*
Y193550D01*
X322550Y192500D02*X323600Y193550D01*
X319850Y192500D02*X322550D01*
X319850Y198500D02*X322550D01*
X326150Y194750D02*Y192500D01*
Y194750D02*X326900Y195500D01*
X328400D01*
X325400D02*X326150Y194750D01*
X332450Y195500D02*X333200Y194750D01*
X330950Y195500D02*X332450D01*
X330200Y194750D02*X330950Y195500D01*
X330200Y194750D02*Y193250D01*
X330950Y192500D01*
X333200Y195500D02*Y193250D01*
X333950Y192500D01*
X330950D02*X332450D01*
X333200Y193250D01*
X335750Y195500D02*Y193250D01*
X336500Y192500D01*
X337250D01*
X338000Y193250D01*
Y195500D02*Y193250D01*
X338750Y192500D01*
X339500D01*
X340250Y193250D01*
Y195500D02*Y193250D01*
G54D87*X342050Y197000D02*Y196850D01*
G54D86*Y194750D02*Y192500D01*
X344300Y194750D02*Y192500D01*
Y194750D02*X345050Y195500D01*
X345800D01*
X346550Y194750D01*
Y192500D01*
X343550Y195500D02*X344300Y194750D01*
X350600Y195500D02*X351350Y194750D01*
X349100Y195500D02*X350600D01*
X348350Y194750D02*X349100Y195500D01*
X348350Y194750D02*Y193250D01*
X349100Y192500D01*
X350600D01*
X351350Y193250D01*
X348350Y191000D02*X349100Y190250D01*
X350600D01*
X351350Y191000D01*
Y195500D02*Y191000D01*
M02*
