G04 start of page 6 for group -4063 idx -4063 *
G04 Title: (unknown), componentmask *
G04 Creator: pcb 20110918 *
G04 CreationDate: Tue 27 May 2014 03:52:58 AM GMT UTC *
G04 For: ndholmes *
G04 Format: Gerber/RS-274X *
G04 PCB-Dimensions: 225000 140000 *
G04 PCB-Coordinate-Origin: lower left *
%MOIN*%
%FSLAX25Y25*%
%LNTOPMASK*%
%ADD65R,0.0151X0.0151*%
%ADD64R,0.0612X0.0612*%
%ADD63R,0.0376X0.0376*%
%ADD62R,0.0494X0.0494*%
%ADD61R,0.0415X0.0415*%
%ADD60R,0.0420X0.0420*%
%ADD59R,0.0690X0.0690*%
%ADD58R,0.0300X0.0300*%
%ADD57R,0.0572X0.0572*%
%ADD56C,0.0660*%
%ADD55C,0.0860*%
%ADD54C,0.0001*%
%ADD53C,0.0900*%
G54D53*X88500Y128000D03*
X98500D03*
G54D54*G36*
X104000Y132500D02*Y123500D01*
X113000D01*
Y132500D01*
X104000D01*
G37*
G36*
X201200Y113800D02*Y105200D01*
X209800D01*
Y113800D01*
X201200D01*
G37*
G54D55*X205500Y129500D03*
G54D54*G36*
X127200Y10800D02*Y4200D01*
X133800D01*
Y10800D01*
X127200D01*
G37*
G54D56*X130500Y17500D03*
G54D54*G36*
X201200Y33800D02*Y25200D01*
X209800D01*
Y33800D01*
X201200D01*
G37*
G54D56*X135000Y53500D03*
G54D55*X205500Y49500D03*
G54D54*G36*
X201200Y73800D02*Y65200D01*
X209800D01*
Y73800D01*
X201200D01*
G37*
G54D55*X205500Y89500D03*
G54D54*G36*
X121700Y66800D02*Y60200D01*
X128300D01*
Y66800D01*
X121700D01*
G37*
G54D56*X125000Y53500D03*
Y43500D03*
X135000Y63500D03*
Y43500D03*
G54D54*G36*
X16200Y85800D02*Y77200D01*
X24800D01*
Y85800D01*
X16200D01*
G37*
G54D55*X20500Y61500D03*
G54D54*G36*
X16200Y133800D02*Y125200D01*
X24800D01*
Y133800D01*
X16200D01*
G37*
G54D55*X20500Y109500D03*
G54D53*X70500Y88500D03*
X60500D03*
G54D54*G36*
X46000Y93000D02*Y84000D01*
X55000D01*
Y93000D01*
X46000D01*
G37*
G54D53*X12500Y33000D03*
Y23000D03*
G54D54*G36*
X8000Y17500D02*Y8500D01*
X17000D01*
Y17500D01*
X8000D01*
G37*
G54D57*X49000Y7893D02*Y7107D01*
G54D58*X32000Y16500D02*Y10000D01*
X37000Y16500D02*Y10000D01*
X42000Y16500D02*Y10000D01*
G54D57*X56086Y7893D02*Y7107D01*
G54D59*X69446Y11500D02*X73382D01*
G54D57*X49107Y18457D02*X49893D01*
X49107Y25543D02*X49893D01*
G54D58*X68500Y38500D02*X75000D01*
X68500Y33500D02*X75000D01*
X68500Y28500D02*X75000D01*
X68500Y23500D02*X75000D01*
G54D57*X78457Y45893D02*Y45107D01*
X69043Y73893D02*Y73107D01*
X61957Y73893D02*Y73107D01*
G54D59*X64000Y134492D02*Y128193D01*
G54D60*X43400Y121600D02*X44600D01*
X43400Y134500D02*X44600D01*
G54D59*X64000Y114807D02*Y108508D01*
G54D57*X44107Y112043D02*X44893D01*
X44107Y104957D02*X44893D01*
G54D59*X63193Y55500D02*X69492D01*
X43508D02*X49807D01*
G54D58*X42000Y37000D02*Y30500D01*
X37000Y37000D02*Y30500D01*
X32000Y37000D02*Y30500D01*
X27000Y37000D02*Y30500D01*
G54D57*X38043Y45893D02*Y45107D01*
X30957Y45893D02*Y45107D01*
G54D58*X27000Y16500D02*Y10000D01*
G54D57*X92457Y75893D02*Y75107D01*
X99543Y75893D02*Y75107D01*
X90043Y110393D02*Y109607D01*
X82957Y110393D02*Y109607D01*
G54D59*X106000Y109492D02*Y103193D01*
Y89807D02*Y83508D01*
G54D57*X85319Y84095D02*X87681D01*
X85319Y95905D02*X87681D01*
X103414Y66393D02*Y65607D01*
X99564Y57043D02*X100350D01*
X99564Y49957D02*X100350D01*
X109607Y57043D02*X110393D01*
X109607Y49957D02*X110393D01*
X89607Y57957D02*X90393D01*
X89607Y65043D02*X90393D01*
X85543Y45893D02*Y45107D01*
G54D59*X83618Y11500D02*X87554D01*
X99946D02*X103882D01*
G54D58*X89000Y23500D02*X95500D01*
X89000Y28500D02*X95500D01*
X89000Y33500D02*X95500D01*
X89000Y38500D02*X95500D01*
G54D57*X113607Y31586D02*X114393D01*
X113607Y24500D02*X114393D01*
X110500Y66393D02*Y65607D01*
X104107Y31543D02*X104893D01*
X104107Y24457D02*X104893D01*
G54D59*X114118Y11500D02*X118054D01*
G54D57*X163319Y10595D02*X165681D01*
X152819D02*X155181D01*
X141819D02*X144181D01*
X163319Y22405D02*X165681D01*
X152819D02*X155181D01*
X141819D02*X144181D01*
G54D58*X181700Y64900D02*X183300D01*
X181700Y68800D02*X183300D01*
X173500D02*X175100D01*
G54D61*X177903Y116476D02*X178689D01*
G54D62*X178296Y92460D02*Y91672D01*
X178295Y136358D02*Y129270D01*
G54D58*X173500Y64900D02*X175100D01*
G54D57*X155957Y64393D02*Y63607D01*
X163043Y64393D02*Y63607D01*
G54D63*X140501Y76122D02*Y74153D01*
X144831Y76122D02*Y74153D01*
X149162Y76122D02*Y74153D01*
G54D64*X125146Y135769D02*Y133406D01*
G54D62*X134399Y75531D02*Y74743D01*
G54D63*X153493Y76122D02*Y74153D01*
X157824Y76122D02*Y74153D01*
X162154Y76122D02*Y74153D01*
X166485Y76122D02*Y74153D01*
X170816Y76122D02*Y74153D01*
X175147Y76122D02*Y74153D01*
G54D57*X145107Y47043D02*X145893D01*
X145107Y39957D02*X145893D01*
G54D65*X154126Y50390D02*X155780D01*
X154126Y48421D02*X155780D01*
X154126Y46453D02*X155780D01*
X154126Y44484D02*X155780D01*
X154126Y42516D02*X155780D01*
X154126Y40547D02*X155780D01*
X154126Y38579D02*X155780D01*
G54D57*X173457Y19893D02*Y19107D01*
X180543Y19893D02*Y19107D01*
X173457Y11393D02*Y10607D01*
X180543Y11393D02*Y10607D01*
G54D65*X154126Y36610D02*X155780D01*
X157610Y34780D02*Y33126D01*
X159579Y34780D02*Y33126D01*
X161547Y34780D02*Y33126D01*
X163516Y34780D02*Y33126D01*
X165484Y34780D02*Y33126D01*
X167453Y34780D02*Y33126D01*
X169421Y34780D02*Y33126D01*
X171390Y34780D02*Y33126D01*
X173220Y36610D02*X174874D01*
G54D58*X181700Y61000D02*X183300D01*
X173500D02*X175100D01*
G54D65*X173220Y38579D02*X174874D01*
X173220Y40547D02*X174874D01*
X173220Y42516D02*X174874D01*
G54D54*G36*
X158098Y49902D02*Y37098D01*
X170902D01*
Y49902D01*
X158098D01*
G37*
G36*
Y37098D01*
X170902D01*
Y49902D01*
X158098D01*
G37*
G54D65*X173220Y44484D02*X174874D01*
X173220Y46453D02*X174874D01*
X173220Y48421D02*X174874D01*
X173220Y50390D02*X174874D01*
X171390Y53874D02*Y52220D01*
X169421Y53874D02*Y52220D01*
X167453Y53874D02*Y52220D01*
X165484Y53874D02*Y52220D01*
X163516Y53874D02*Y52220D01*
X161547Y53874D02*Y52220D01*
X159579Y53874D02*Y52220D01*
X157610Y53874D02*Y52220D01*
G54D57*X191607Y7914D02*X192393D01*
X191607Y15000D02*X192393D01*
X213150Y4914D02*X213936D01*
X213150Y12000D02*X213936D01*
X204607Y7457D02*X205393D01*
X204607Y14543D02*X205393D01*
M02*
