M48
INCH
T52C0.020
T51C0.038
T50C0.048
T49C0.045
%
T52
X009700Y009550
X009700Y009050
X009700Y008550
X013550Y008550
X014000Y008550
X011500Y009550
X011500Y009050
X011500Y008550
X011500Y008050
X011150Y007550
X012050Y007200
X012800Y011250
X012250Y011250
X012250Y010300
X012800Y010300
X012550Y010750
X014550Y005250
X014500Y002800
X016300Y002800
X018650Y001450
X018600Y002200
X018000Y003850
X017350Y005700
X018050Y005300
X018300Y004300
X018300Y004800
X018300Y008050
X019650Y008750
X019650Y008050
X019650Y007350
X015800Y007000
X014900Y006900
X014450Y008550
X014450Y008100
X016150Y009100
X016150Y008650
X016600Y009100
X017050Y009100
X016600Y008650
X017050Y008650
X016150Y008200
X016600Y008200
X017050Y008200
X003100Y005450
X003600Y005450
X003100Y005950
X003600Y005950
X003100Y006450
X003050Y002200
X003600Y006450
X004150Y006450
X003100Y006950
X003100Y007400
X003600Y006950
X003600Y007400
X004150Y007400
X004150Y006950
X005250Y007400
X004700Y007400
X005250Y006950
X005250Y006450
X004700Y006450
X004700Y006950
X007200Y011550
X007200Y010950
X007050Y010400
X007750Y011550
X007750Y010950
X007600Y010400
X005600Y011550
X005600Y011000
X005600Y010450
X008100Y010400
X004580Y003680
X004580Y003230
X005030Y003680
X005030Y003230
X005800Y002450
X009100Y004450
X009400Y004950
T51
X013050Y000750
X013050Y001750
X013500Y005350
X012500Y006350
X012500Y005350
X012500Y004350
X013500Y006350
X013500Y004350
T49
X008850Y012800
X009850Y012800
X010850Y012800
X007050Y008850
X006050Y008850
X005050Y008850
X001250Y003300
X001250Y002300
X001250Y001300
T50
X020550Y010950
X020550Y012950
X020550Y002950
X020550Y004950
X020550Y006950
X020550Y008950
X002050Y008150
X002050Y006150
X002050Y012950
X002050Y010950
M30
