G04 start of page 7 for group -4062 idx -4062 *
G04 Title: (unknown), soldermask *
G04 Creator: pcb 20110918 *
G04 CreationDate: Tue 27 May 2014 03:52:58 AM GMT UTC *
G04 For: ndholmes *
G04 Format: Gerber/RS-274X *
G04 PCB-Dimensions: 225000 140000 *
G04 PCB-Coordinate-Origin: lower left *
%MOIN*%
%FSLAX25Y25*%
%LNBOTTOMMASK*%
%ADD70C,0.0907*%
%ADD69C,0.0660*%
%ADD68C,0.0860*%
%ADD67C,0.0001*%
%ADD66C,0.0900*%
G54D66*X88500Y128000D03*
X98500D03*
G54D67*G36*
X104000Y132500D02*Y123500D01*
X113000D01*
Y132500D01*
X104000D01*
G37*
G36*
X201200Y113800D02*Y105200D01*
X209800D01*
Y113800D01*
X201200D01*
G37*
G54D68*X205500Y129500D03*
G54D67*G36*
X127200Y10800D02*Y4200D01*
X133800D01*
Y10800D01*
X127200D01*
G37*
G54D69*X130500Y17500D03*
G54D67*G36*
X201200Y33800D02*Y25200D01*
X209800D01*
Y33800D01*
X201200D01*
G37*
G54D69*X135000Y53500D03*
G54D68*X205500Y49500D03*
G54D67*G36*
X201200Y73800D02*Y65200D01*
X209800D01*
Y73800D01*
X201200D01*
G37*
G54D68*X205500Y89500D03*
G54D67*G36*
X121700Y66800D02*Y60200D01*
X128300D01*
Y66800D01*
X121700D01*
G37*
G54D69*X125000Y53500D03*
Y43500D03*
X135000Y63500D03*
Y43500D03*
G54D67*G36*
X16200Y85800D02*Y77200D01*
X24800D01*
Y85800D01*
X16200D01*
G37*
G54D68*X20500Y61500D03*
G54D67*G36*
X16200Y133800D02*Y125200D01*
X24800D01*
Y133800D01*
X16200D01*
G37*
G54D68*X20500Y109500D03*
G54D66*X70500Y88500D03*
X60500D03*
G54D67*G36*
X46000Y93000D02*Y84000D01*
X55000D01*
Y93000D01*
X46000D01*
G37*
G54D66*X12500Y33000D03*
Y23000D03*
G54D67*G36*
X8000Y17500D02*Y8500D01*
X17000D01*
Y17500D01*
X8000D01*
G37*
G54D70*X60500Y92437D02*Y84563D01*
X50500Y92437D02*Y84563D01*
X70500Y92437D02*Y84563D01*
X8563Y23000D02*X16437D01*
X8563Y13000D02*X16437D01*
X8563Y33000D02*X16437D01*
X98500Y131937D02*Y124063D01*
X108500Y131937D02*Y124063D01*
X88500Y131937D02*Y124063D01*
M02*
